<?xml version="1.0" encoding="UTF-8" standalone="no"?>
<svg
   xmlns:dc="http://purl.org/dc/elements/1.1/"
   xmlns:cc="http://creativecommons.org/ns#"
   xmlns:rdf="http://www.w3.org/1999/02/22-rdf-syntax-ns#"
   xmlns:svg="http://www.w3.org/2000/svg"
   xmlns="http://www.w3.org/2000/svg"
   xmlns:sodipodi="http://sodipodi.sourceforge.net/DTD/sodipodi-0.dtd"
   xmlns:inkscape="http://www.inkscape.org/namespaces/inkscape"
   id="svg8"
   version="1.1"
   viewBox="0 0 297 210"
   height="210mm"
   width="297mm"
   sodipodi:docname="adv-monotone.svg"
   inkscape:version="0.92.3 (2405546, 2018-03-11)">
  <sodipodi:namedview
     pagecolor="#ffffff"
     bordercolor="#666666"
     borderopacity="1"
     objecttolerance="10"
     gridtolerance="10"
     guidetolerance="10"
     inkscape:pageopacity="0"
     inkscape:pageshadow="2"
     inkscape:window-width="2560"
     inkscape:window-height="1311"
     id="namedview7"
     showgrid="false"
     showguides="true"
     inkscape:guide-bbox="true"
     inkscape:zoom="0.84100811"
     inkscape:cx="543.49246"
     inkscape:cy="282.32203"
     inkscape:window-x="0"
     inkscape:window-y="55"
     inkscape:window-maximized="1"
     inkscape:current-layer="svg8" />
  <defs
     id="defs2" />
  <metadata
     id="metadata5">
    <rdf:RDF>
      <cc:Work
         rdf:about="">
        <dc:format>image/svg+xml</dc:format>
        <dc:type
           rdf:resource="http://purl.org/dc/dcmitype/StillImage" />
        <dc:title />
      </cc:Work>
    </rdf:RDF>
  </metadata>
  <path
     sodipodi:nodetypes="cccccccccccccccc"
     inkscape:connector-curvature="0"
     id="path933"
     d="m 243.33363,177.55776 -7.86506,-5.01915 5.97745,-14.15712 -1.88762,-23.90979 -16.23557,-18.75239 -32.21323,-9.56184 -54.74085,-1.57302 -68.897961,9.12348 -9.12348,12.8987 -4.40443,39.01072 12.5841,18.56156 30.83105,14.47172 54.111651,4.08983 59.45989,-7.55046 15.10092,-13.21331 z"
     style="fill:#cbbc82;fill-opacity:1;fill-rule:evenodd;stroke:none;stroke-width:0.26458332px;stroke-linecap:butt;stroke-linejoin:miter;stroke-opacity:1" />
  <path
     sodipodi:nodetypes="cccccccccccccc"
     inkscape:connector-curvature="0"
     id="path931"
     d="m 58.415801,83.529757 7.23586,-8.479784 -11.32569,-26.112015 1.88762,-26.426616 34.92088,-17.3031431 105.037979,3.193454 36.01465,20.8782741 8.47846,30.361068 -10.50294,25.428833 -31.01263,13.521362 -55.47689,4.14382 -62.920509,-8.494279 -7.23586,-9.123473 z"
     style="fill:#ff5d48;fill-opacity:1;fill-rule:evenodd;stroke:none;stroke-width:0.26458332px;stroke-linecap:butt;stroke-linejoin:miter;stroke-opacity:1" />
  <path
     style="fill:#ffd5d5;fill-rule:evenodd;stroke:none;stroke-width:0.26458332px;stroke-linecap:butt;stroke-linejoin:miter;stroke-opacity:1"
     d="m 58.415801,83.529757 7.23586,-10.067285 -11.32569,-26.112015 1.88762,-26.426616 34.92088,-17.3031422 105.037979,3.193454 37.3494,13.3147142 7.14371,37.924627 -10.50294,25.428833 -31.01263,13.521362 -55.47689,4.143811 -62.920509,-8.49427 -7.23586,-9.123473 z"
     id="path917"
     inkscape:connector-curvature="0"
     sodipodi:nodetypes="cccccccccccccc" />
  <path
     style="fill:#f4eed7;fill-rule:evenodd;stroke:none;stroke-width:0.26458332px;stroke-linecap:butt;stroke-linejoin:miter;stroke-opacity:1"
     d="m 243.33363,177.55776 -7.86506,-6.60666 5.97745,-14.15712 -1.88762,-23.90979 -16.23557,-18.75239 -32.21323,-9.56184 -54.74085,-1.57302 -68.897961,9.12348 -9.12348,12.8987 -4.40443,39.01072 12.5841,18.56156 30.83105,14.47172 54.111651,4.08983 59.45989,-7.55046 15.10092,-13.21331 z"
     id="path919"
     inkscape:connector-curvature="0"
     sodipodi:nodetypes="cccccccccccccccc" />
  <g
     id="g911"
     transform="translate(18.24695,6.6066545)">
    <path
       inkscape:connector-curvature="0"
       id="path822"
       d="m 174.63142,81.214954 8.96618,-4.247134 12.74141,-9.752682 7.55046,-11.640296 3.93253,-14.157116 -1.57302,-13.056007 -4.56173,-9.75268 -7.07856,-7.550463"
       style="fill:none;fill-rule:evenodd;stroke:#000000;stroke-width:1.58749998;stroke-linecap:round;stroke-linejoin:round;stroke-miterlimit:4;stroke-dasharray:none;stroke-opacity:1" />
    <path
       inkscape:connector-curvature="0"
       id="path820"
       d="m 71.441776,10.272069 -11.797596,10.696489 -5.977449,11.797597 -0.314602,15.415527 3.77523,12.426802 6.606655,12.584105 9.280776,7.235859"
       style="fill:none;fill-rule:evenodd;stroke:#000000;stroke-width:1.58749998;stroke-linecap:round;stroke-linejoin:round;stroke-miterlimit:4;stroke-dasharray:none;stroke-opacity:1" />
    <path
       sodipodi:nodetypes="cccccccccccccccc"
       inkscape:connector-curvature="0"
       id="path814"
       d="m 71.441777,10.272069 -11.797597,10.696489 -5.977449,11.797597 -0.314602,15.415527 3.77523,12.426802 6.606655,12.584105 9.280776,7.235859 101.61663,0.786506 8.96618,-4.247134 12.74141,-9.752682 7.55046,-11.640296 3.93253,-14.157116 -1.57302,-13.056007 -4.56173,-9.75268 -7.07856,-7.550463 z"
       style="fill:#80e5ff;fill-rule:evenodd;stroke:#000000;stroke-width:0.26458332px;stroke-linecap:butt;stroke-linejoin:miter;stroke-opacity:1" />
    <path
       inkscape:connector-curvature="0"
       id="path818"
       d="M 71.441776,10.272069 201.68725,18.609039 59.64418,20.968558 206.24898,28.361719 53.666731,32.766155 207.822,41.417726 53.352129,48.181682 203.88947,55.574842 57.127359,60.608484 196.33901,67.215138 63.734014,73.192589 183.5976,76.96782 73.01479,80.428448"
       style="fill:none;fill-rule:evenodd;stroke:#000000;stroke-width:0.26458332px;stroke-linecap:butt;stroke-linejoin:miter;stroke-opacity:1" />
  </g>
  <g
     id="g929"
     transform="translate(0,14.471719)">
    <path
       style="fill:none;fill-rule:evenodd;stroke:#000000;stroke-width:1.58749998;stroke-linecap:round;stroke-linejoin:round;stroke-miterlimit:4;stroke-dasharray:none;stroke-opacity:1"
       d="m 191.61996,171.97111 8.96618,-4.24713 12.74141,-9.75268 7.55046,-11.6403 3.93253,-14.15712 -1.57302,-13.056 -4.56173,-9.75268 -7.07856,-7.55047"
       id="path830"
       inkscape:connector-curvature="0" />
    <path
       style="fill:none;fill-rule:evenodd;stroke:#000000;stroke-width:1.58749998;stroke-linecap:round;stroke-linejoin:round;stroke-miterlimit:4;stroke-dasharray:none;stroke-opacity:1"
       d="m 88.430317,101.02823 -11.797596,10.69649 -5.977449,11.79759 -0.314602,15.41553 3.77523,12.4268 6.606655,12.58411 9.280776,7.23586"
       id="path828"
       inkscape:connector-curvature="0" />
    <path
       style="fill:#80e5ff;fill-rule:evenodd;stroke:#000000;stroke-width:0.26458332px;stroke-linecap:butt;stroke-linejoin:miter;stroke-opacity:1"
       d="m 88.430318,101.02823 -11.797597,10.69649 -5.977449,11.79759 -0.314602,15.41553 3.77523,12.4268 6.606655,12.58411 9.280776,7.23586 101.616629,0.7865 8.96618,-4.24713 12.74141,-9.75268 7.55046,-11.6403 3.93253,-14.15712 -1.57302,-13.056 -4.56173,-9.75268 -7.07856,-7.55047 z"
       id="path824"
       inkscape:connector-curvature="0"
       sodipodi:nodetypes="cccccccccccccccc" />
    <path
       inkscape:connector-curvature="0"
       id="path834"
       d="m 88.430317,101.02823 -17.775045,22.49408 3.460628,27.84233 15.887431,19.81997"
       style="fill:none;fill-rule:evenodd;stroke:#000000;stroke-width:0.26458332px;stroke-linecap:butt;stroke-linejoin:miter;stroke-opacity:1" />
    <path
       inkscape:connector-curvature="0"
       id="path836"
       d="M 88.430317,101.02823 74.1159,151.36464"
       style="fill:none;fill-rule:evenodd;stroke:#000000;stroke-width:0.26458332px;stroke-linecap:butt;stroke-linejoin:miter;stroke-opacity:1" />
    <path
       inkscape:connector-curvature="0"
       id="path838"
       d="M 90.003331,171.18461 88.430317,101.02823"
       style="fill:none;fill-rule:evenodd;stroke:#000000;stroke-width:0.26458332px;stroke-linecap:butt;stroke-linejoin:miter;stroke-opacity:1" />
    <path
       inkscape:connector-curvature="0"
       id="path840"
       d="m 88.430317,101.02823 103.189643,70.94288 19.97727,-70.15638 13.21331,30.35915 -11.48299,25.79742 -21.70759,13.99981"
       style="fill:none;fill-rule:evenodd;stroke:#000000;stroke-width:0.26458332px;stroke-linecap:butt;stroke-linejoin:miter;stroke-opacity:1" />
    <path
       inkscape:connector-curvature="0"
       id="path842"
       d="m 211.59723,101.81473 1.73032,56.15657"
       style="fill:none;fill-rule:evenodd;stroke:#000000;stroke-width:0.26458332px;stroke-linecap:butt;stroke-linejoin:miter;stroke-opacity:1" />
  </g>
  <g
     id="g894"
     transform="translate(-195.83475,32.518571)">
    <circle
       style="color:#000000;overflow:visible;opacity:1;fill:#aa0000;fill-opacity:1;stroke:none;stroke-width:1.58749998;stroke-linecap:round;stroke-linejoin:round;stroke-miterlimit:4;stroke-dasharray:none;stroke-dashoffset:0;stroke-opacity:1"
       id="circle869"
       cx="225.72736"
       cy="53.085056"
       r="20.291866" />
    <circle
       r="20.291866"
       cy="50.968388"
       cx="225.72736"
       id="path856"
       style="color:#000000;overflow:visible;opacity:1;fill:#ff0000;fill-opacity:1;stroke:none;stroke-width:1.58749998;stroke-linecap:round;stroke-linejoin:round;stroke-miterlimit:4;stroke-dasharray:none;stroke-dashoffset:0;stroke-opacity:1" />
    <circle
       r="2.8904111"
       cy="44.695999"
       cx="216.3876"
       id="path860"
       style="color:#000000;overflow:visible;opacity:1;fill:#000000;fill-opacity:1;stroke:none;stroke-width:1.58749998;stroke-linecap:round;stroke-linejoin:round;stroke-miterlimit:4;stroke-dasharray:none;stroke-dashoffset:0;stroke-opacity:1" />
    <circle
       style="color:#000000;overflow:visible;opacity:1;fill:#000000;fill-opacity:1;stroke:none;stroke-width:1.58749998;stroke-linecap:round;stroke-linejoin:round;stroke-miterlimit:4;stroke-dasharray:none;stroke-dashoffset:0;stroke-opacity:1"
       id="circle862"
       cx="234.71321"
       cy="44.695999"
       r="2.8904111" />
    <path
       inkscape:connector-curvature="0"
       id="path864"
       d="m 225.86481,55.608885 a 10.519523,10.519523 0 0 0 -10.37508,8.865092 11.463331,11.463331 0 0 1 10.41435,-6.702436 11.463331,11.463331 0 0 1 10.30222,6.454905 10.519523,10.519523 0 0 0 -10.34149,-8.617561 z"
       style="color:#000000;overflow:visible;opacity:1;fill:#000000;fill-opacity:1;stroke:none;stroke-width:1.72274339;stroke-linecap:round;stroke-linejoin:round;stroke-miterlimit:4;stroke-dasharray:none;stroke-dashoffset:0;stroke-opacity:1" />
  </g>
  <g
     id="g905"
     transform="translate(-196.94123,28.427381)">
    <circle
       r="20.291866"
       cy="143.959"
       cx="466.64896"
       id="circle871"
       style="color:#000000;overflow:visible;opacity:1;fill:#447821;fill-opacity:1;stroke:none;stroke-width:1.58749998;stroke-linecap:round;stroke-linejoin:round;stroke-miterlimit:4;stroke-dasharray:none;stroke-dashoffset:0;stroke-opacity:1" />
    <circle
       style="color:#000000;overflow:visible;opacity:1;fill:#5aa02c;fill-opacity:1;stroke:none;stroke-width:1.58749998;stroke-linecap:round;stroke-linejoin:round;stroke-miterlimit:4;stroke-dasharray:none;stroke-dashoffset:0;stroke-opacity:1"
       id="circle873"
       cx="466.64896"
       cy="141.84233"
       r="20.291866" />
    <circle
       style="color:#000000;overflow:visible;opacity:1;fill:#000000;fill-opacity:1;stroke:none;stroke-width:1.58749998;stroke-linecap:round;stroke-linejoin:round;stroke-miterlimit:4;stroke-dasharray:none;stroke-dashoffset:0;stroke-opacity:1"
       id="circle875"
       cx="457.3092"
       cy="135.56995"
       r="2.8904111" />
    <circle
       r="2.8904111"
       cy="135.56995"
       cx="475.63483"
       id="circle877"
       style="color:#000000;overflow:visible;opacity:1;fill:#000000;fill-opacity:1;stroke:none;stroke-width:1.58749998;stroke-linecap:round;stroke-linejoin:round;stroke-miterlimit:4;stroke-dasharray:none;stroke-dashoffset:0;stroke-opacity:1" />
    <path
       style="color:#000000;overflow:visible;opacity:1;fill:#000000;fill-opacity:1;stroke:none;stroke-width:1.72274339;stroke-linecap:round;stroke-linejoin:round;stroke-miterlimit:4;stroke-dasharray:none;stroke-dashoffset:0;stroke-opacity:1"
       d="m 466.78642,155.34792 a 10.519523,10.519523 0 0 1 -10.37508,-8.86509 11.463331,11.463331 0 0 0 10.41435,6.70244 11.463331,11.463331 0 0 0 10.30222,-6.45491 10.519523,10.519523 0 0 1 -10.34149,8.61756 z"
       id="path879"
       inkscape:connector-curvature="0" />
  </g>
</svg>
