<?xml version="1.0" encoding="UTF-8" standalone="no"?>
<svg
   xmlns:dc="http://purl.org/dc/elements/1.1/"
   xmlns:cc="http://creativecommons.org/ns#"
   xmlns:rdf="http://www.w3.org/1999/02/22-rdf-syntax-ns#"
   xmlns:svg="http://www.w3.org/2000/svg"
   xmlns="http://www.w3.org/2000/svg"
   xmlns:xlink="http://www.w3.org/1999/xlink"
   xmlns:sodipodi="http://sodipodi.sourceforge.net/DTD/sodipodi-0.dtd"
   xmlns:inkscape="http://www.inkscape.org/namespaces/inkscape"
   id="svg8"
   version="1.1"
   viewBox="0 0 297 210"
   height="210mm"
   width="297mm"
   sodipodi:docname="end.svg"
   inkscape:version="0.92.3 (2405546, 2018-03-11)">
  <sodipodi:namedview
     pagecolor="#ffffff"
     bordercolor="#666666"
     borderopacity="1"
     objecttolerance="10"
     gridtolerance="10"
     guidetolerance="10"
     inkscape:pageopacity="0"
     inkscape:pageshadow="2"
     inkscape:window-width="2560"
     inkscape:window-height="1311"
     id="namedview7"
     showgrid="false"
     inkscape:zoom="1.1893651"
     inkscape:cx="500.78358"
     inkscape:cy="292.49936"
     inkscape:window-x="0"
     inkscape:window-y="55"
     inkscape:window-maximized="1"
     inkscape:current-layer="svg8" />
  <defs
     id="defs2">
    <radialGradient
       id="f"
       cx="2676.34"
       cy="1896.41"
       r="88.31"
       gradientUnits="userSpaceOnUse"
       gradientTransform="matrix(1.80048,0.4669,-0.36462,1.4061,-3967.03,-3019.95)"
       fy="1896.41"
       fx="2676.34"
       xlink:href="#a" />
    <linearGradient
       id="a">
      <stop
         stop-color="#f95"
         offset="0"
         id="stop821" />
      <stop
         stop-opacity="0"
         stop-color="#f95"
         offset="1"
         id="stop823" />
    </linearGradient>
    <linearGradient
       id="e"
       x1="723.73"
       x2="943.97"
       y1="1985.2"
       y2="1604.77"
       gradientTransform="translate(-553.986,-998.09)"
       gradientUnits="userSpaceOnUse"
       xlink:href="#b" />
    <linearGradient
       id="b">
      <stop
         stop-color="#660080"
         offset="0"
         id="stop827" />
      <stop
         stop-color="#b03c15"
         offset="1"
         id="stop829" />
    </linearGradient>
    <linearGradient
       id="d"
       x1="1353.9"
       x2="1249.59"
       y1="1924.31"
       y2="1659.31"
       gradientTransform="translate(-1044.01,-999.505)"
       gradientUnits="userSpaceOnUse"
       xlink:href="#c" />
    <linearGradient
       id="c">
      <stop
         stop-color="#efa747"
         offset="0"
         id="stop833" />
      <stop
         stop-color="#ffed8c"
         offset="1"
         id="stop835" />
    </linearGradient>
  </defs>
  <metadata
     id="metadata5">
    <rdf:RDF>
      <cc:Work
         rdf:about="">
        <dc:format>image/svg+xml</dc:format>
        <dc:type
           rdf:resource="http://purl.org/dc/dcmitype/StillImage" />
        <dc:title />
      </cc:Work>
    </rdf:RDF>
  </metadata>
  <path
     id="path842"
     d="m 149.44276,8.5831746 c -0.6573,0 -1.3146,0.28872 -1.6709,0.869233 l -3.54757,5.7129784 -1.66475,0.162789 -4.58574,-4.91439 c -0.92145,-0.9982354 -2.8012,-0.6296564 -3.27728,0.651157 l -2.34969,6.281204 -1.61868,0.491439 -5.43655,-3.916154 c -1.10573,-0.798588 -2.87491,-0.06143 -3.1022,1.280813 l -1.07502,6.625211 -1.48354,0.789374 -6.11227,-2.782773 c -1.23781,-0.565155 -2.82577,0.500653 -2.77663,1.861325 l 0.23343,6.72657 -1.29002,1.056594 -6.5515,-1.535746 c -1.32995,-0.313293 -2.67834,1.035092 -2.36505,2.365049 l 1.53575,6.548424 -1.05352,1.290027 -6.726576,-0.236504 c -1.351454,-0.03993 -2.420336,1.535746 -1.855178,2.782773 l 2.779704,6.112271 -0.798594,1.489675 -6.622136,1.075022 c -1.351462,0.221148 -2.079405,1.990328 -1.290026,3.096066 l 3.922298,5.436543 -0.491439,1.627892 -6.281206,2.346621 c -1.277742,0.476081 -1.649394,2.349692 -0.654232,3.286497 l 4.914391,4.576526 -0.165861,1.667821 -5.712978,3.532218 c -1.161024,0.718728 -1.161024,2.635338 0,3.347928 l 5.712978,3.53836 0.162792,1.66782 -4.914391,4.58267 c -0.998239,0.93066 -0.626587,2.80428 0.651155,3.28035 l 6.281206,2.3497 0.491439,1.62175 -3.910014,5.442682 c -0.798587,1.10574 -0.06146,2.87492 1.290026,3.093 l 6.615998,1.07502 0.798594,1.48967 -2.782773,6.10613 c -0.571304,1.24089 0.500647,2.83806 1.855177,2.78278 l 6.720426,-0.23344 1.05966,1.29003 -1.54188,6.54842 c -0.30715,1.32689 1.03816,2.6722 2.36505,2.36506 l 6.54842,-1.54497 1.29003,1.05353 -0.23036,6.72657 c -0.0522,1.3576 1.53574,2.42647 2.77969,1.85517 l 6.11228,-2.78277 1.48353,0.79859 1.07502,6.62214 c 0.22422,1.35146 1.99033,2.07633 3.10221,1.28389 l 5.43655,-3.9223 1.62175,0.49144 2.34968,6.2812 c 0.47916,1.27467 2.35277,1.65246 3.28651,0.65116 l 4.58266,-4.91439 1.66782,0.16893 3.53836,5.71298 c 0.71259,1.15181 2.6292,1.15488 3.34793,0 l 3.53836,-5.71298 1.65861,-0.172 4.58574,4.91438 c 0.92759,1.00131 2.80427,0.62352 3.28035,-0.65115 l 2.35277,-6.27813 1.62174,-0.49759 5.44269,3.9223 c 1.10574,0.79244 2.87185,0.0615 3.08993,-1.28388 l 1.08116,-6.61907 1.4866,-0.79859 6.10306,2.78277 c 1.24395,0.56823 2.83192,-0.49143 2.78278,-1.85825 l -0.23037,-6.72657 1.29003,-1.05352 6.54228,1.53574 c 1.33303,0.31637 2.68141,-1.03202 2.37119,-2.3589 l -1.54496,-6.5515 1.05659,-1.29002 6.72657,0.23343 c 1.35147,0.0553 2.42649,-1.54189 1.85826,-2.78278 l -2.78278,-6.10612 0.79245,-1.49275 6.62214,-1.07502 c 1.35146,-0.215 2.08247,-1.98418 1.28389,-3.09299 l -3.91616,-5.442692 0.49144,-1.62175 6.2812,-2.34969 c 1.27774,-0.47609 1.65247,-2.34969 0.65423,-3.28036 l -4.91439,-4.58267 0.16586,-1.66782 5.71298,-3.54143 c 1.16103,-0.71258 1.16717,-2.6292 0,-3.347928 l -5.71298,-3.532217 -0.15971,-1.667821 4.91438,-4.582669 c 0.99824,-0.933733 0.62352,-2.807344 -0.65422,-3.286497 l -6.28121,-2.346621 -0.49144,-1.618677 3.91616,-5.436544 c 0.79859,-1.105737 0.0706,-2.871846 -1.27467,-3.092993 l -6.62521,-1.075023 -0.79859,-1.489674 2.78584,-6.112272 c 0.5713,-1.240884 -0.49144,-2.831917 -1.85825,-2.779702 l -6.72043,0.233434 -1.06273,-1.290027 1.54803,-6.542281 c 0.30715,-1.329957 -1.04431,-2.681414 -2.37119,-2.36505 l -6.54228,1.535746 -1.29004,-1.056593 0.23344,-6.726571 c 0.0522,-1.3576 -1.54189,-2.420337 -2.78277,-1.855182 l -6.11227,2.782773 -1.48353,-0.798588 -1.07503,-6.622141 c -0.22115,-1.342242 -1.99033,-2.076329 -3.09606,-1.280812 l -5.44576,3.919225 -1.61868,-0.491438 -2.34662,-6.275062 c -0.47608,-1.2808124 -2.35277,-1.6493924 -3.2865,-0.654228 l -4.57652,4.91439 -1.66783,-0.159718 -3.53835,-5.7129784 c -0.35937,-0.583584 -1.0136,-0.872304 -1.67397,-0.872304 z m -0.0983,11.9880394 c 2.19304,0.06143 3.93151,1.849039 3.93151,4.035943 -0.009,2.226832 -1.81832,4.023656 -4.04208,4.023656 -2.22683,0 -4.03287,-1.796824 -4.04516,-4.023656 0,-2.279049 1.88282,-4.109658 4.16187,-4.042086 z m 9.27591,6.652855 c 14.37459,2.690628 26.84486,11.570316 34.08129,24.274012 l -4.77003,10.771728 c -0.82316,1.864396 0.0185,4.045157 1.87361,4.871388 l 9.18377,4.078944 c 0.28872,2.874918 0.32558,5.768267 0.11057,8.646257 -0.71566,9.99157 -5.09867,19.03097 -9.6967,26.046262 -1.36375,1.81832 -2.85649,3.53836 -4.45367,5.1509 l -8.55411,-1.83676 c -1.99647,-0.43 -3.94993,0.83852 -4.37688,2.83499 l -2.02718,9.47249 c -13.21357,5.98941 -28.37446,5.91262 -41.52659,-0.19658 l -2.02719,-9.47248 c -0.43001,-1.99647 -2.38655,-3.26193 -4.37687,-2.83499 l -8.36368,1.79375 c -5.79898,-6.02012 -9.93628,-14.420662 -12.30134,-21.663242 -1.664738,-5.5164 -2.119318,-12.18462 -1.458948,-18.33682 l 8.710748,-3.870082 c 1.86747,-0.829303 2.70292,-3.010063 1.87361,-4.871388 l -4.7301,-8.673897 c 7.04909,-13.287281 21.1411,-23.263492 34.41917,-26.169124 l 6.22899,6.536137 c 1.40674,1.474318 3.738,1.526533 5.21232,0.12286 z m -20.13364,8.170172 c 3.2435,1.833682 1.63711,2.782773 0.58359,3.430858 l -10.4738,5.952555 c -0.58358,3.102209 -4.69938,3.986798 -5.78669,6.321133 -1.70775,4.287805 -2.31283,7.310155 -5.37512,10.618153 -0.78937,-1.035093 -0.89073,-2.558554 -0.79858,-3.919226 l -0.90916,5.780551 -2.08862,2.42648 c -4.08509,7.703305 -4.06052,10.737943 -4.45367,19.073973 l 1.29003,-1.41903 c -1.19788,6.23513 -1.48046,8.35446 -1.5296,15.16704 1.85518,3.249642 3.99294,6.182912 6.3457,8.815182 2.36505,-0.48222 4.56424,-1.03816 6.22899,-1.4221 2.0149,-0.46687 3.60286,-0.16586 5.00654,0.7433 1.37603,0.89074 2.13775,2.41727 2.61998,4.55502 0.48222,2.11934 0.97674,4.65332 1.64325,7.25487 9.52163,4.54581 23.81943,4.63796 32.41039,2.03948 l -2.50326,-3.80866 -2.98549,0.9921 -0.53137,-7.67874 -2.6722,4.33081 1.8859,-11.65324 -4.17724,6.64363 3.57829,-12.755912 -2.36504,1.19788 -0.72795,-6.79414 -6.64057,4.06052 -2.52476,4.5458 -0.49144,-2.13161 -3.50765,3.550642 -2.07633,-3.602862 -1.21938,0.5283 -1.01359,-4.35538 c -6.66514,2.16234 -7.54973,1.63404 -14.11351,0.22422 l -0.4853,2.55856 -4.0298,-1.96576 -1.05353,-3.62437 -0.27643,-0.9368 -0.4085,-1.41289 c 1.4866,-2.12547 3.54143,-4.19565 5.59626,-5.74983 h 2.75819 c 5.19697,4.39223 7.00301,4.97582 13.24735,6.3887 l -0.71258,2.96092 1.64939,-1.86132 2.13776,-0.71873 1.79375,-5.3659 c -1.26545,1.00745 -2.53398,2.20534 -4.23866,2.13776 -6.93236,-0.77709 -8.2316,-1.4436 -13.64357,-5.08332 -1.30231,-4.06973 -0.90609,-3.308 1.4436,-6.82486 l 3.94994,-1.207097 1.92276,-1.864396 -3.91002,-2.506339 -4.48438,1.136453 -0.89073,2.002613 -0.62658,-2.100901 -2.61691,-1.575677 7.50365,-8.007383 c -1.19788,-1.366815 -2.28212,-0.337864 -3.77793,0.24572 l 2.11932,-2.469481 1.15181,-2.908704 0.55288,0.405437 0.27643,1.720036 1.25931,0.820089 0.0522,0.878447 2.56777,-2.346621 2.41727,-4.115801 -2.52477,1.059665 -3.83015,-1.443602 0.37472,-1.099595 c 0.54672,-1.391386 3.32335,-1.412887 4.46595,-4.58881 l 8.10874,-3.787152 c 2.45719,-1.265455 3.2005,1.081166 1.89511,3.440073 l -4.02365,6.557638 6.78799,-6.720428 c 1.85212,-5.448829 0.70645,-9.205265 -5.11403,-10.750226 z m 41.81532,6.00477 c -0.99517,-0.0215 -2.20534,0.153575 -3.65508,0.53444 10.83623,-0.175075 4.91439,12.304402 -0.77709,17.676444 0.8293,2.48791 2.05175,3.409358 4.14651,4.751601 l -0.73715,-3.31107 c 6.35799,-8.557181 8.49267,-19.249049 1.02281,-19.657558 z m -7.56202,5.666906 c -2.30363,2.211475 -4.46596,4.330805 -5.25226,7.279439 h 1.23474 l 1.10574,4.809959 0.84159,-0.970592 2.1869,0.09829 -1.10574,-2.334336 c 1.33303,-5.083321 2.61077,-4.36152 0.98903,-8.876616 z m -26.74657,9.988496 -1.69853,4.091229 -2.33434,3.501503 c 3.2865,-1.904326 5.59012,-1.673964 9.26977,-1.634035 l 1.56646,1.873611 0.043,-2.994706 2.99471,-1.280813 -2.77049,-4.054371 c -1.09345,-1.326885 -6.51156,-0.767873 -7.07364,0.491439 z m -44.89295,0.132074 c 2.18691,0.06143 3.93151,1.855182 3.93151,4.042085 -0.0154,2.223762 -1.82139,4.023657 -4.04823,4.023657 -2.226828,0 -4.032865,-1.799895 -4.04208,-4.023657 0,-2.282119 1.882832,-4.109658 4.1588,-4.042085 z m 48.49274,0.01536 c -0.90302,0.568226 -1.39446,1.744608 -1.22859,2.930205 0.11671,0.774016 0.50372,1.465102 1.07502,1.904326 -1.55725,0.06143 -2.79506,-0.718729 -2.96092,-1.842896 -0.19043,-1.314599 1.10573,-2.641485 2.90563,-2.967063 l 0.20886,-0.03071 z m 47.99208,0.172004 c 2.18691,0.07064 3.92537,1.861325 3.93152,4.048228 -0.0154,2.226833 -1.8214,4.023657 -4.04823,4.023657 -2.23298,0 -4.03901,-1.796824 -4.05437,-4.023657 0,-2.279048 1.8859,-4.109658 4.16495,-4.042085 z m -40.39013,16.586064 -2.24219,7.906033 0.14743,6.08154 2.77048,-5.49797 z m -40.54986,0.377794 1.50503,0.344007 c 2.94864,3.661222 2.99163,2.702922 2.32513,6.978442 -1.77226,0.76787 -2.44185,0.70644 -4.03595,-0.12287 -1.03202,-2.53705 -0.38394,-4.65331 0.20579,-7.199579 z m 2.73978,39.837271 c 2.1869,0.0675 3.92536,1.85825 3.92536,4.04516 -0.0123,2.22376 -1.81832,4.02365 -4.04515,4.02365 -2.22377,0 -4.03288,-1.79989 -4.04209,-4.02365 0,-2.28212 1.88283,-4.1158 4.16188,-4.04516 z m 59.91869,0.19043 c 2.1869,0.0615 3.92536,1.85519 3.92536,4.04516 -0.009,2.22683 -1.81832,4.02365 -4.04208,4.02365 -2.22683,0 -4.03287,-1.79682 -4.04516,-4.02365 0,-2.27905 1.88283,-4.10659 4.16188,-4.04209 z"
     inkscape:connector-curvature="0"
     style="fill:#f2f2f2;fill-opacity:1;stroke-width:0.30714935" />
  <text
     xml:space="preserve"
     style="font-style:normal;font-weight:normal;font-size:5.29166651px;line-height:6.61458302px;font-family:Sans;letter-spacing:0px;word-spacing:0px;fill:#ececec;fill-opacity:1;stroke:none;stroke-width:0.26458332px;stroke-linecap:butt;stroke-linejoin:miter;stroke-opacity:1;"
     x="28.914463"
     y="178.93871"
     id="text854"><tspan
       sodipodi:role="line"
       id="tspan852"
       x="28.914463"
       y="178.93871"
       style="font-size:12.69999981px;fill:#ececec;stroke-width:0.26458332px;">@<tspan
   style="fill:#ececec;"
   id="tspan837">nicalsila</tspan></tspan></text>
  <g
     transform="matrix(1.5613159,0,0,1.5613159,-14.627649,-189.98033)"
     id="layer1"
     inkscape:label="Layer 1"
     style="fill:#ececec">
    <path
       d="m 18.142328,241.50241 c -3.172883,0 -5.746044,2.57281 -5.746044,5.74675 0,2.53859 1.646413,4.69265 3.929944,5.45289 0.287514,0.0526 0.392289,-0.12489 0.392289,-0.27729 0,-0.13652 -0.0049,-0.49777 -0.0078,-0.97719 -1.598436,0.34713 -1.935692,-0.77047 -1.935692,-0.77047 -0.261408,-0.66393 -0.638175,-0.84067 -0.638175,-0.84067 -0.521758,-0.3563 0.03951,-0.34925 0.03951,-0.34925 0.576792,0.0406 0.880181,0.59232 0.880181,0.59232 0.512586,0.87806 1.345141,0.62441 1.672519,0.4773 0.05221,-0.37112 0.200731,-0.62441 0.364772,-0.76799 -1.275997,-0.14535 -2.617611,-0.63818 -2.617611,-2.84022 0,-0.62759 0.224014,-1.14017 0.591609,-1.54199 -0.05927,-0.14534 -0.25647,-0.72954 0.05644,-1.52082 0,0 0.482247,-0.15452 1.580092,0.58878 0.458258,-0.12735 0.95003,-0.19085 1.438627,-0.19332 0.488245,0.002 0.979664,0.066 1.438628,0.19332 1.097139,-0.7433 1.578681,-0.58878 1.578681,-0.58878 0.313619,0.79128 0.116416,1.37548 0.0575,1.52082 0.3683,0.40182 0.59055,0.9144 0.59055,1.54199 0,2.20769 -1.34373,2.69346 -2.623608,2.83563 0.206022,0.17745 0.38982,0.52811 0.38982,1.06433 0,0.768 -0.0071,1.38783 -0.0071,1.57621 0,0.15381 0.103716,0.33267 0.395111,0.27658 2.28177,-0.76165 3.926773,-2.91394 3.926773,-5.45218 0,-3.17394 -2.573162,-5.74675 -5.747103,-5.74675"
       style="fill:#ececec;fill-opacity:1;fill-rule:evenodd;stroke:none;stroke-width:0.03527778"
       id="path16"
       inkscape:connector-curvature="0" />
  </g>
  <g
     id="g1120"
     transform="matrix(0.07233303,0,0,0.07233303,-36.151705,124.98501)"
     style="fill:#ececec">
    <path
       style="fill:#ececec"
       id="path1118"
       d="m 633.9,812.04 c 112.46,0 173.96,-93.168 173.96,-173.96 0,-2.6463 -0.0539,-5.2806 -0.1726,-7.903 11.938,-8.6302 22.314,-19.4 30.498,-31.66 -10.955,4.8694 -22.744,8.1474 -35.111,9.6255 12.623,-7.5693 22.314,-19.543 26.886,-33.817 -11.813,7.0031 -24.895,12.093 -38.824,14.841 -11.157,-11.884 -27.041,-19.317 -44.629,-19.317 -33.764,0 -61.144,27.381 -61.144,61.132 0,4.7978 0.5364,9.4646 1.5854,13.941 -50.815,-2.5569 -95.874,-26.886 -126.03,-63.88 -5.2508,9.0354 -8.2785,19.531 -8.2785,30.73 0,21.212 10.794,39.938 27.208,50.893 -10.031,-0.30992 -19.454,-3.0635 -27.69,-7.6468 -0.009,0.25652 -0.009,0.50661 -0.009,0.78077 0,29.61 21.075,54.332 49.051,59.934 -5.1376,1.4006 -10.543,2.1516 -16.122,2.1516 -3.9336,0 -7.766,-0.38716 -11.491,-1.1026 7.7838,24.293 30.355,41.971 57.115,42.465 -20.926,16.402 -47.287,26.171 -75.937,26.171 -4.929,0 -9.7983,-0.28036 -14.584,-0.84634 27.059,17.344 59.189,27.464 93.722,27.464"
       inkscape:connector-curvature="0" />
  </g>
  <text
     id="text874"
     y="199.73566"
     x="30.501965"
     style="font-style:normal;font-weight:normal;font-size:5.29166651px;line-height:6.61458302px;font-family:Sans;letter-spacing:0px;word-spacing:0px;fill:#ececec;fill-opacity:1;stroke:none;stroke-width:0.26458332px;stroke-linecap:butt;stroke-linejoin:miter;stroke-opacity:1;"
     xml:space="preserve"><tspan
       style="font-size:12.69999981px;fill:#ececec;stroke-width:0.26458332px;"
       y="199.73566"
       x="30.501965"
       id="tspan872"
       sodipodi:role="line">github.com/nical/<tspan
   style="fill:#ececec;"
   id="tspan876">lyon</tspan></tspan></text>
</svg>
