<?xml version="1.0" encoding="UTF-8" standalone="no"?>
<svg
   xmlns:dc="http://purl.org/dc/elements/1.1/"
   xmlns:cc="http://creativecommons.org/ns#"
   xmlns:rdf="http://www.w3.org/1999/02/22-rdf-syntax-ns#"
   xmlns:svg="http://www.w3.org/2000/svg"
   xmlns="http://www.w3.org/2000/svg"
   xmlns:xlink="http://www.w3.org/1999/xlink"
   xmlns:sodipodi="http://sodipodi.sourceforge.net/DTD/sodipodi-0.dtd"
   xmlns:inkscape="http://www.inkscape.org/namespaces/inkscape"
   id="svg8"
   version="1.1"
   viewBox="0 0 297 210"
   height="210mm"
   width="297mm"
   sodipodi:docname="logo.svg"
   inkscape:version="0.92.3 (2405546, 2018-03-11)">
  <sodipodi:namedview
     pagecolor="#ffffff"
     bordercolor="#666666"
     borderopacity="1"
     objecttolerance="10"
     gridtolerance="10"
     guidetolerance="10"
     inkscape:pageopacity="0"
     inkscape:pageshadow="2"
     inkscape:window-width="2560"
     inkscape:window-height="1311"
     id="namedview7"
     showgrid="false"
     inkscape:zoom="0.84100811"
     inkscape:cx="350.36718"
     inkscape:cy="207.914"
     inkscape:window-x="0"
     inkscape:window-y="55"
     inkscape:window-maximized="1"
     inkscape:current-layer="svg8" />
  <defs
     id="defs2">
    <radialGradient
       xlink:href="#a"
       fx="2676.34"
       fy="1896.41"
       gradientTransform="matrix(1.80048,0.4669,-0.36462,1.4061,-3967.03,-3019.95)"
       gradientUnits="userSpaceOnUse"
       r="88.31"
       cy="1896.41"
       cx="2676.34"
       id="f" />
    <linearGradient
       id="a">
      <stop
         id="stop821"
         offset="0"
         stop-color="#f95" />
      <stop
         id="stop823"
         offset="1"
         stop-color="#f95"
         stop-opacity="0" />
    </linearGradient>
    <linearGradient
       xlink:href="#b"
       gradientUnits="userSpaceOnUse"
       gradientTransform="translate(-553.986,-998.09)"
       y2="1604.77"
       y1="1985.2"
       x2="943.97"
       x1="723.73"
       id="e" />
    <linearGradient
       id="b">
      <stop
         id="stop827"
         offset="0"
         stop-color="#660080" />
      <stop
         id="stop829"
         offset="1"
         stop-color="#b03c15" />
    </linearGradient>
    <linearGradient
       xlink:href="#c"
       gradientUnits="userSpaceOnUse"
       gradientTransform="translate(-1044.01,-999.505)"
       y2="1659.31"
       y1="1924.31"
       x2="1249.59"
       x1="1353.9"
       id="d" />
    <linearGradient
       id="c">
      <stop
         id="stop833"
         offset="0"
         stop-color="#efa747" />
      <stop
         id="stop835"
         offset="1"
         stop-color="#ffed8c" />
    </linearGradient>
  </defs>
  <metadata
     id="metadata5">
    <rdf:RDF>
      <cc:Work
         rdf:about="">
        <dc:format>image/svg+xml</dc:format>
        <dc:type
           rdf:resource="http://purl.org/dc/dcmitype/StillImage" />
        <dc:title />
      </cc:Work>
    </rdf:RDF>
  </metadata>
  <g
     id="g867"
     transform="matrix(0.42931235,0,0,0.42931235,42.389943,-0.76628969)">
    <path
       id="path840"
       transform="translate(0,-552.362)"
       d="m 396.08,839.18 c -23.82,-12.92 -26.44,-31.06 -32.24,-55.54 l 11.7,4 c -9.38,-16.8 -12.9,-17.16 -18.16,-38.75 6.4,2.8 7.96,8.03 10.96,14 -0.6,-12.1 -3.14,-24.1 -7.86,-34.9 l -4.24,-3.35 c 0,0 4.06,-23.12 4.9,-27.28 l -5.28,-8.22 -9.93,-1.57 c -19.68,-19.9 -57.47,-38.33 -97.2,-38.06 l -14.64,-0.75 c -9.6,1.23 -19.04,3.12 -29.25,1.85 l 5.95,5.4 c -21.15,6.15 -31.4,11.1 -46.88,24.8 7.27,-4.15 12.64,-4.57 17.5,-0.9 -20.5,8.76 -29.8,20.17 -39.3,33.6 7.72,-6.64 15.17,-10.66 22.17,-7.94 -20.47,14.87 -19.87,29.72 -23.1,53.45 l -20.3,98.07 15.7,25.7 46.12,10.02 112.1,52.98 14.85,-5.7 6.04,-27.7 c 2.5,-11.52 13.2,-16.37 26.1,-13 l 19.27,4.23 c 17.3,-18.36 26.85,-40 35,-64.47 z"
       inkscape:connector-curvature="0"
       style="fill:#efc347;fill-opacity:1" />
    <path
       id="path842"
       transform="translate(0,-552.362)"
       d="m 250.53,580.36 c -2.14,0 -4.28,0.94 -5.44,2.83 l -11.55,18.6 -5.42,0.53 -14.93,-16 c -3,-3.25 -9.12,-2.05 -10.67,2.12 l -7.65,20.45 -5.27,1.6 -17.7,-12.75 c -3.6,-2.6 -9.36,-0.2 -10.1,4.17 l -3.5,21.57 -4.83,2.57 -19.9,-9.06 c -4.03,-1.84 -9.2,1.63 -9.04,6.06 l 0.76,21.9 -4.2,3.44 -21.33,-5 c -4.33,-1.02 -8.72,3.37 -7.7,7.7 l 5,21.32 -3.43,4.2 -21.9,-0.77 c -4.4,-0.13 -7.88,5 -6.04,9.06 l 9.05,19.9 -2.6,4.85 -21.56,3.5 c -4.4,0.72 -6.77,6.48 -4.2,10.08 l 12.77,17.7 -1.6,5.3 -20.45,7.64 c -4.16,1.55 -5.37,7.65 -2.13,10.7 l 16,14.9 -0.54,5.43 -18.6,11.5 c -3.78,2.34 -3.78,8.58 0,10.9 l 18.6,11.52 0.53,5.43 -16,14.92 c -3.25,3.03 -2.04,9.13 2.12,10.68 l 20.45,7.65 1.6,5.28 -12.73,17.72 c -2.6,3.6 -0.2,9.36 4.2,10.07 l 21.54,3.5 2.6,4.85 -9.06,19.88 c -1.86,4.04 1.63,9.24 6.04,9.06 l 21.88,-0.76 3.45,4.2 -5.02,21.32 c -1,4.32 3.38,8.7 7.7,7.7 l 21.32,-5.03 4.2,3.43 -0.75,21.9 c -0.17,4.42 5,7.9 9.05,6.04 l 19.9,-9.06 4.83,2.6 3.5,21.56 c 0.73,4.4 6.48,6.76 10.1,4.18 l 17.7,-12.77 5.28,1.6 7.65,20.45 c 1.56,4.15 7.66,5.38 10.7,2.12 l 14.92,-16 5.43,0.55 11.52,18.6 c 2.32,3.75 8.56,3.76 10.9,0 l 11.52,-18.6 5.4,-0.56 14.93,16 c 3.02,3.26 9.13,2.03 10.68,-2.12 l 7.66,-20.44 5.28,-1.62 17.72,12.77 c 3.6,2.58 9.35,0.2 10.06,-4.18 l 3.52,-21.55 4.84,-2.6 19.87,9.06 c 4.05,1.85 9.22,-1.6 9.06,-6.05 l -0.75,-21.9 4.2,-3.43 21.3,5 c 4.34,1.03 8.73,-3.36 7.72,-7.68 l -5.03,-21.33 3.44,-4.2 21.9,0.76 c 4.4,0.18 7.9,-5.02 6.05,-9.06 l -9.06,-19.88 2.58,-4.86 21.56,-3.5 c 4.4,-0.7 6.78,-6.46 4.18,-10.07 l -12.75,-17.72 1.6,-5.28 20.45,-7.65 c 4.16,-1.55 5.38,-7.65 2.13,-10.68 l -16,-14.92 0.54,-5.43 18.6,-11.53 c 3.78,-2.32 3.8,-8.56 0,-10.9 l -18.6,-11.5 -0.52,-5.43 16,-14.92 c 3.25,-3.04 2.03,-9.14 -2.13,-10.7 l -20.45,-7.64 -1.6,-5.27 12.75,-17.7 c 2.6,-3.6 0.23,-9.35 -4.15,-10.07 l -21.57,-3.5 -2.6,-4.85 9.07,-19.9 c 1.86,-4.04 -1.6,-9.22 -6.05,-9.05 l -21.88,0.76 -3.46,-4.2 5.04,-21.3 c 1,-4.33 -3.4,-8.73 -7.72,-7.7 l -21.3,5 -4.2,-3.44 0.76,-21.9 c 0.17,-4.42 -5.02,-7.88 -9.06,-6.04 l -19.9,9.06 -4.83,-2.6 -3.5,-21.56 c -0.72,-4.37 -6.48,-6.76 -10.08,-4.17 l -17.73,12.76 -5.27,-1.6 -7.64,-20.43 c -1.55,-4.17 -7.66,-5.37 -10.7,-2.13 l -14.9,16 -5.43,-0.52 -11.52,-18.6 c -1.17,-1.9 -3.3,-2.84 -5.45,-2.84 z m -0.32,39.03 c 7.14,0.2 12.8,6.02 12.8,13.14 -0.03,7.25 -5.92,13.1 -13.16,13.1 -7.25,0 -13.13,-5.85 -13.17,-13.1 0,-7.42 6.13,-13.38 13.55,-13.16 z m 30.2,21.66 c 46.8,8.76 87.4,37.67 110.96,79.03 l -15.53,35.07 c -2.68,6.07 0.06,13.17 6.1,15.86 l 29.9,13.28 c 0.94,9.36 1.06,18.78 0.36,28.15 -2.33,32.53 -16.6,61.96 -31.57,84.8 -4.44,5.92 -9.3,11.52 -14.5,16.77 l -27.85,-5.98 c -6.5,-1.4 -12.86,2.73 -14.25,9.23 l -6.6,30.84 c -43.02,19.5 -92.38,19.25 -135.2,-0.64 l -6.6,-30.84 c -1.4,-6.5 -7.77,-10.62 -14.25,-9.23 l -27.23,5.84 C 115.27,893.63 101.8,866.28 94.1,842.7 88.68,824.74 87.2,803.03 89.35,783 l 28.36,-12.6 c 6.08,-2.7 8.8,-9.8 6.1,-15.86 l -15.4,-28.24 c 22.95,-43.26 68.83,-75.74 112.06,-85.2 l 20.28,21.28 c 4.58,4.8 12.17,4.97 16.97,0.4 z m -65.55,26.6 c 10.56,5.97 5.33,9.06 1.9,11.17 l -34.1,19.38 c -1.9,10.1 -15.3,12.98 -18.84,20.58 -5.56,13.96 -7.53,23.8 -17.5,34.57 -2.57,-3.37 -2.9,-8.33 -2.6,-12.76 l -2.96,18.82 -6.8,7.9 c -13.3,25.08 -13.22,34.96 -14.5,62.1 l 4.2,-4.62 c -3.9,20.3 -4.82,27.2 -4.98,49.38 6.04,10.58 13,20.13 20.66,28.7 7.7,-1.57 14.86,-3.38 20.28,-4.63 6.56,-1.52 11.73,-0.54 16.3,2.42 4.48,2.9 6.96,7.87 8.53,14.83 1.57,6.9 3.18,15.15 5.35,23.62 31,14.8 77.55,15.1 105.52,6.64 l -8.15,-12.4 -9.72,3.23 -1.73,-25 -8.7,14.1 6.14,-37.94 -13.6,21.63 11.65,-41.53 -7.7,3.9 -2.37,-22.12 -21.62,13.22 -8.22,14.8 -1.6,-6.94 -11.42,11.56 -6.76,-11.73 -3.97,1.72 -3.3,-14.18 c -21.7,7.04 -24.58,5.32 -45.95,0.73 l -1.58,8.33 -13.12,-6.4 -3.43,-11.8 -0.9,-3.05 -1.33,-4.6 c 4.84,-6.92 11.53,-13.66 18.22,-18.72 h 8.98 c 16.92,14.3 22.8,16.2 43.13,20.8 l -2.32,9.64 5.37,-6.06 6.96,-2.34 5.84,-17.47 c -4.12,3.28 -8.25,7.18 -13.8,6.96 -22.57,-2.53 -26.8,-4.7 -44.42,-16.55 -4.24,-13.25 -2.95,-10.77 4.7,-22.22 l 12.86,-3.93 6.26,-6.07 -12.73,-8.16 -14.6,3.7 -2.9,6.52 -2.04,-6.84 -8.52,-5.13 24.43,-26.07 c -3.9,-4.45 -7.43,-1.1 -12.3,0.8 l 6.9,-8.04 3.75,-9.47 1.8,1.32 0.9,5.6 4.1,2.67 0.17,2.86 8.36,-7.64 7.87,-13.4 -8.22,3.45 -12.47,-4.7 1.22,-3.58 c 1.78,-4.53 10.82,-4.6 14.54,-14.94 l 26.4,-12.33 c 8,-4.12 10.42,3.52 6.17,11.2 l -13.1,21.35 22.1,-21.88 c 6.03,-17.74 2.3,-29.97 -16.65,-35 z M 351,687.2 c -3.24,-0.07 -7.18,0.5 -11.9,1.74 35.28,-0.57 16,40.06 -2.53,57.55 2.7,8.1 6.68,11.1 13.5,15.47 l -2.4,-10.78 c 20.7,-27.86 27.65,-62.67 3.33,-64 z m -24.62,18.45 c -7.5,7.2 -14.54,14.1 -17.1,23.7 h 4.02 l 3.6,15.66 2.74,-3.16 7.12,0.32 -3.6,-7.6 c 4.34,-16.55 8.5,-14.2 3.22,-28.9 z m -87.08,32.52 -5.53,13.32 -7.6,11.4 c 10.7,-6.2 18.2,-5.45 30.18,-5.32 l 5.1,6.1 0.14,-9.75 9.75,-4.17 -9.02,-13.2 c -3.56,-4.32 -21.2,-2.5 -23.03,1.6 z M 93.14,738.6 c 7.12,0.2 12.8,6.04 12.8,13.16 -0.05,7.24 -5.93,13.1 -13.18,13.1 -7.25,0 -13.13,-5.86 -13.16,-13.1 0,-7.43 6.13,-13.38 13.54,-13.16 z m 157.88,0.05 c -2.94,1.85 -4.54,5.68 -4,9.54 0.38,2.52 1.64,4.77 3.5,6.2 -5.07,0.2 -9.1,-2.34 -9.64,-6 -0.62,-4.28 3.6,-8.6 9.46,-9.66 l 0.68,-0.1 z m 156.25,0.56 c 7.12,0.23 12.78,6.06 12.8,13.18 -0.05,7.25 -5.93,13.1 -13.18,13.1 -7.27,0 -13.15,-5.85 -13.2,-13.1 0,-7.42 6.14,-13.38 13.56,-13.16 z m -131.5,54 -7.3,25.74 0.48,19.8 9.02,-17.9 z m -132.02,1.23 4.9,1.12 c 9.6,11.92 9.74,8.8 7.57,22.72 -5.77,2.5 -7.95,2.3 -13.14,-0.4 -3.36,-8.26 -1.25,-15.15 0.67,-23.44 z m 8.92,129.7 c 7.12,0.22 12.78,6.05 12.78,13.17 -0.04,7.24 -5.92,13.1 -13.17,13.1 -7.24,0 -13.13,-5.86 -13.16,-13.1 0,-7.43 6.13,-13.4 13.55,-13.17 z m 195.08,0.62 c 7.12,0.2 12.78,6.04 12.78,13.17 -0.03,7.25 -5.92,13.1 -13.16,13.1 -7.25,0 -13.13,-5.85 -13.17,-13.1 0,-7.42 6.13,-13.37 13.55,-13.16 z"
       inkscape:connector-curvature="0"
       style="fill:#29000a;fill-opacity:1" />
  </g>
</svg>
