<?xml version="1.0" encoding="UTF-8" standalone="no"?>
<svg
   xmlns:dc="http://purl.org/dc/elements/1.1/"
   xmlns:cc="http://creativecommons.org/ns#"
   xmlns:rdf="http://www.w3.org/1999/02/22-rdf-syntax-ns#"
   xmlns:svg="http://www.w3.org/2000/svg"
   xmlns="http://www.w3.org/2000/svg"
   xmlns:sodipodi="http://sodipodi.sourceforge.net/DTD/sodipodi-0.dtd"
   xmlns:inkscape="http://www.inkscape.org/namespaces/inkscape"
   id="svg8"
   version="1.1"
   viewBox="0 0 297 210"
   height="210mm"
   width="297mm"
   sodipodi:docname="setup (copy).svg"
   inkscape:version="0.92.3 (2405546, 2018-03-11)">
  <sodipodi:namedview
     pagecolor="#ffffff"
     bordercolor="#666666"
     borderopacity="1"
     objecttolerance="10"
     gridtolerance="10"
     guidetolerance="10"
     inkscape:pageopacity="0"
     inkscape:pageshadow="2"
     inkscape:window-width="2560"
     inkscape:window-height="1311"
     id="namedview7"
     showgrid="false"
     inkscape:zoom="1.1893651"
     inkscape:cx="908.57339"
     inkscape:cy="223.85136"
     inkscape:window-x="0"
     inkscape:window-y="55"
     inkscape:window-maximized="1"
     inkscape:current-layer="svg8" />
  <defs
     id="defs2" />
  <metadata
     id="metadata5">
    <rdf:RDF>
      <cc:Work
         rdf:about="">
        <dc:format>image/svg+xml</dc:format>
        <dc:type
           rdf:resource="http://purl.org/dc/dcmitype/StillImage" />
        <dc:title />
      </cc:Work>
    </rdf:RDF>
  </metadata>
  <rect
     style="color:#000000;overflow:visible;opacity:1;fill:#e6e6e6;fill-opacity:1;stroke:none;stroke-width:2.64583325;stroke-linecap:square;stroke-linejoin:bevel;stroke-miterlimit:4;stroke-dasharray:none;stroke-dashoffset:0;stroke-opacity:1"
     id="rect819"
     width="180.19067"
     height="116.79026"
     x="34.757339"
     y="17.658403"
     ry="3.7817845" />
  <rect
     style="color:#000000;overflow:visible;opacity:1;fill:#e6e6e6;fill-opacity:1;stroke:none;stroke-width:2.64583325;stroke-linecap:square;stroke-linejoin:bevel;stroke-miterlimit:4;stroke-dasharray:none;stroke-dashoffset:0;stroke-opacity:1"
     id="rect821"
     width="241.58897"
     height="12.902542"
     x="5.6153936"
     y="136.61925"
     ry="6.4512711" />
  <g
     aria-label="Lots of pixels..."
     transform="rotate(-9.4189105)"
     style="font-style:normal;font-weight:normal;font-size:5.29166651px;line-height:6.61458302px;font-family:Sans;letter-spacing:0px;word-spacing:0px;fill:#d4aa00;fill-opacity:1;stroke:none;stroke-width:0.26458332px;stroke-linecap:butt;stroke-linejoin:miter;stroke-opacity:1"
     id="text825">
    <path
       d="m 59.507947,196.69199 h 1.118967 l -1.411111,7.3036 h 4.007335 l -0.181901,0.92604 h -5.126302 z"
       style="font-style:italic;font-size:11.28888893px;fill:#d4aa00"
       id="path839" />
    <path
       d="m 66.76194,205.08148 q -1.085894,0 -1.719791,-0.66697 -0.628386,-0.67248 -0.628386,-1.83003 0,-0.67248 0.214974,-1.36702 0.220486,-0.70004 0.567752,-1.17408 0.545703,-0.73863 1.218186,-1.09141 0.672482,-0.35278 1.521354,-0.35278 1.052821,0 1.697743,0.65595 0.650434,0.65594 0.650434,1.71428 0,0.73311 -0.214974,1.46072 -0.214974,0.7276 -0.56224,1.20716 -0.540191,0.73863 -1.212673,1.09141 -0.672483,0.35277 -1.532379,0.35277 z m -1.295356,-2.53007 q 0,0.83784 0.347266,1.25677 0.352778,0.41341 1.063845,0.41341 1.019749,0 1.686719,-0.88746 0.672483,-0.89297 0.672483,-2.25998 0,-0.79926 -0.35829,-1.20716 -0.35829,-0.4079 -1.052821,-0.4079 -0.573264,0 -1.019748,0.27009 -0.446485,0.26459 -0.799263,0.81029 -0.259071,0.4079 -0.402387,0.93155 -0.137804,0.52366 -0.137804,1.08039 z"
       style="font-style:italic;font-size:11.28888893px;fill:#d4aa00"
       id="path841" />
    <path
       d="m 75.57036,198.74802 -0.15434,0.78824 h -2.02296 l -0.655946,3.35139 q -0.03307,0.18741 -0.04961,0.31419 -0.01654,0.12678 -0.01654,0.19844 0,0.35277 0.209462,0.51263 0.214974,0.15985 0.683507,0.15985 h 1.02526 l -0.170877,0.84887 h -0.970139 q -0.903993,0 -1.350477,-0.35278 -0.440972,-0.35277 -0.440972,-1.06935 0,-0.12678 0.01654,-0.27561 0.01654,-0.15434 0.04961,-0.33624 l 0.655946,-3.35139 h -0.859896 l 0.159852,-0.78824 h 0.84336 l 0.341753,-1.75286 h 1.014236 l -0.336241,1.75286 z"
       style="font-style:italic;font-size:11.28888893px;fill:#d4aa00"
       id="path843" />
    <path
       d="m 80.873052,198.92992 -0.192926,0.95912 q -0.402387,-0.22049 -0.848871,-0.33073 -0.446485,-0.11025 -0.92053,-0.11025 -0.799262,0 -1.262283,0.27561 -0.457508,0.2701 -0.457508,0.73863 0,0.5457 1.069357,0.83785 0.08268,0.0221 0.121268,0.0331 l 0.325217,0.0992 q 1.014236,0.28112 1.350477,0.5898 0.341754,0.30868 0.341754,0.84336 0,0.98116 -0.782726,1.59852 -0.777214,0.61736 -2.039497,0.61736 -0.490581,0 -1.030772,-0.0937 -0.540191,-0.0937 -1.190625,-0.29215 l 0.198437,-1.04731 q 0.556728,0.28664 1.096919,0.43546 0.540191,0.14883 1.036284,0.14883 0.744141,0 1.207162,-0.3197 0.468533,-0.31971 0.468533,-0.81029 0,-0.52917 -1.223698,-0.85438 l -0.104731,-0.0276 -0.347266,-0.0882 q -0.771701,-0.20395 -1.129991,-0.53468 -0.35829,-0.33624 -0.35829,-0.85438 0,-0.98668 0.738629,-1.56545 0.74414,-0.57878 2.017447,-0.57878 0.501606,0 0.975652,0.0827 0.479557,0.0827 0.942578,0.24805 z"
       style="font-style:italic;font-size:11.28888893px;fill:#d4aa00"
       id="path845" />
    <path
       d="m 88.165629,199.45909 q -0.815799,0 -1.289844,0.63941 -0.474045,0.63389 -0.474045,1.74184 0,1.10794 0.468533,1.74735 0.474045,0.6339 1.295356,0.6339 0.810286,0 1.284331,-0.63941 0.474045,-0.63941 0.474045,-1.74184 0,-1.09692 -0.474045,-1.73633 -0.474045,-0.64492 -1.284331,-0.64492 z m 0,-0.8599 q 1.322916,0 2.078081,0.8599 0.755165,0.85989 0.755165,2.38125 0,1.51584 -0.755165,2.38125 -0.755165,0.85989 -2.078081,0.85989 -1.328429,0 -2.083594,-0.85989 -0.749653,-0.86541 -0.749653,-2.38125 0,-1.52136 0.749653,-2.38125 0.755165,-0.8599 2.083594,-0.8599 z"
       style="font-size:11.28888893px;fill:#d4aa00;stroke-width:0.26458332px"
       id="path847" />
    <path
       d="m 95.799962,196.34472 v 0.84336 h -0.970139 q -0.545703,0 -0.760677,0.22049 -0.209462,0.22048 -0.209462,0.79375 v 0.5457 h 1.670182 v 0.78824 h -1.670182 v 5.38537 h -1.019749 v -5.38537 h -0.970138 v -0.78824 h 0.970138 v -0.42995 q 0,-1.03077 0.479558,-1.4993 0.479557,-0.47405 1.521354,-0.47405 z"
       style="font-size:11.28888893px;fill:#d4aa00;stroke-width:0.26458332px"
       id="path849" />
    <path
       d="m 101.21841,203.99559 v 3.27422 h -1.01975 v -8.52179 h 1.01975 v 0.93707 q 0.3197,-0.55122 0.80477,-0.8158 0.49058,-0.2701 1.16858,-0.2701 1.12448,0 1.82452,0.89297 0.70555,0.89297 0.70555,2.34818 0,1.45521 -0.70555,2.34817 -0.70004,0.89297 -1.82452,0.89297 -0.678,0 -1.16858,-0.26458 -0.48507,-0.2701 -0.80477,-0.82131 z m 3.4506,-2.15525 q 0,-1.11897 -0.46302,-1.75287 -0.45751,-0.63941 -1.26228,-0.63941 -0.80477,0 -1.2678,0.63941 -0.4575,0.6339 -0.4575,1.75287 0,1.11896 0.4575,1.75837 0.46303,0.6339 1.2678,0.6339 0.80477,0 1.26228,-0.6339 0.46302,-0.63941 0.46302,-1.75837 z"
       style="font-size:11.28888893px;fill:#d4aa00;stroke-width:0.26458332px"
       id="path851" />
    <path
       d="m 107.40304,198.74802 h 1.01424 v 6.17361 h -1.01424 z m 0,-2.4033 h 1.01424 v 1.28433 h -1.01424 z"
       style="font-size:11.28888893px;fill:#d4aa00;stroke-width:0.26458332px"
       id="path853" />
    <path
       d="m 115.66576,198.74802 -2.23242,3.00412 2.34818,3.16949 h -1.19614 l -1.79696,-2.42535 -1.79697,2.42535 h -1.19613 l 2.39778,-3.23012 -2.19383,-2.94349 h 1.19613 l 1.63711,2.19935 1.63711,-2.19935 z"
       style="font-size:11.28888893px;fill:#d4aa00;stroke-width:0.26458332px"
       id="path855" />
    <path
       d="m 122.14254,201.58127 v 0.49609 h -4.66328 q 0.0661,1.04731 0.62838,1.59852 0.56775,0.54571 1.57648,0.54571 0.58429,0 1.12999,-0.14332 0.55121,-0.14331 1.09141,-0.42995 v 0.95912 q -0.54571,0.23151 -1.11897,0.35278 -0.57327,0.12126 -1.16307,0.12126 -1.47725,0 -2.34266,-0.85989 -0.8599,-0.8599 -0.8599,-2.32613 0,-1.51584 0.8158,-2.4033 0.82131,-0.89297 2.21038,-0.89297 1.24574,0 1.96783,0.80478 0.72761,0.79926 0.72761,2.1773 z m -1.01424,-0.29766 q -0.011,-0.83234 -0.46853,-1.32843 -0.452,-0.49609 -1.20165,-0.49609 -0.84887,0 -1.3615,0.47955 -0.50712,0.47956 -0.58429,1.35048 z"
       style="font-size:11.28888893px;fill:#d4aa00;stroke-width:0.26458332px"
       id="path857" />
    <path
       d="m 123.80721,196.34472 h 1.01424 v 8.57691 h -1.01424 z"
       style="font-size:11.28888893px;fill:#d4aa00;stroke-width:0.26458332px"
       id="path859" />
    <path
       d="m 130.87379,198.92992 v 0.95912 q -0.42995,-0.22049 -0.89297,-0.33073 -0.46302,-0.11025 -0.95912,-0.11025 -0.75516,0 -1.1355,0.23151 -0.37483,0.23151 -0.37483,0.69453 0,0.35278 0.2701,0.55673 0.27009,0.19844 1.08589,0.38034 l 0.34727,0.0772 q 1.08038,0.23151 1.53238,0.65595 0.45751,0.41892 0.45751,1.17409 0,0.85989 -0.68351,1.3615 -0.678,0.5016 -1.86862,0.5016 -0.49609,0 -1.03629,-0.0992 -0.53467,-0.0937 -1.12999,-0.28663 v -1.04731 q 0.56224,0.29215 1.10795,0.44098 0.5457,0.14331 1.08038,0.14331 0.71658,0 1.10243,-0.24253 0.38585,-0.24805 0.38585,-0.69453 0,-0.41342 -0.28112,-0.6339 -0.27561,-0.22049 -1.21819,-0.42444 l -0.35277,-0.0827 q -0.94258,-0.19844 -1.36151,-0.60634 -0.41892,-0.41341 -0.41892,-1.12999 0,-0.87092 0.61736,-1.34496 0.61736,-0.47405 1.75287,-0.47405 0.56224,0 1.05833,0.0827 0.49609,0.0827 0.91502,0.24805 z"
       style="font-size:11.28888893px;fill:#d4aa00;stroke-width:0.26458332px"
       id="path861" />
    <path
       d="m 132.9684,203.52154 h 1.16307 v 1.40009 h -1.16307 z"
       style="font-size:11.28888893px;fill:#d4aa00;stroke-width:0.26458332px"
       id="path863" />
    <path
       d="m 136.56233,203.52154 h 1.16306 v 1.40009 h -1.16306 z"
       style="font-size:11.28888893px;fill:#d4aa00;stroke-width:0.26458332px"
       id="path865" />
    <path
       d="m 140.15625,203.52154 h 1.16307 v 1.40009 h -1.16307 z"
       style="font-size:11.28888893px;fill:#d4aa00;stroke-width:0.26458332px"
       id="path867" />
  </g>
  <path
     style="fill:none;fill-rule:evenodd;stroke:#d4aa00;stroke-width:1.32291667;stroke-linecap:round;stroke-linejoin:round;stroke-opacity:1;stroke-miterlimit:4;stroke-dasharray:none"
     d="M 107.22457,174.85169 C 40.709746,148.82415 98.103813,105 98.103813,105 l -4.087659,-1.69624 9.676906,-2.308 -3.893008,8.42558 -0.556144,-3.1144"
     id="path829"
     inkscape:connector-curvature="0" />
  <rect
     ry="3.7817845"
     y="45.688068"
     x="240.3082"
     height="77.860184"
     width="49.83049"
     id="rect831"
     style="color:#000000;overflow:visible;opacity:1;fill:#e6e6e6;fill-opacity:1;stroke:none;stroke-width:2.64583325;stroke-linecap:square;stroke-linejoin:bevel;stroke-miterlimit:4;stroke-dasharray:none;stroke-dashoffset:0;stroke-opacity:1" />
  <circle
     style="color:#000000;overflow:visible;opacity:1;fill:#808080;fill-opacity:1;stroke:none;stroke-width:1.32291663;stroke-linecap:round;stroke-linejoin:round;stroke-miterlimit:4;stroke-dasharray:none;stroke-dashoffset:0;stroke-opacity:1"
     id="path833"
     cx="265.36728"
     cy="118.29334"
     r="2.8314233" />
  <rect
     style="color:#000000;overflow:visible;opacity:1;fill:#808080;fill-opacity:1;stroke:none;stroke-width:1.32291663;stroke-linecap:round;stroke-linejoin:round;stroke-miterlimit:4;stroke-dasharray:none;stroke-dashoffset:0;stroke-opacity:1"
     id="rect835"
     width="46.403881"
     height="63.235123"
     x="242.244"
     y="50.339184"
     ry="2.51875" />
  <path
     inkscape:connector-curvature="0"
     id="path837"
     d="m 152.9665,168.2813 c 0.43821,-29.38682 60.78222,-42.78558 96.61846,-72.719376 l -4.08766,-1.69624 9.67691,-2.308002 -3.89301,8.425582 -0.55614,-3.1144"
     style="fill:none;fill-rule:evenodd;stroke:#d4aa00;stroke-width:1.32291663;stroke-linecap:round;stroke-linejoin:round;stroke-miterlimit:4;stroke-dasharray:none;stroke-opacity:1"
     sodipodi:nodetypes="cccccc" />
  <path
     style="fill:none;fill-rule:evenodd;stroke:#d4aa00;stroke-width:0.79375;stroke-linecap:round;stroke-linejoin:bevel;stroke-opacity:1;stroke-miterlimit:4;stroke-dasharray:none"
     d="m 91.863957,195.13502 20.685123,-3.93253 -17.303145,5.34825 12.033545,-1.57302 -4.08983,2.51682"
     id="path870"
     inkscape:connector-curvature="0" />
</svg>
