<?xml version="1.0" encoding="UTF-8" standalone="no"?>
<svg
   xmlns:dc="http://purl.org/dc/elements/1.1/"
   xmlns:cc="http://creativecommons.org/ns#"
   xmlns:rdf="http://www.w3.org/1999/02/22-rdf-syntax-ns#"
   xmlns:svg="http://www.w3.org/2000/svg"
   xmlns="http://www.w3.org/2000/svg"
   xmlns:sodipodi="http://sodipodi.sourceforge.net/DTD/sodipodi-0.dtd"
   xmlns:inkscape="http://www.inkscape.org/namespaces/inkscape"
   id="svg8"
   version="1.1"
   viewBox="0 0 297 210"
   height="210mm"
   width="297mm"
   sodipodi:docname="sweep-04-3.svg"
   inkscape:version="0.92.3 (2405546, 2018-03-11)">
  <sodipodi:namedview
     pagecolor="#ffffff"
     bordercolor="#666666"
     borderopacity="1"
     objecttolerance="10"
     gridtolerance="10"
     guidetolerance="10"
     inkscape:pageopacity="0"
     inkscape:pageshadow="2"
     inkscape:window-width="2560"
     inkscape:window-height="1311"
     id="namedview7"
     showgrid="false"
     inkscape:zoom="1.1893651"
     inkscape:cx="585.03016"
     inkscape:cy="401.42552"
     inkscape:window-x="0"
     inkscape:window-y="55"
     inkscape:window-maximized="1"
     inkscape:current-layer="svg8"
     showguides="true"
     inkscape:guide-bbox="true" />
  <defs
     id="defs2" />
  <metadata
     id="metadata5">
    <rdf:RDF>
      <cc:Work
         rdf:about="">
        <dc:format>image/svg+xml</dc:format>
        <dc:type
           rdf:resource="http://purl.org/dc/dcmitype/StillImage" />
        <dc:title />
      </cc:Work>
    </rdf:RDF>
  </metadata>
  <path
     style="fill:#0093c5;fill-rule:evenodd;stroke:#000000;stroke-width:0.39615536px;stroke-linecap:butt;stroke-linejoin:miter;stroke-opacity:1;fill-opacity:1"
     d="M 242.854,177.24384 222.19669,201.07326 68.65243,172.24762 37.675865,76.653264 148.59195,13.70088 l 96.26052,74.277149 -5.99546,32.641981 -54.95843,21.31721 14.32251,-36.97204 -39.96976,-10.991682 -26.9796,36.305872 20.98413,30.31041 66.95124,28.08175 z"
     id="path814"
     inkscape:connector-curvature="0"
     sodipodi:nodetypes="cccccccccccccc" />
  <path
     style="color:#000000;font-style:normal;font-variant:normal;font-weight:normal;font-stretch:normal;font-size:medium;line-height:normal;font-family:sans-serif;font-variant-ligatures:normal;font-variant-position:normal;font-variant-caps:normal;font-variant-numeric:normal;font-variant-alternates:normal;font-feature-settings:normal;text-indent:0;text-align:start;text-decoration:none;text-decoration-line:none;text-decoration-style:solid;text-decoration-color:#000000;letter-spacing:normal;word-spacing:normal;text-transform:none;writing-mode:lr-tb;direction:ltr;text-orientation:mixed;dominant-baseline:auto;baseline-shift:baseline;text-anchor:start;white-space:normal;shape-padding:0;clip-rule:nonzero;display:inline;overflow:visible;visibility:visible;opacity:1;isolation:auto;mix-blend-mode:normal;color-interpolation:sRGB;color-interpolation-filters:linearRGB;solid-color:#000000;solid-opacity:1;vector-effect:none;fill:#ffffff;fill-opacity:1;fill-rule:evenodd;stroke:none;stroke-width:1.32291663;stroke-linecap:butt;stroke-linejoin:miter;stroke-miterlimit:4;stroke-dasharray:7.93750002, 2.64583334;stroke-dashoffset:0;stroke-opacity:1;color-rendering:auto;image-rendering:auto;shape-rendering:auto;text-rendering:auto;enable-background:accumulate"
     d="m 37.582031,77.308594 7.857422,1.128906 0.1875,-1.310547 -7.857422,-1.128906 z m 10.476563,1.503906 7.855468,1.128906 0.189454,-1.308594 -7.857422,-1.128906 z m 10.474609,1.505859 7.857422,1.126953 0.1875,-1.308593 -7.857422,-1.128907 z m 10.476563,1.503907 7.855468,1.128906 0.189454,-1.310547 -7.857422,-1.126953 z m 10.474609,1.505859 7.857422,1.126953 0.1875,-1.308594 -7.855469,-1.128906 z m 10.476563,1.503906 7.857421,1.128907 0.1875,-1.310547 -7.857421,-1.126953 z m 10.476562,1.503907 7.85547,1.128906 0.18945,-1.308594 -7.85742,-1.128906 z m 10.47461,1.505859 7.85742,1.128906 0.1875,-1.310547 -7.85742,-1.128906 z m 10.47656,1.503906 7.85547,1.128906 0.18945,-1.308593 -7.85742,-1.128907 z m 10.47461,1.505859 7.85742,1.128907 0.1875,-1.310547 -7.85547,-1.128906 z m 10.47656,1.503907 7.85743,1.128906 0.1875,-1.308594 -7.85743,-1.128906 z m 10.47657,1.505859 5.34179,0.767578 0.1875,-1.310547 -5.34179,-0.767578 z"
     id="path821"
     inkscape:connector-curvature="0" />
  <path
     style="fill:none;fill-rule:evenodd;stroke:#aaeeff;stroke-width:2.64583334;stroke-linecap:round;stroke-linejoin:miter;stroke-miterlimit:4;stroke-dasharray:none;stroke-opacity:1"
     d="M 37.675865,76.653264 68.65243,172.24762"
     id="path830"
     inkscape:connector-curvature="0"
     sodipodi:nodetypes="cc" />
  <path
     sodipodi:nodetypes="cc"
     inkscape:connector-curvature="0"
     id="path815"
     d="m 244.85247,87.978029 -5.99546,32.641981"
     style="fill:none;fill-rule:evenodd;stroke:#aaeeff;stroke-width:2.64583325;stroke-linecap:round;stroke-linejoin:miter;stroke-miterlimit:4;stroke-dasharray:none;stroke-opacity:1" />
  <path
     style="fill:none;fill-rule:evenodd;stroke:#ffffff;stroke-width:0.79374999;stroke-linecap:round;stroke-linejoin:miter;stroke-miterlimit:4;stroke-dasharray:none;stroke-opacity:1"
     d="M -0.22245762,93.903685 H 296.98092"
     id="path819"
     inkscape:connector-curvature="0" />
  <path
     style="fill:none;fill-rule:evenodd;stroke:#d4ff2a;stroke-width:2.64583325;stroke-linecap:round;stroke-linejoin:miter;stroke-miterlimit:4;stroke-dasharray:none;stroke-opacity:1"
     d="m 158.25133,93.973498 -26.9796,36.305872"
     id="path818"
     inkscape:connector-curvature="0"
     sodipodi:nodetypes="cc" />
  <path
     sodipodi:nodetypes="cc"
     inkscape:connector-curvature="0"
     id="path820"
     d="m 158.25133,93.973498 39.96976,10.991682"
     style="fill:none;fill-rule:evenodd;stroke:#d4ff2a;stroke-width:2.64583325;stroke-linecap:round;stroke-linejoin:miter;stroke-miterlimit:4;stroke-dasharray:none;stroke-opacity:1" />
  <path
     style="color:#000000;overflow:visible;opacity:1;fill:#ffffff;fill-opacity:1;stroke:#000000;stroke-width:0.64296013;stroke-linecap:round;stroke-linejoin:round;stroke-miterlimit:4;stroke-dasharray:none;stroke-dashoffset:0;stroke-opacity:1"
     d="m 164.38966,93.737061 a 5.3293152,5.3293152 0 0 1 -5.32931,5.329315 5.3293152,5.3293152 0 0 1 -5.32932,-5.329315 5.3293152,5.3293152 0 0 1 5.32932,-5.329316 5.3293152,5.3293152 0 0 1 5.32931,5.329316 z"
     id="path822" />
  <path
     style="color:#000000;overflow:visible;opacity:1;fill:none;fill-opacity:1;stroke:#000000;stroke-width:0.64296013;stroke-linecap:round;stroke-linejoin:round;stroke-miterlimit:4;stroke-dasharray:none;stroke-dashoffset:0;stroke-opacity:1"
     d="m 42.63847,75.804718 a 5.3293152,5.3293152 0 0 1 -5.329315,5.329315 5.3293152,5.3293152 0 0 1 -5.329316,-5.329315 5.3293152,5.3293152 0 0 1 5.329316,-5.329315 5.3293152,5.3293152 0 0 1 5.329315,5.329315 z"
     id="circle825" />
</svg>
