<?xml version="1.0" encoding="UTF-8" standalone="no"?>
<svg
   xmlns:dc="http://purl.org/dc/elements/1.1/"
   xmlns:cc="http://creativecommons.org/ns#"
   xmlns:rdf="http://www.w3.org/1999/02/22-rdf-syntax-ns#"
   xmlns:svg="http://www.w3.org/2000/svg"
   xmlns="http://www.w3.org/2000/svg"
   xmlns:sodipodi="http://sodipodi.sourceforge.net/DTD/sodipodi-0.dtd"
   xmlns:inkscape="http://www.inkscape.org/namespaces/inkscape"
   id="svg8"
   version="1.1"
   viewBox="0 0 297 210"
   height="210mm"
   width="297mm"
   sodipodi:docname="sweep-line-01.svg"
   inkscape:version="0.92.2 (5c3e80d, 2017-08-06)">
  <sodipodi:namedview
     pagecolor="#ffffff"
     bordercolor="#666666"
     borderopacity="1"
     objecttolerance="10"
     gridtolerance="10"
     guidetolerance="10"
     inkscape:pageopacity="0"
     inkscape:pageshadow="2"
     inkscape:window-width="2560"
     inkscape:window-height="1311"
     id="namedview7"
     showgrid="false"
     inkscape:zoom="1.1893651"
     inkscape:cx="489.10379"
     inkscape:cy="412.6974"
     inkscape:window-x="0"
     inkscape:window-y="55"
     inkscape:window-maximized="1"
     inkscape:current-layer="svg8" />
  <defs
     id="defs2" />
  <metadata
     id="metadata5">
    <rdf:RDF>
      <cc:Work
         rdf:about="">
        <dc:format>image/svg+xml</dc:format>
        <dc:type
           rdf:resource="http://purl.org/dc/dcmitype/StillImage" />
        <dc:title />
      </cc:Work>
    </rdf:RDF>
  </metadata>
  <text
     xml:space="preserve"
     style="font-style:normal;font-weight:normal;font-size:5.29166651px;line-height:6.61458302px;font-family:Sans;letter-spacing:0px;word-spacing:0px;fill:#000000;fill-opacity:1;stroke:none;stroke-width:0.26458332px;stroke-linecap:butt;stroke-linejoin:miter;stroke-opacity:1"
     x="66.959747"
     y="25.360168"
     id="text816"><tspan
       sodipodi:role="line"
       id="tspan814"
       x="66.959747"
       y="25.360168"
       style="font-style:normal;font-variant:normal;font-weight:bold;font-stretch:normal;font-size:16.93333244px;font-family:'Nimbus Sans';-inkscape-font-specification:'Nimbus Sans';stroke-width:0.26458332px">Sweep line algorithm</tspan></text>
  <path
     style="color:#000000;font-style:normal;font-variant:normal;font-weight:normal;font-stretch:normal;font-size:medium;line-height:normal;font-family:sans-serif;font-variant-ligatures:normal;font-variant-position:normal;font-variant-caps:normal;font-variant-numeric:normal;font-variant-alternates:normal;font-feature-settings:normal;text-indent:0;text-align:start;text-decoration:none;text-decoration-line:none;text-decoration-style:solid;text-decoration-color:#000000;letter-spacing:normal;word-spacing:normal;text-transform:none;writing-mode:lr-tb;direction:ltr;text-orientation:mixed;dominant-baseline:auto;baseline-shift:baseline;text-anchor:start;white-space:normal;shape-padding:0;clip-rule:nonzero;display:inline;overflow:visible;visibility:visible;opacity:1;isolation:auto;mix-blend-mode:normal;color-interpolation:sRGB;color-interpolation-filters:linearRGB;solid-color:#000000;solid-opacity:1;vector-effect:none;fill:#000000;fill-opacity:1;fill-rule:evenodd;stroke:none;stroke-width:0.45507509;stroke-linecap:round;stroke-linejoin:miter;stroke-miterlimit:4;stroke-dasharray:none;stroke-dashoffset:0;stroke-opacity:1;color-rendering:auto;image-rendering:auto;shape-rendering:auto;text-rendering:auto;enable-background:accumulate"
     d="m 64.678234,44.434127 -6.21e-4,0.0025 a 0.22756028,0.22756028 0 0 0 -0.07983,0.01547 0.22756028,0.22756028 0 0 0 -0.01361,-0.0012 l -6.18e-4,-0.0037 a 0.22756028,0.22756028 0 0 0 -0.158421,0.06126 0.22756028,0.22756028 0 0 0 -0.0068,0.0074 0.22756028,0.22756028 0 0 0 -0.0031,0.0037 L 56.0338,47.408256 a 0.22756028,0.22756028 0 0 0 -0.08107,0.02723 l -0.06993,0.02475 -0.01795,0.07055 a 0.22756028,0.22756028 0 0 0 -0.02475,0.09406 l -1.596581,6.198818 a 0.22756028,0.22756028 0 0 0 -0.02475,0.207927 l -0.04456,6.340532 -0.179458,-0.01857 0.509914,0.941243 3.433887,6.358477 -12.686012,9.523791 a 0.22756028,0.22756028 0 0 0 -0.05198,0.03404 l -18.009191,11.054159 -0.239487,0.05013 0.08973,0.193073 -5.79163,29.802224 -0.14357,0.0173 0.08849,0.1906 -4.338616,10.37406 a 0.22756028,0.22756028 0 0 0 -0.02847,0.2531 l 3.159747,25.07994 4.247027,3.03351 3.439457,-3.0366 5.850417,-22.15411 0.05879,-0.16214 -0.05879,-0.0353 -0.941239,-12.80173 0.19122,-0.22402 -0.02537,-0.005 4.637512,-6.12208 7.177188,13.51648 a 0.22756028,0.22756028 0 0 0 0.008,0.0285 l 1.891144,9.84 -3.316928,10.90131 -0.256816,0.32428 0.222781,0.007 -0.554472,12.53686 a 0.22756028,0.22756028 0 0 0 -0.06807,0.36636 l 0.04951,0.052 -0.661529,14.94412 0.02166,1.56564 -0.141092,0.67637 -0.0043,6.2e-4 0.0012,0.0167 a 0.22756028,0.22756028 0 0 0 0.0087,0.10953 l 0.178223,2.31071 0.224637,16.19849 1.089759,0.7921 a 0.22756028,0.22756028 0 0 0 0.277235,0.0817 l 5.365255,-0.0916 a 0.22756028,0.22756028 0 0 0 0.273522,-0.0712 l 1.742007,-1.06747 4.608426,-20.34343 7.763841,-15.24859 a 0.22895743,0.22895743 0 0 0 0.0012,-6.2e-4 0.22895743,0.22895743 0 0 0 0.02723,-0.052 0.22756028,0.22756028 0 0 0 0,-6.1e-4 0.22756028,0.22756028 0 0 0 0.02475,-0.11635 l 1.261794,-7.00206 1.259937,7.01692 a 0.22756028,0.22756028 0 0 0 0.02475,0.11633 0.22756028,0.22756028 0 0 1 0,0.001 0.22895743,0.22895743 0 0 0 0.02785,0.0514 0.22895743,0.22895743 0 0 1 6.17e-4,0.001 l 7.757033,15.25166 4.597907,20.3459 1.740768,1.06873 a 0.22756028,0.22756028 0 0 0 0.274143,0.0712 l 5.364637,0.0941 a 0.22756028,0.22756028 0 0 0 0.277235,-0.0811 l 1.090998,-0.79149 0.23206,-16.18859 0.184411,-2.33733 a 0.22756028,0.22756028 0 0 0 0.0031,-0.10024 l -0.142328,-0.68628 0.02228,-1.56626 -0.654103,-14.9435 0.0495,-0.0526 a 0.22756028,0.22756028 0 0 0 -0.06745,-0.36634 l -0.54828,-12.53626 0.222777,-0.007 -0.256815,-0.32427 -3.311359,-10.90317 1.896715,-9.83939 a 0.22756028,0.22756028 0 0 0 0.0087,-0.0285 l 7.183379,-13.51278 4.634417,6.12518 -0.02475,0.005 0.191217,0.2234 -0.948666,12.80111 -0.05879,0.0353 0.05879,0.16213 5.839278,22.15597 3.43822,3.03907 4.24827,-3.03102 3.17274,-25.07808 a 0.22756028,0.22756028 0 0 0 -0.0285,-0.2531 l -4.33305,-10.37716 0.0885,-0.18998 -0.14357,-0.018 -5.77678,-29.804706 0.0897,-0.192456 -0.2401,-0.05075 -18.003621,-11.06406 a 0.22756028,0.22756028 0 0 0 -0.05074,-0.03404 l -12.681064,-9.529982 3.437601,-6.356621 0.509917,-0.941239 -0.179462,0.01856 -0.04084,-6.340529 a 0.22756028,0.22756028 0 0 0 -0.02475,-0.207927 l -1.592808,-6.19891 a 0.22756028,0.22756028 0 0 0 -0.02475,-0.09406 l -0.01795,-0.07054 -0.07117,-0.02475 a 0.22756028,0.22756028 0 0 0 -0.08107,-0.02723 l -8.349245,-2.88252 a 0.22756028,0.22756028 0 0 0 -0.01795,-0.02475 0.22756028,0.22756028 0 0 0 -0.0068,-0.0074 0.22756028,0.22756028 0 0 0 -0.0087,-0.01052 0.22756028,0.22756028 0 0 0 -0.0068,-0.0074 0.22756028,0.22756028 0 0 0 -0.158421,-0.06003 z m -0.326742,0.587889 0.0037,5.928391 -7.653685,-3.292177 z m 0.558182,0.01423 7.649357,2.641167 -7.656781,3.287842 z m -8.6828,2.912833 7.388828,3.179549 -8.849886,2.492027 z m 16.806801,0.01857 1.458583,5.672811 -8.849268,-2.496979 z m -8.678473,3.427699 0.0031,9.771323 -9.410546,-7.12459 z m 0.547048,0.01361 9.406833,2.652925 -9.414877,7.120258 z m -10.231734,2.994521 9.220565,6.981637 -9.264501,-0.965373 z m 19.916421,0.01918 0.04023,6.016885 -9.264505,0.960424 z m -19.783373,6.471723 9.198288,0.959188 -0.216589,0.164609 0.411519,-0.0427 -5.038512,6.953175 z m 19.645994,0.0198 -4.359038,8.031793 -5.057078,-6.986589 0.434417,0.04518 -0.18379,-0.139236 z m -10.090021,1.610198 0.0037,9.002119 -4.888139,-2.261205 z m 0.53343,0.01547 4.880092,6.742771 -4.888137,2.25873 z m -6.729774,5.51192 0.745688,1.37566 a 0.22756028,0.22756028 0 0 0 0.0427,0.07859 l 0.01485,0.02537 0.02475,0.01237 a 0.22756028,0.22756028 0 0 0 0.0823,0.03775 l 0.907825,0.419567 -6.18892,12.510267 -8.034268,-5.142477 z m 12.923025,0.01733 12.400733,9.323909 -8.036746,5.138146 -6.182729,-12.512742 0.907204,-0.419567 a 0.22756028,0.22756028 0 0 0 0.08292,-0.03775 l 0.02599,-0.01238 0.013,-0.02599 a 0.22756028,0.22756028 0 0 0 0.0427,-0.07797 z m -10.690288,2.123823 3.707409,1.71416 -9.363514,9.715011 z m 8.45631,0.01671 5.650537,11.432263 -9.358565,-9.719342 z m -4.48899,2.085456 0.0062,15.114301 -10.098686,-4.641226 0.304465,-0.309414 -0.01052,0.0037 z m 0.521672,0.01547 9.791747,10.170466 -0.01052,-0.0031 0.305083,0.308796 -10.10054,4.635655 z m -19.529034,5.342356 7.935876,5.077499 -24.764955,5.252012 z m 38.532684,0.02537 16.823508,10.336935 -24.762477,-5.264385 z m -29.867827,5.474169 10.088164,4.636893 -17.807448,19.162693 z m 21.199874,0.02042 7.706908,23.803286 L 65.12998,87.804205 Z m -22.03282,0.04827 -19.121226,19.379276 -6.459965,-13.957707 z m 22.865766,0.02042 25.578715,5.435181 -6.467391,13.953995 z M 53.370974,83.679695 45.626935,107.5591 34.398268,102.91416 Z m 22.499419,0.02042 18.962802,19.244375 -11.231142,4.63875 z m -11.500955,4.475378 0.0087,22.854007 -18.162659,-3.31445 z m 0.501252,0.01485 18.144092,19.548837 -18.164516,3.30579 z m -37.502951,1.023542 6.364047,13.749785 -11.889579,14.7003 z m 74.503411,0.03342 5.51068,28.453185 -11.881536,-14.7065 z m -67.480927,14.156355 10.840661,4.48775 -7.690819,4.08552 z m 60.450399,0.0303 -3.154177,8.57203 -7.688341,-4.08984 z m -60.715877,0.56437 3.036597,8.26138 -4.502607,5.94572 z m 60.981354,0.0303 1.458584,14.20771 -4.500133,-5.94819 z m -61.467138,0.2104 -1.491997,14.48433 -5.121436,-1.0124 z m 61.952922,0.0303 6.606627,13.47564 -5.122674,1.00993 z m -62.694896,0.44803 -6.354765,12.94778 -4.569441,0.55881 z m 63.436871,0.0316 10.917402,13.51154 -4.56944,-0.56066 z m -50.251464,3.40543 17.710913,3.23091 -13.531334,11.88525 z m 37.0642,0.0241 -4.187623,15.1143 -13.525147,-11.89205 z m -37.62919,0.0767 -0.916488,17.08528 -6.875201,-12.9484 z m 38.19418,0.0248 7.788593,4.14121 -6.880767,12.94468 z m -37.794416,0.99013 3.951228,14.28569 -4.837394,2.24696 z m 37.393416,0.0241 0.877501,16.53328 -4.83492,-2.24945 z m -18.932483,2.18447 0.0037,10.19646 -0.01547,-0.001 0.01547,0.0198 v 0.0254 l -13.538761,1.64732 z m 0.47093,0.0155 13.529478,11.89391 -13.538141,-1.65413 v -0.0551 l 0.01485,-0.0186 -0.01485,0.001 z m -38.421914,6.64376 -1.078,8.26076 -3.567556,-7.69267 z m 0.457937,0.009 5.037894,0.99632 -6.101044,7.15058 z m 75.911246,0.0254 4.64494,0.56995 -3.57127,7.69081 z m -0.45794,0.009 1.05882,8.14751 -6.097328,-7.15367 z m -80.884159,0.90225 3.694416,7.96744 -7.728568,1.67517 z m 86.314399,0.0365 4.02982,9.64509 -7.72733,-1.67951 z m -75.606786,0.44618 0.88431,12.01582 -7.316428,-4.47785 z m 64.899169,0.0309 6.428407,7.54168 -7.318901,4.47414 z m -32.679169,2.61332 6.18e-4,1.23023 -0.0087,10.17852 -11.603063,2.01553 z m 0.457315,0.0155 11.605538,13.42923 -11.601824,-2.02172 -0.0043,-9.84187 z m -1.10028,0.0316 -11.535608,13.3395 -1.800176,-11.71693 z m 1.743246,0.0155 13.335783,1.62938 -1.806364,11.71631 z m -15.690435,1.82246 -3.055781,11.03126 -1.694976,-8.82452 z m 29.637002,0.0223 4.749521,2.20923 -1.699306,8.82327 z m -29.351721,0.64606 1.696832,11.01579 -4.777366,0.10397 z m 29.066441,0.0217 3.074966,11.12223 -4.777365,-0.10644 z m -54.099966,2.75318 -4.797171,25.10902 -2.951819,-23.42952 z m 79.131634,0.0346 7.74775,1.68446 -2.96357,23.42704 z m -78.522089,0.0136 7.375835,4.51375 -8.529333,23.43075 1.043348,-27.62889 0.05446,0.11634 z m 77.912539,0.0347 0.0557,0.43194 0.0545,-0.11634 1.02911,27.63014 -8.516953,-23.43571 z m -78.569116,2.57742 -0.988271,26.34236 -3.556416,-2.5403 z m 79.225076,0.0353 4.5317,23.80391 -3.55704,2.53844 z M 64.37253,134.07845 64.35768,151.15692 52.383321,136.167 Z m 0.470313,0.0136 11.988592,2.09474 -11.982404,14.98497 z m -13.17551,2.14549 -7.751462,9.79484 2.948724,-9.68964 z m 25.879468,0.0217 4.80212,0.10767 2.945011,9.69026 z m -25.437003,0.29394 11.866681,14.85563 -16.476345,-4.31324 z m 24.994541,0.0217 4.604095,10.54362 -16.478206,4.30582 z m -45.297114,0.20854 -4.539735,17.19234 -2.530396,2.23397 z m 65.599067,0.0309 7.060848,19.43002 -2.52916,-2.2346 z m -46.264344,0.8218 -4.094799,9.36537 -3.241431,-0.0978 z m 26.930239,0.021 7.330659,9.27193 -3.241431,0.0959 z m -34.507813,9.69335 3.41161,0.10397 -2.04709,14.69659 -1.927654,-2.03533 z m 42.079816,0.026 0.556947,12.76522 -1.929511,2.03409 -2.039045,-14.69721 z m -38.224505,0.16893 16.562982,4.33553 -18.606359,10.35117 z m 34.369195,0.0229 2.03595,14.68793 -18.601407,-10.36045 z m -17.731952,4.78913 -5.382582,10.87903 -0.04765,0.0371 -12.749133,-0.80262 z m 1.091616,0.0155 18.174416,10.1222 -12.749134,0.79643 -0.04765,-0.0371 z m -1.07367,0.97094 -1.183822,6.56146 -3.383763,2.67272 z m 1.056342,0.0155 4.562014,9.23604 -3.381906,-2.67459 z m -22.157823,7.39316 1.868246,1.97098 -2.478412,11.85739 z m 43.254355,0.026 0.603978,13.82838 -2.472845,-11.85864 z m -24.027311,0.25496 -9.018826,14.33334 5.852274,-11.83141 z m 4.800264,0.0155 3.166555,2.50379 5.845465,11.83388 z m -21.448645,1.86206 12.883421,0.8082 -7.39873,14.94969 z m 38.096407,0.0241 -5.492732,15.75541 -7.390688,-14.95341 z m -38.264728,0.85955 5.297805,15.23869 -6.229761,0.0897 z m 38.431814,0.0241 0.925151,15.32903 -6.229761,-0.0928 z m -23.189415,0.57117 -5.505729,10.80663 -3.038454,2.76865 z m 7.947013,0.0173 8.53738,13.5796 -3.0366,-2.7705 z m -23.709849,0.44556 -0.853367,14.04558 -1.64423,-1.34348 -0.0099,-0.71413 z m 39.473306,0.0248 2.50131,11.98921 -0.0099,0.71351 -1.645469,1.34286 z m -29.414842,11.11666 -4.071904,17.98691 0.321793,-14.22318 0.04456,-0.38801 z m 19.349573,0.0192 3.703696,3.37757 0.14357,1.24942 0.137997,13.02018 z m -31.897589,2.13682 1.605246,1.30758 -0.637395,14.46825 -0.913392,-11.8246 z m 44.444983,0.026 -0.05631,3.91596 -0.92515,11.72125 -0.624402,-14.33086 z m -36.137189,1.31378 -6.958125,16.09205 0.703609,-16.00542 z m 27.826924,0.0216 6.256369,0.0897 0.698042,16.04131 z m -27.865294,0.86142 -1.853395,16.07101 -5.108442,0.0885 0.0025,-0.0625 z m 27.905517,0.0291 6.952554,16.12609 0.0012,0.0291 -5.10906,-0.0903 z m -27.769991,2.75998 -0.278475,12.31534 -1.230233,0.75373 z m 27.688924,0.51177 1.446205,12.57958 -1.243227,-0.76116 -0.08169,-0.36202 z m 8.224867,3.33983 -0.127478,8.89259 -0.609548,0.44493 z m -44.194973,0.10025 0.710414,9.19643 -0.589125,-0.43009 z"
     id="path829-3"
     inkscape:connector-curvature="0" />
  <path
     style="fill:none;fill-rule:evenodd;stroke:#000000;stroke-width:0.26458332px;stroke-linecap:butt;stroke-linejoin:miter;stroke-opacity:1"
     d="m 199.09958,44.046609 -15.7945,25.805086 11.5678,32.701265 6.22881,-22.913132 8.67585,19.131356 -14.90466,22.245766 -15.57203,-30.699155 -6.89619,17.129235 24.24788,40.93221 31.81144,-54.947038 z"
     id="path1041"
     inkscape:connector-curvature="0"
     sodipodi:nodetypes="ccccccccccc" />
</svg>
