<?xml version="1.0" encoding="UTF-8" standalone="no"?>
<svg
   xmlns:dc="http://purl.org/dc/elements/1.1/"
   xmlns:cc="http://creativecommons.org/ns#"
   xmlns:rdf="http://www.w3.org/1999/02/22-rdf-syntax-ns#"
   xmlns:svg="http://www.w3.org/2000/svg"
   xmlns="http://www.w3.org/2000/svg"
   xmlns:sodipodi="http://sodipodi.sourceforge.net/DTD/sodipodi-0.dtd"
   xmlns:inkscape="http://www.inkscape.org/namespaces/inkscape"
   id="svg8"
   version="1.1"
   viewBox="0 0 297 210"
   height="210mm"
   width="297mm"
   sodipodi:docname="ui.svg"
   inkscape:version="0.92.3 (2405546, 2018-03-11)">
  <sodipodi:namedview
     pagecolor="#ffffff"
     bordercolor="#666666"
     borderopacity="1"
     objecttolerance="10"
     gridtolerance="10"
     guidetolerance="10"
     inkscape:pageopacity="0"
     inkscape:pageshadow="2"
     inkscape:window-width="2560"
     inkscape:window-height="1311"
     id="namedview7"
     showgrid="false"
     showguides="true"
     inkscape:guide-bbox="true"
     inkscape:zoom="1.1893651"
     inkscape:cx="654.4436"
     inkscape:cy="537.58836"
     inkscape:window-x="0"
     inkscape:window-y="55"
     inkscape:window-maximized="1"
     inkscape:current-layer="svg8">
    <inkscape:grid
       type="xygrid"
       id="grid814" />
    <sodipodi:guide
       position="312.08577,85.571906"
       orientation="1,0"
       id="guide1510"
       inkscape:locked="false" />
  </sodipodi:namedview>
  <defs
     id="defs2">
    <path
       d="M0 0h48v48H0V0z"
       id="a" />
    <path
       d="M0 0h48v48H0V0z"
       id="a-7" />
    <path
       d="M0 0h48v48H0z"
       id="a-5" />
  </defs>
  <metadata
     id="metadata5">
    <rdf:RDF>
      <cc:Work
         rdf:about="">
        <dc:format>image/svg+xml</dc:format>
        <dc:type
           rdf:resource="http://purl.org/dc/dcmitype/StillImage" />
        <dc:title />
      </cc:Work>
    </rdf:RDF>
  </metadata>
  <path
     id="path1512"
     d="m 283.77154,8.7109176 c -2.92365,0 -5.29167,2.3680204 -5.29167,5.2916664 0,2.923646 2.36802,5.291667 5.29167,5.291667 2.92365,0 5.29167,-2.368021 5.29167,-5.291667 0,-2.923646 -2.36802,-5.2916664 -5.29167,-5.2916664 z m -4.23333,5.2916664 c 0,-2.338916 1.89441,-4.233333 4.23333,-4.233333 0.97896,0 1.8759,0.336021 2.59292,0.891646 l -5.93461,5.934604 c -0.55562,-0.717021 -0.89164,-1.613958 -0.89164,-2.592917 z m 4.23333,4.233333 c -0.97896,0 -1.8759,-0.33602 -2.59292,-0.891645 l 5.93461,-5.934604 c 0.55562,0.71702 0.89164,1.613958 0.89164,2.592916 0,2.338917 -1.89441,4.233333 -4.23333,4.233333 z"
     inkscape:connector-curvature="0"
     style="stroke-width:0.26458332;fill:#e6e6e6" />
  <path
     id="path1499"
     d="m 162.02175,23.711803 h -2.21456 c -0.21696,-0.613833 -0.79904,-1.058333 -1.4896,-1.058333 -0.69057,0 -1.27265,0.4445 -1.48961,1.058333 h -2.21456 c -0.58473,0 -1.05833,0.473604 -1.05833,1.058334 v 8.466666 c 0,0.58473 0.4736,1.058334 1.05833,1.058334 h 7.40833 c 0.58473,0 1.05834,-0.473604 1.05834,-1.058334 v -8.466666 c 0,-0.58473 -0.47361,-1.058334 -1.05834,-1.058334 z m -3.70416,0 c 0.29104,0 0.52916,0.235479 0.52916,0.529167 0,0.293687 -0.23812,0.529167 -0.52916,0.529167 -0.29105,0 -0.52917,-0.23548 -0.52917,-0.529167 0,-0.293688 0.23812,-0.529167 0.52917,-0.529167 z m 3.70416,9.525 h -7.40833 v -8.466666 h 1.05833 v 1.5875 h 5.29167 v -1.5875 h 1.05833 z"
     inkscape:connector-curvature="0"
     style="stroke-width:0.26458332;fill:#e6e6e6" />
  <path
     id="path1151"
     d="m 16.517328,32.900134 c 0,0.29104 0.23812,0.52916 0.52916,0.52916 h 2.116671 c 0.29104,0 0.52917,-0.23812 0.52917,-0.52916 v -0.52917 h -3.175001 z m 1.587501,-10.05417 c -2.045231,0 -3.704172,1.65894 -3.704172,3.70417 0,1.25941 0.62971,2.36802 1.587501,3.03741 v 1.19592 c 0,0.29104 0.23813,0.52917 0.52917,0.52917 h 3.175001 c 0.29104,0 0.52916,-0.23813 0.52916,-0.52917 v -1.19592 c 0.9578,-0.66939 1.5875,-1.778 1.5875,-3.03741 0,-2.04523 -1.65893,-3.70417 -3.70416,-3.70417 z m 1.51077,5.87375 -0.45244,0.31485 v 1.21973 h -2.116671 v -1.21708 l -0.45243,-0.31485 c -0.71173,-0.49742 -1.135071,-1.30705 -1.135071,-2.16959 0,-1.45785 1.187981,-2.64583 2.645842,-2.64583 1.45785,0 2.64583,1.18798 2.64583,2.64583 0,0.8599 -0.42333,1.66952 -1.13506,2.16694 z"
     clip-path="url(#b)"
     inkscape:connector-curvature="0"
     style="fill:#e6e6e6;stroke-width:0.26458332" />
  <path
     inkscape:connector-curvature="0"
     d="m 121.7656,28.653566 c 0.0212,-0.169333 0.037,-0.341312 0.037,-0.515937 0,-0.174625 -0.0159,-0.346604 -0.037,-0.515938 l 1.11919,-0.87577 c 0.10054,-0.07937 0.12964,-0.22225 0.0635,-0.338667 l -1.05834,-1.833563 c -0.0661,-0.11377 -0.20373,-0.161395 -0.32279,-0.11377 l -1.31762,0.531812 c -0.27253,-0.209021 -0.5715,-0.386292 -0.8943,-0.521229 l -0.19843,-1.402292 c -0.0238,-0.124354 -0.1323,-0.22225 -0.26459,-0.22225 h -2.11666 c -0.1323,0 -0.24077,0.0979 -0.26194,0.22225 l -0.19844,1.402292 c -0.32279,0.134937 -0.62177,0.309562 -0.89429,0.521229 l -1.31763,-0.531812 c -0.11906,-0.04498 -0.25664,0 -0.32279,0.11377 l -1.05833,1.833563 c -0.0661,0.113771 -0.037,0.256646 0.0635,0.338667 l 1.11654,0.87577 c -0.0212,0.169334 -0.037,0.341313 -0.037,0.515938 0,0.174625 0.0159,0.346604 0.037,0.515937 l -1.11654,0.875771 c -0.10054,0.07937 -0.12965,0.22225 -0.0635,0.338667 l 1.05833,1.833562 c 0.0662,0.113771 0.20373,0.161396 0.32279,0.113771 l 1.31763,-0.531812 c 0.27252,0.209021 0.5715,0.386291 0.89429,0.521229 l 0.19844,1.402292 c 0.0212,0.124354 0.12964,0.22225 0.26194,0.22225 h 2.11666 c 0.13229,0 0.24077,-0.0979 0.26194,-0.22225 l 0.19844,-1.402292 c 0.32279,-0.134938 0.62177,-0.309563 0.89429,-0.521229 l 1.31762,0.531812 c 0.11907,0.04498 0.25665,0 0.3228,-0.113771 l 1.05833,-1.833562 c 0.0662,-0.113771 0.037,-0.256646 -0.0635,-0.338667 z m -3.93171,1.336146 c -1.02394,0 -1.85208,-0.828146 -1.85208,-1.852083 0,-1.023938 0.82814,-1.852083 1.85208,-1.852083 1.02394,0 1.85208,0.828145 1.85208,1.852083 0,1.023937 -0.82814,1.852083 -1.85208,1.852083 z"
     id="path1195"
     style="stroke-width:0.26458332;fill:#e6e6e6" />
  <path
     inkscape:connector-curvature="0"
     d="m 77.250111,27.079296 c -0.584729,0 -1.058333,0.473604 -1.058333,1.058333 0,0.584729 0.473604,1.058333 1.058333,1.058333 0.584729,0 1.058333,-0.473604 1.058333,-1.058333 0,-0.584729 -0.473604,-1.058333 -1.058333,-1.058333 z m 3.704167,-3.704167 h -7.408334 c -0.584729,0 -1.058333,0.473604 -1.058333,1.058333 v 7.408334 c 0,0.584729 0.473604,1.058333 1.058333,1.058333 h 7.408334 c 0.584729,0 1.058333,-0.473604 1.058333,-1.058333 v -7.408334 c 0,-0.584729 -0.473604,-1.058333 -1.058333,-1.058333 z m -0.926042,4.7625 c 0,0.121708 -0.01058,0.243417 -0.02646,0.362479 l 0.783166,0.613833 c 0.06879,0.05556 0.08996,0.156105 0.04233,0.23548 l -0.740834,1.283229 c -0.04498,0.07937 -0.142875,0.111125 -0.227541,0.07937 l -0.923396,-0.373063 c -0.1905,0.148167 -0.399521,0.269875 -0.627063,0.365125 l -0.137583,0.981604 c -0.01058,0.08731 -0.08731,0.156105 -0.179917,0.156105 h -1.481666 c -0.0926,0 -0.169334,-0.06879 -0.182563,-0.156105 l -0.137583,-0.981604 c -0.224896,-0.0926 -0.433917,-0.216958 -0.627063,-0.365125 l -0.92075,0.370417 c -0.08467,0.03175 -0.179916,0 -0.227541,-0.07937 l -0.740834,-1.283229 c -0.04762,-0.07938 -0.02646,-0.179917 0.04233,-0.235479 l 0.783166,-0.611188 c -0.01588,-0.119062 -0.02646,-0.238125 -0.02646,-0.362479 0,-0.121708 0.01058,-0.243417 0.02646,-0.362479 l -0.783166,-0.611188 c -0.06879,-0.05556 -0.08996,-0.156104 -0.04233,-0.235479 l 0.740834,-1.283229 c 0.04763,-0.07938 0.142875,-0.111125 0.227541,-0.07938 l 0.92075,0.370417 c 0.1905,-0.145521 0.399521,-0.269875 0.627063,-0.365125 l 0.137583,-0.981605 c 0.01323,-0.08731 0.08996,-0.156104 0.182563,-0.156104 h 1.481666 c 0.0926,0 0.169334,0.06879 0.182563,0.156104 l 0.137583,0.981605 c 0.224896,0.0926 0.433917,0.216958 0.627063,0.365125 l 0.92075,-0.370417 c 0.08467,-0.03175 0.179916,0 0.227541,0.07938 l 0.740834,1.283229 c 0.04762,0.07937 0.02646,0.179917 -0.04233,0.235479 l -0.783166,0.613834 c 0.01587,0.116416 0.02646,0.238125 0.02646,0.359833 z"
     id="path1211"
     style="stroke-width:0.26458332;fill:#e6e6e6" />
  <path
     inkscape:connector-curvature="0"
     d="m 36.037177,22.845962 c -2.045229,0 -3.704167,1.658938 -3.704167,3.704167 0,2.778125 3.704167,6.879167 3.704167,6.879167 0,0 3.704167,-4.101042 3.704167,-6.879167 0,-2.045229 -1.658938,-3.704167 -3.704167,-3.704167 z m 0,5.027084 c -0.73025,0 -1.322917,-0.592667 -1.322917,-1.322917 0,-0.73025 0.592667,-1.322917 1.322917,-1.322917 0.73025,0 1.322917,0.592667 1.322917,1.322917 0,0.73025 -0.592667,1.322917 -1.322917,1.322917 z"
     id="path1225"
     style="stroke-width:0.26458332;fill:#e6e6e6" />
  <path
     inkscape:connector-curvature="0"
     d="m 57.973807,26.550129 h -1.603375 l -0.513292,-1.5875 -0.513291,1.5875 h -1.603375 l 1.307041,0.931333 -0.497416,1.539875 1.307041,-0.9525 1.307042,0.9525 -0.497417,-1.539875 z m 0,0 h -1.603375 l -0.513292,-1.5875 -0.513291,1.5875 h -1.603375 l 1.307041,0.931333 -0.497416,1.539875 1.307041,-0.9525 1.307042,0.9525 -0.497417,-1.539875 z m 4.233333,1.060979 -2.645833,-0.0026 c -0.291042,0 -0.529167,0.238125 -0.529167,0.529167 v 4.7625 c 0,0.291042 0.238125,0.529167 0.529167,0.529167 h 2.645833 c 0.291042,0 0.529167,-0.238125 0.529167,-0.529167 v -4.7625 c 0,-0.291042 -0.238125,-0.526521 -0.529167,-0.526521 z m 0,4.759854 h -2.645833 v -3.704166 h 2.645833 z m -1.5875,-9.525 h -9.525 c -0.587375,0 -1.058333,0.470959 -1.058333,1.058334 v 6.35 c 0,0.582083 0.470958,1.058333 1.058333,1.058333 h 3.704167 v 1.058333 h -1.058333 v 1.058334 h 4.233333 v -1.058334 h -1.058333 v -1.058333 h 1.058333 V 30.254296 H 51.09464 v -6.35 h 9.525 v 2.645833 h 1.058334 v -2.645833 c 0,-0.587375 -0.47625,-1.058334 -1.058334,-1.058334 z m -4.249208,3.704167 -0.513292,-1.5875 -0.513291,1.5875 h -1.603375 l 1.307041,0.931333 -0.497416,1.539875 1.307041,-0.9525 1.307042,0.9525 -0.497417,-1.539875 1.307042,-0.931333 z"
     id="path1259"
     style="stroke-width:0.26458332;fill:#e6e6e6" />
  <path
     inkscape:connector-curvature="0"
     d="m 98.013887,22.845962 c -2.923646,0 -5.291667,2.368021 -5.291667,5.291667 0,2.921 2.368021,5.291667 5.291667,5.291667 2.923643,0 5.291663,-2.370667 5.291663,-5.291667 0,-2.923646 -2.36802,-5.291667 -5.291663,-5.291667 z m -2.116667,8.202084 c -0.73025,0 -1.322916,-0.592667 -1.322916,-1.322917 0,-0.73025 0.592666,-1.322917 1.322916,-1.322917 0.73025,0 1.322917,0.592667 1.322917,1.322917 0,0.73025 -0.592667,1.322917 -1.322917,1.322917 z m 0.79375,-5.027084 c 0,-0.73025 0.592667,-1.322916 1.322917,-1.322916 0.73025,0 1.322917,0.592666 1.322917,1.322916 0,0.73025 -0.592667,1.322917 -1.322917,1.322917 -0.73025,0 -1.322917,-0.592667 -1.322917,-1.322917 z m 3.43958,5.027084 c -0.730246,0 -1.322913,-0.592667 -1.322913,-1.322917 0,-0.73025 0.592667,-1.322917 1.322913,-1.322917 0.73025,0 1.32292,0.592667 1.32292,1.322917 0,0.73025 -0.59267,1.322917 -1.32292,1.322917 z"
     id="path1323"
     style="stroke-width:0.26458332;fill:#e6e6e6" />
  <path
     inkscape:connector-curvature="0"
     d="m 56.502203,9.6162959 c 0.613833,0 1.11125,0.4974171 1.11125,1.1112501 0,0.613833 -0.497417,1.11125 -1.11125,1.11125 -0.613833,0 -1.11125,-0.497417 -1.11125,-1.11125 0,-0.613833 0.497417,-1.1112501 1.11125,-1.1112501 m 0,4.7625001 c 1.574271,0 3.227917,0.769937 3.227917,1.11125 v 0.582083 h -6.455834 v -0.582083 c 0,-0.341313 1.653646,-1.11125 3.227917,-1.11125 m 0,-5.7679168 c -1.169458,0 -2.116667,0.9472084 -2.116667,2.1166668 0,1.166812 0.947209,2.116667 2.116667,2.116667 1.169458,0 2.116667,-0.949855 2.116667,-2.116667 0,-1.1694584 -0.947209,-2.1166668 -2.116667,-2.1166668 z m 0,4.7624998 c -1.410229,0 -4.233333,0.706438 -4.233333,2.116667 v 1.5875 h 8.466666 v -1.5875 c 0,-1.410229 -2.823104,-2.116667 -4.233333,-2.116667 z"
     id="path1241"
     style="stroke-width:0.26458332;fill:#e6e6e6" />
  <path
     inkscape:connector-curvature="0"
     d="m 18.734031,7.5525459 c -2.923646,0 -5.291667,2.3680208 -5.291667,5.2916671 0,2.923645 2.368021,5.291666 5.291667,5.291666 2.923646,0 5.291667,-2.368021 5.291667,-5.291666 0,-2.9236463 -2.368021,-5.2916671 -5.291667,-5.2916671 z m 0.529167,7.9375001 h -1.058334 v -3.175 h 1.058334 z m 0,-4.233333 h -1.058334 v -1.058334 h 1.058334 z"
     id="path1275"
     style="stroke-width:0.26458332;fill:#e6e6e6" />
  <path
     inkscape:connector-curvature="0"
     d="m 96.955554,17.077546 v -3.175 h 2.116666 v 3.175 h 2.64583 v -4.233333 h 1.5875 L 98.013887,8.0817126 92.72222,12.844213 h 1.5875 v 4.233333 z"
     id="path1289"
     style="stroke-width:0.26458332;fill:#e6e6e6" />
  <path
     inkscape:connector-curvature="0"
     d="m 77.250114,15.632921 3.27025,1.973791 -0.865188,-3.720041 2.886605,-2.500313 -3.804709,-0.328083 -1.486958,-3.5057291 -1.486958,3.5057291 -3.804709,0.328083 2.886604,2.500313 -0.865187,3.720041 z"
     id="path1305"
     style="stroke-width:0.26458332;fill:#e6e6e6" />
  <path
     inkscape:connector-curvature="0"
     d="m 39.626819,12.844213 h -2.645833 v 2.645833 h 2.645833 z M 39.097653,7.0233793 V 8.0817126 H 34.864319 V 7.0233793 h -1.058333 v 1.0583333 h -0.529167 c -0.584729,0 -1.053041,0.4736041 -1.053041,1.0583333 l -0.0053,7.4083331 c 0,0.584729 0.473604,1.058333 1.058333,1.058333 h 7.408334 c 0.584729,0 1.058333,-0.473604 1.058333,-1.058333 V 9.1400459 c 0,-0.5847292 -0.473604,-1.0583333 -1.058333,-1.0583333 H 40.155986 V 7.0233793 Z m 1.5875,9.5249997 h -7.408334 v -5.820833 h 7.408334 z"
     id="path1337"
     style="stroke-width:0.26458332;fill:#e6e6e6" />
  <path
     inkscape:connector-curvature="0"
     d="m 132.89136,13.687982 h 4.23333 V 8.3963152 h -4.23333 z m 0,4.233333 h 4.23333 v -3.175 h -4.23333 z m 5.29167,0 h 4.23333 v -5.291667 h -4.23333 z m 0,-9.5249998 v 3.1749998 h 4.23333 V 8.3963152 Z"
     id="path1355"
     style="stroke-width:0.26458332;fill:#e6e6e6" />
  <path
     inkscape:connector-curvature="0"
     d="m 162.65096,9.6692126 h -1.15623 c 0.0582,-0.1666875 0.0979,-0.3439584 0.0979,-0.5291667 0,-0.8757708 -0.71173,-1.5875 -1.5875,-1.5875 -0.55298,0 -1.03981,0.2831042 -1.32292,0.7117292 l -0.26458,0.3598333 -0.26458,-0.3598333 c -0.28311,-0.428625 -0.76994,-0.7117292 -1.32292,-0.7117292 -0.87577,0 -1.5875,0.7117292 -1.5875,1.5875 0,0.1852083 0.037,0.3624792 0.0979,0.5291667 h -1.15623 c -0.58473,0 -1.05305,0.4736044 -1.05305,1.0583334 l -0.005,5.820833 c 0,0.584729 0.47361,1.058333 1.05834,1.058333 h 8.46666 c 0.58473,0 1.05834,-0.473604 1.05834,-1.058333 v -5.820833 c 0,-0.584729 -0.47361,-1.0583334 -1.05834,-1.0583334 z m -2.64583,-1.0583334 c 0.29104,0 0.52917,0.238125 0.52917,0.5291667 0,0.2910417 -0.23813,0.5291667 -0.52917,0.5291667 -0.29104,0 -0.52917,-0.238125 -0.52917,-0.5291667 0,-0.2910417 0.23813,-0.5291667 0.52917,-0.5291667 z m -3.175,0 c 0.29104,0 0.52917,0.238125 0.52917,0.5291667 0,0.2910417 -0.23813,0.5291667 -0.52917,0.5291667 -0.29104,0 -0.52917,-0.238125 -0.52917,-0.5291667 0,-0.2910417 0.23813,-0.5291667 0.52917,-0.5291667 z m 5.82083,7.9374998 h -8.46666 v -1.058333 h 8.46666 z m 0,-2.645833 h -8.46666 v -3.175 h 2.68816 l -1.10066,1.500187 0.85989,0.61648 1.25677,-1.711855 0.52917,-0.719666 0.52917,0.719666 1.25677,1.711855 0.85989,-0.61648 -1.10066,-1.500187 h 2.68816 z"
     id="path1385"
     style="stroke-width:0.26458332;fill:#e6e6e6" />
  <g
     id="g1415"
     transform="matrix(0.26458333,0,0,0.26458333,172.08766,6.4942126)"
     style="fill:#e6e6e6">
    <path
       id="path1403"
       d="m 22,18 h 4 v -6 h 6 V 8 H 26 V 2 h -4 v 6 h -6 v 4 h 6 z m -8,18 c -2.21,0 -3.98,1.79 -3.98,4 0,2.21 1.77,4 3.98,4 2.21,0 4,-1.79 4,-4 0,-2.21 -1.79,-4 -4,-4 z m 20,0 c -2.21,0 -3.98,1.79 -3.98,4 0,2.21 1.77,4 3.98,4 2.21,0 4,-1.79 4,-4 0,-2.21 -1.79,-4 -4,-4 z M 14.35,29.5 c 0,-0.09 0.02,-0.17 0.06,-0.24 L 16.21,26 h 14.9 c 1.5,0 2.81,-0.83 3.5,-2.06 L 42.33,9.92 38.83,8 H 38.82 L 36.61,12 31.1,22 H 17.07 L 16.81,21.46 12.32,12 10.42,8 8.53,4 H 2 v 4 h 4 l 7.2,15.17 -2.71,4.9 C 10.18,28.65 10,29.3 10,30 c 0,2.21 1.79,4 4,4 H 38 V 30 H 14.85 c -0.28,0 -0.5,-0.22 -0.5,-0.5 z"
       inkscape:connector-curvature="0"
       style="fill:#e6e6e6" />
  </g>
  <g
     id="g1431"
     transform="matrix(0.26458333,0,0,0.26458333,208.3525,6.4942126)"
     style="fill:#e6e6e6">
    <path
       id="path1417"
       d="M 45.4,37.9 27.1,19.6 C 28.9,15 27.9,9.5 24.2,5.8 20.2,1.8 14.2,1 9.4,3.3 L 18.1,12 12,18.1 3.3,9.4 C 1,14.2 1.8,20.2 5.8,24.2 c 3.7,3.7 9.2,4.7 13.8,2.9 l 18.3,18.3 c 0.8,0.8 2.1,0.8 2.8,0 l 4.7,-4.7 c 0.8,-0.7 0.8,-2 0,-2.8 z"
       inkscape:connector-curvature="0"
       style="fill:#e6e6e6" />
  </g>
  <path
     id="path1433"
     d="m 230.1276,10.537045 c 0.11906,-0.264583 0.1905,-0.5582697 0.1905,-0.8678327 0,-1.1694583 -0.94721,-2.1166673 -2.11667,-2.1166673 -1.16946,0 -2.11667,0.947209 -2.11667,2.1166673 0,1.1694577 0.94721,2.1166667 2.11667,2.1166667 0.30956,0 0.60325,-0.07144 0.86783,-0.1905 l 1.24884,1.248833 -1.24884,1.248834 c -0.26458,-0.119063 -0.55827,-0.1905 -0.86783,-0.1905 -1.16946,0 -2.11667,0.947204 -2.11667,2.116664 0,1.16946 0.94721,2.11667 2.11667,2.11667 1.16946,0 2.11667,-0.94721 2.11667,-2.11667 0,-0.30956 -0.0714,-0.60325 -0.1905,-0.86783 l 1.24883,-1.248834 3.70417,3.704164 h 1.5875 v -0.52916 z m -1.92617,0.1905 c -0.58473,0 -1.05833,-0.473604 -1.05833,-1.0583327 0,-0.5847293 0.4736,-1.0583333 1.05833,-1.0583333 0.58473,0 1.05833,0.473604 1.05833,1.0583333 0,0.5847287 -0.4736,1.0583327 -1.05833,1.0583327 z m 0,6.350005 c -0.58473,0 -1.05833,-0.47361 -1.05833,-1.05834 0,-0.58473 0.4736,-1.05833 1.05833,-1.05833 0.58473,0 1.05833,0.4736 1.05833,1.05833 0,0.58473 -0.4736,1.05834 -1.05833,1.05834 z m 3.175,-3.968754 c -0.14552,0 -0.26458,-0.119063 -0.26458,-0.264584 0,-0.145521 0.11906,-0.264583 0.26458,-0.264583 0.14552,0 0.26458,0.119062 0.26458,0.264583 0,0.145521 -0.11906,0.264584 -0.26458,0.264584 z m 3.70417,-5.027084 -3.175,3.175 1.05833,1.058333 3.70417,-3.704166 V 8.081712 Z"
     inkscape:connector-curvature="0"
     style="stroke-width:0.26458332;fill:#e6e6e6" />
  <path
     id="path1444"
     d="m 261.92113,16.150838 v 1.98438 h 1.98438 l 5.85522,-5.85523 -1.98437,-1.98437 z m 9.3689,-5.40014 c 0.20637,-0.20638 0.20637,-0.5424 0,-0.74877 l -1.23561,-1.23561 c -0.20637,-0.20637 -0.54239,-0.20637 -0.74877,0 l -0.96837,0.96838 1.98437,1.98437 z"
     inkscape:connector-curvature="0"
     style="stroke-width:0.26458332;fill:#e6e6e6" />
  <path
     id="path1455"
     d="m 118.36306,10.198379 h -1.05833 v 2.116667 h -2.11667 v 1.058333 h 2.11667 v 2.116667 h 1.05833 v -2.116667 h 2.11667 v -1.058333 h -2.11667 z m -0.52917,-2.6458331 c -2.92364,0 -5.29166,2.3680204 -5.29166,5.2916661 0,2.923646 2.36802,5.291667 5.29166,5.291667 2.92365,0 5.29167,-2.368021 5.29167,-5.291667 0,-2.9236457 -2.36802,-5.2916661 -5.29167,-5.2916661 z m 0,9.5249991 c -2.33362,0 -4.23333,-1.899708 -4.23333,-4.233333 0,-2.333625 1.89971,-4.2333331 4.23333,-4.2333331 2.33363,0 4.23334,1.8997081 4.23334,4.2333331 0,2.333625 -1.89971,4.233333 -4.23334,4.233333 z"
     inkscape:connector-curvature="0"
     style="stroke-width:0.26458332;fill:#e6e6e6" />
  <path
     id="path1466"
     d="m 200.48881,8.6108795 h -8.46667 c -0.58473,0 -1.05304,0.473604 -1.05304,1.0583328 l -0.005,6.3499997 c 0,0.584729 0.4736,1.058333 1.05833,1.058333 h 8.46667 c 0.58473,0 1.05833,-0.473604 1.05833,-1.058333 V 9.6692123 c 0,-0.5847288 -0.4736,-1.0583328 -1.05833,-1.0583328 z m 0,2.1166655 -4.23334,2.645834 -4.23333,-2.645834 V 9.6692123 l 4.23333,2.6458327 4.23334,-2.6458327 z"
     inkscape:connector-curvature="0"
     style="stroke-width:0.26458332;fill:#e6e6e6" />
  <path
     id="path1477"
     d="m 253.32755,8.0817125 h -7.41363 c -0.58473,0 -1.04775,0.4736 -1.04775,1.05833 l -0.005,7.4083395 c 0,0.58473 0.46831,1.05833 1.05304,1.05833 h 7.41363 c 0.58473,0 1.05833,-0.4736 1.05833,-1.05833 V 9.1400425 c 0,-0.58473 -0.4736,-1.05833 -1.05833,-1.05833 z m 0,6.3499995 h -2.11667 c 0,0.87577 -0.71173,1.5875 -1.5875,1.5875 -0.87577,0 -1.5875,-0.71173 -1.5875,-1.5875 h -2.12196 V 9.1400425 h 7.41363 z m -1.5875,-2.64583 h -1.05834 v -1.5875 h -2.11666 v 1.5875 h -1.05834 l 2.11667,2.11666 z"
     inkscape:connector-curvature="0"
     style="stroke-width:0.26458332;fill:#e6e6e6" />
  <path
     id="path1488"
     d="m 135.32262,24.734605 v -1.5875 l -3.70417,3.704167 3.70417,3.704167 v -1.5875 l -2.11667,-2.116667 z m 3.175,0.529167 v -2.116667 l -3.70417,3.704167 3.70417,3.704167 v -2.169584 c 2.64583,0 4.49792,0.846667 5.82083,2.69875 -0.52916,-2.645833 -2.11666,-5.291666 -5.82083,-5.820833 z"
     inkscape:connector-curvature="0"
     style="stroke-width:0.26458332;fill:#e6e6e6" />
  <path
     inkscape:connector-curvature="0"
     d="m 101.54558,192.56784 h -7.408337 c -0.875771,0 -1.5875,0.71173 -1.5875,1.5875 v 3.175 h 2.116667 v 2.11667 h 6.35 v -2.11667 h 2.11667 v -3.175 c 0,-0.87577 -0.71173,-1.5875 -1.5875,-1.5875 z m -1.587503,5.82084 h -4.233334 v -2.64584 h 4.233334 z m 1.587503,-3.70417 c -0.29369,0 -0.52917,-0.23548 -0.52917,-0.52917 0,-0.29368 0.23548,-0.52916 0.52917,-0.52916 0.29368,0 0.52916,0.23548 0.52916,0.52916 0,0.29369 -0.23548,0.52917 -0.52916,0.52917 z m -0.52917,-4.7625 h -6.35 v 2.11667 h 6.35 z"
     id="path836-3"
     style="stroke-width:0.26458332;fill:#e6e6e6" />
  <path
     inkscape:connector-curvature="0"
     d="m 117.4813,189.92201 h -1.05834 v 5.29167 h 1.05834 z m 2.55852,1.14565 -0.74877,0.74877 c 0.83079,0.67998 1.36525,1.7092 1.36525,2.86808 0,2.04523 -1.65894,3.70417 -3.70417,3.70417 -2.04523,0 -3.70417,-1.65894 -3.70417,-3.70417 0,-1.15888 0.53446,-2.1881 1.36525,-2.86808 l -0.74877,-0.74877 c -1.02129,0.87312 -1.67481,2.16693 -1.67481,3.61685 0,2.62996 2.13254,4.7625 4.7625,4.7625 2.62996,0 4.7625,-2.13254 4.7625,-4.7625 0,-1.44992 -0.65352,-2.74373 -1.67481,-3.61685 z"
     id="path854"
     style="stroke-width:0.26458332;fill:#e6e6e6" />
  <path
     inkscape:connector-curvature="0"
     d="m 279.42362,173.96144 h -1.05833 v 2.64583 h 0.005 l -0.005,4.7625 c 0,0.58473 0.4736,1.05834 1.05833,1.05834 h 9.525 v -1.05834 h -9.525 z m 10.58334,-1.05833 h -4.23334 l -1.05833,-1.05834 h -3.175 c -0.58473,0 -1.05304,0.47361 -1.05304,1.05834 l -0.005,6.35 c 0,0.58473 0.4736,1.05833 1.05833,1.05833 h 8.46667 c 0.58473,0 1.05833,-0.4736 1.05833,-1.05833 v -5.29167 c 0,-0.58473 -0.4736,-1.05833 -1.05833,-1.05833 z m -7.9375,5.82083 2.38125,-3.175 1.85208,2.3839 1.32292,-1.59015 1.85208,2.38125 z"
     id="path870"
     style="stroke-width:0.26458332;fill:#e6e6e6" />
  <path
     inkscape:connector-curvature="0"
     d="m 192.33669,193.09701 h 2.11666 v -1.5875 h 1.5875 l -2.64583,-2.64583 -2.64583,2.64583 h 1.5875 z m -0.52917,0.52917 h -1.5875 v -1.5875 l -2.64583,2.64583 2.64583,2.64583 v -1.5875 h 1.5875 z m 7.40833,1.05833 -2.64583,-2.64583 v 1.5875 h -1.5875 v 2.11666 h 1.5875 v 1.5875 z m -4.7625,1.5875 h -2.11666 v 1.5875 h -1.5875 l 2.64583,2.64583 2.64583,-2.64583 h -1.5875 z"
     id="path900"
     style="stroke-width:0.26458332;fill:#e6e6e6" />
  <path
     id="path922"
     d="m 248.61051,197.59493 c 0.58208,0 1.05833,-0.47625 1.05833,-1.05833 0,-0.58209 -0.47625,-1.05834 -1.05833,-1.05834 -0.58208,0 -1.05833,0.47625 -1.05833,1.05834 0,0.58208 0.47625,1.05833 1.05833,1.05833 z m 3.175,-4.7625 h -0.52917 v -1.05833 c 0,-1.4605 -1.18533,-2.64584 -2.64583,-2.64584 -1.4605,0 -2.64583,1.18534 -2.64583,2.64584 v 1.05833 h -0.52917 c -0.58208,0 -1.05833,0.47625 -1.05833,1.05833 v 5.29167 c 0,0.58208 0.47625,1.05833 1.05833,1.05833 h 6.35 c 0.58208,0 1.05833,-0.47625 1.05833,-1.05833 v -5.29167 c 0,-0.58208 -0.47625,-1.05833 -1.05833,-1.05833 z m -4.81542,-1.05833 c 0,-0.90488 0.73554,-1.64042 1.64042,-1.64042 0.90487,0 1.64042,0.73554 1.64042,1.64042 v 1.05833 h -3.28084 z m 4.81542,7.40833 h -6.35 v -5.29167 h 6.35 z"
     clip-path="url(#b)"
     inkscape:connector-curvature="0"
     style="stroke-width:0.26458332;fill:#e6e6e6" />
  <path
     style="fill:none;stroke-width:0.26458332"
     inkscape:connector-curvature="0"
     d="m 167.9343,188.33451 h 12.7 v 12.7 h -12.7 z"
     id="path932" />
  <path
     inkscape:connector-curvature="0"
     d="m 175.6522,192.56784 -1.3679,1.3679 -1.3679,-1.3679 -0.74877,0.74877 1.3679,1.3679 -1.3679,1.3679 0.74877,0.74877 1.3679,-1.3679 1.3679,1.3679 0.74877,-0.74877 -1.3679,-1.3679 1.3679,-1.3679 z m -1.3679,-3.175 c -2.92365,0 -5.29167,2.36802 -5.29167,5.29167 0,2.92365 2.36802,5.29167 5.29167,5.29167 2.92365,0 5.29167,-2.36802 5.29167,-5.29167 0,-2.92365 -2.36802,-5.29167 -5.29167,-5.29167 z m 0,9.525 c -2.33363,0 -4.23333,-1.89971 -4.23333,-4.23333 0,-2.33363 1.8997,-4.23333 4.23333,-4.23333 2.33362,0 4.23333,1.8997 4.23333,4.23333 0,2.33362 -1.89971,4.23333 -4.23333,4.23333 z"
     id="path934"
     style="stroke-width:0.26458332;fill:#e6e6e6" />
  <path
     inkscape:connector-curvature="0"
     d="m 207.47866,198.38868 h 10.05416 v 1.05833 h -10.05416 z m 10.35579,-4.95565 c -0.11377,-0.42333 -0.54769,-0.67469 -0.97102,-0.56092 l -2.81252,0.75407 -3.65125,-3.40519 -1.0213,0.27517 2.19075,3.79677 -2.62995,0.70379 -1.03982,-0.81756 -0.76729,0.20637 0.96309,1.66952 0.40481,0.70115 0.84931,-0.22754 2.81252,-0.75407 2.29923,-0.61648 2.81252,-0.75406 c 0.42333,-0.11377 0.67469,-0.54769 0.56092,-0.97102 z"
     clip-path="url(#b)"
     id="path954"
     style="stroke-width:0.26458332;fill:#e6e6e6" />
  <path
     inkscape:connector-curvature="0"
     d="m 246.51804,177.00415 c -0.36513,0 -0.66146,0.29633 -0.66146,0.66146 0,0.36512 0.29633,0.66145 0.66146,0.66145 0.36512,0 0.66146,-0.29633 0.66146,-0.66145 0,-0.36513 -0.29634,-0.66146 -0.66146,-0.66146 z m 3.175,0 c -0.36513,0 -0.66146,0.29633 -0.66146,0.66146 0,0.36512 0.29633,0.66145 0.66146,0.66145 0.36512,0 0.66146,-0.29633 0.66146,-0.66145 0,-0.36513 -0.29634,-0.66146 -0.66146,-0.66146 z m -1.5875,-5.15938 c -2.92365,0 -5.29167,2.36802 -5.29167,5.29167 0,2.92365 2.36802,5.29167 5.29167,5.29167 2.92365,0 5.29167,-2.36802 5.29167,-5.29167 0,-2.92365 -2.36802,-5.29167 -5.29167,-5.29167 z m 0,9.525 c -2.33363,0 -4.23333,-1.89971 -4.23333,-4.23333 0,-0.15346 0.0106,-0.30427 0.0265,-0.45244 1.24619,-0.55298 2.24103,-1.57427 2.75696,-2.84162 0.95779,1.34937 2.53207,2.23573 4.31536,2.23573 0.4101,0 0.80962,-0.0503 1.19062,-0.14023 0.11377,0.381 0.17727,0.78316 0.17727,1.19856 0,2.33362 -1.89971,4.23333 -4.23333,4.23333 z"
     id="path985"
     style="stroke-width:0.26458332;fill:#e6e6e6" />
  <path
     inkscape:connector-curvature="0"
     d="m 230.7037,176.55436 c -0.32015,0 -0.58208,0.26193 -0.58208,0.58208 0,0.32015 0.26193,0.58208 0.58208,0.58208 0.32279,0 0.58208,-0.26193 0.58208,-0.58208 0,-0.32015 -0.25929,-0.58208 -0.58208,-0.58208 z m 0,-4.70959 c -2.92365,0 -5.29167,2.36802 -5.29167,5.29167 0,2.921 2.36802,5.29167 5.29167,5.29167 2.92365,0 5.29167,-2.37067 5.29167,-5.29167 0,-2.92365 -2.36802,-5.29167 -5.29167,-5.29167 z m 1.15887,6.45054 -4.33387,2.01613 2.01612,-4.33388 4.33388,-2.01612 z"
     id="path1001"
     style="stroke-width:0.26458332;fill:#e6e6e6" />
  <path
     style="fill:none;stroke-width:0.26458332"
     inkscape:connector-curvature="0"
     d="m 224.3537,170.78644 h 12.7 v 12.7 h -12.7 z"
     id="path1003" />
  <path
     inkscape:connector-curvature="0"
     d="m 159.67151,194.15534 h -0.79375 v -2.11666 c 0,-0.58473 -0.47361,-1.05834 -1.05834,-1.05834 h -2.11666 v -0.79375 c 0,-0.73025 -0.59267,-1.32291 -1.32292,-1.32291 -0.73025,0 -1.32292,0.59266 -1.32292,1.32291 v 0.79375 h -2.11666 c -0.58473,0 -1.05305,0.47361 -1.05305,1.05834 l -0.003,2.01083 h 0.7911 c 0.78846,0 1.42875,0.64029 1.42875,1.42875 0,0.78846 -0.64029,1.42875 -1.42875,1.42875 h -0.7911 l -0.003,2.01083 c 0,0.58473 0.47361,1.05834 1.05834,1.05834 h 2.01083 v -0.79375 c 0,-0.78846 0.64029,-1.42875 1.42875,-1.42875 0.78846,0 1.42875,0.64029 1.42875,1.42875 v 0.79375 h 2.01083 c 0.58473,0 1.05834,-0.47361 1.05834,-1.05834 v -2.11666 h 0.79375 c 0.73025,0 1.32291,-0.59267 1.32291,-1.32292 0,-0.73025 -0.59266,-1.32292 -1.32291,-1.32292 z"
     id="path1019"
     style="stroke-width:0.26458332;fill:#e6e6e6" />
  <path
     inkscape:connector-curvature="0"
     d="m 265.73915,171.84477 c -2.92365,0 -5.29167,2.36802 -5.29167,5.29167 0,2.921 2.36802,5.29167 5.29167,5.29167 2.921,0 5.29167,-2.37067 5.29167,-5.29167 0,-2.92365 -2.37067,-5.29167 -5.29167,-5.29167 z m -1.05833,7.9375 -2.64584,-2.64583 0.74877,-0.74877 1.89707,1.89706 4.01373,-4.01373 0.74877,0.74877 z"
     id="path1035"
     style="stroke-width:0.26458332;fill:#e6e6e6" />
  <path
     inkscape:connector-curvature="0"
     d="m 215.00258,172.90311 h -5.29166 c -0.58473,0 -1.05305,0.4736 -1.05305,1.05833 l -0.005,8.46667 3.70417,-1.5875 3.70417,1.5875 v -8.46667 c 0,-0.58473 -0.47361,-1.05833 -1.05834,-1.05833 z m 0,7.9375 -2.64583,-1.15094 -2.64583,1.15094 v -6.87917 h 5.29166 z"
     id="path1049"
     style="stroke-width:0.26458332;fill:#e6e6e6" />
  <path
     style="fill:none;stroke-width:0.26458332"
     inkscape:connector-curvature="0"
     d="m 206.00675,171.31561 h 12.7 v 12.7 h -12.7 z"
     id="path1051" />
  <path
     inkscape:connector-curvature="0"
     d="m 139.76703,192.56784 -2.11667,2.11667 h 1.5875 c 0,1.75419 -1.42081,3.175 -3.175,3.175 -0.5371,0 -1.03981,-0.13494 -1.48431,-0.36777 l -0.77259,0.77258 c 0.65617,0.41011 1.42611,0.65352 2.2569,0.65352 2.33892,0 4.23333,-1.89441 4.23333,-4.23333 h 1.5875 z m -6.87917,2.11667 c 0,-1.75419 1.42081,-3.175 3.175,-3.175 0.5371,0 1.03981,0.13494 1.48431,0.36777 l 0.77259,-0.77258 c -0.65617,-0.41011 -1.42611,-0.65352 -2.2569,-0.65352 -2.33892,0 -4.23333,1.89441 -4.23333,4.23333 h -1.5875 l 2.11666,2.11667 2.11667,-2.11667 z"
     id="path1065"
     style="stroke-width:0.26458332;fill:#e6e6e6" />
  <path
     inkscape:connector-curvature="0"
     d="m 236.90813,191.36134 -2.43152,-2.03993 -0.67998,0.80962 2.43152,2.03994 z m -7.47184,-1.23296 -0.67998,-0.80962 -2.43152,2.03994 0.67998,0.80962 z m 2.17752,0.3228 c -2.6326,0 -4.75985,2.13254 -4.75985,4.7625 0,2.62995 2.12725,4.7625 4.75985,4.7625 2.63261,0 4.76515,-2.13255 4.76515,-4.7625 0,-2.62996 -2.13254,-4.7625 -4.76515,-4.7625 z m 0.003,8.46666 c -2.04523,0 -3.70417,-1.65893 -3.70417,-3.70416 0,-2.04523 1.65894,-3.70417 3.70417,-3.70417 2.04523,0 3.70417,1.65894 3.70417,3.70417 0,2.04523 -1.6563,3.70416 -3.70417,3.70416 z m -0.77523,-2.89718 -1.12183,-1.12184 -0.56092,0.56092 1.68275,1.68275 3.17765,-3.17765 -0.56092,-0.56091 z"
     id="path1083"
     style="stroke-width:0.26458332;fill:#e6e6e6" />
  <path
     inkscape:connector-curvature="0"
     d="m 280.48196,195.74284 h 2.11666 v -2.11666 h -2.11666 z m 0,2.64584 h 2.11666 v -2.11667 h -2.11666 z m 0,-5.29167 h 2.11666 v -2.11667 h -2.11666 z m 2.64583,2.64583 h 6.35 v -2.11666 h -6.35 z m 0,2.64584 h 6.35 v -2.11667 h -6.35 z m 0,-7.40834 v 2.11667 h 6.35 v -2.11667 z"
     id="path1097"
     style="stroke-width:0.26458332;fill:#e6e6e6" />
  <path
     inkscape:connector-curvature="0"
     d="m 82.111278,190.33665 h -0.529167 v -1.05833 h -1.058333 v 1.05833 h -4.233334 v -1.05833 h -1.058333 v 1.05833 h -0.529167 c -0.584729,0 -1.058333,0.4736 -1.058333,1.05833 v 7.40834 c 0,0.58473 0.473604,1.05833 1.058333,1.05833 h 7.408334 c 0.584729,0 1.058333,-0.4736 1.058333,-1.05833 v -7.40834 c 0,-0.58473 -0.473604,-1.05833 -1.058333,-1.05833 z m -3.704167,1.5875 c 0.875771,0 1.5875,0.71173 1.5875,1.5875 0,0.87842 -0.711729,1.5875 -1.5875,1.5875 -0.875771,0 -1.5875,-0.70908 -1.5875,-1.5875 0,-0.87577 0.711729,-1.5875 1.5875,-1.5875 z m 3.175,6.35 h -6.35 v -0.52917 c 0,-1.05833 2.116667,-1.64041 3.175,-1.64041 1.058333,0 3.175,0.58208 3.175,1.64041 z"
     id="path884"
     style="stroke-width:0.26458332;fill:#e6e6e6" />
  <path
     inkscape:connector-curvature="0"
     d="m 62.875315,192.41435 h -1.058333 v 4.7625 h -6.879167 v 1.05833 c 0,0.29104 0.238125,0.52917 0.529167,0.52917 h 5.820833 l 2.116667,2.11667 v -7.9375 c 0,-0.29105 -0.238125,-0.52917 -0.529167,-0.52917 z m -2.116667,3.175 v -4.7625 c 0,-0.29104 -0.238125,-0.52917 -0.529166,-0.52917 h -6.879167 c -0.291042,0 -0.529167,0.23813 -0.529167,0.52917 v 7.40833 l 2.116667,-2.11666 h 5.291667 c 0.291041,0 0.529166,-0.23813 0.529166,-0.52917 z"
     id="path1115"
     style="stroke-width:0.26458332;fill:#e6e6e6" />
  <path
     inkscape:connector-curvature="0"
     d="m 37.966875,190.13658 h -1.058334 v 5.29167 h 1.058334 z m 2.55852,1.14565 -0.74877,0.74877 c 0.830791,0.67998 1.36525,1.7092 1.36525,2.86808 0,2.04523 -1.658938,3.70417 -3.704167,3.70417 -2.045229,0 -3.704167,-1.65894 -3.704167,-3.70417 0,-1.15888 0.534459,-2.1881 1.36525,-2.86808 l -0.748771,-0.74877 c -1.021291,0.87312 -1.674812,2.16693 -1.674812,3.61685 0,2.62996 2.132542,4.7625 4.7625,4.7625 2.629958,0 4.7625,-2.13254 4.7625,-4.7625 0,-1.44992 -0.653521,-2.74373 -1.674813,-3.61685 z"
     id="path1131"
     style="stroke-width:0.26458332;fill:#e6e6e6" />
  <path
     style="fill:none;stroke-width:0.26458332"
     inkscape:connector-curvature="0"
     d="m 186.816,170.8168 h 12.7 v 12.7 h -12.7 z"
     id="path1161" />
  <path
     inkscape:connector-curvature="0"
     d="m 193.16335,171.87513 c -2.92364,0 -5.28902,2.36802 -5.28902,5.29167 0,2.92365 2.36538,5.29167 5.28902,5.29167 2.92365,0 5.29432,-2.36802 5.29432,-5.29167 0,-2.92365 -2.37067,-5.29167 -5.29432,-5.29167 z m 3.66448,3.175 h -1.56104 c -0.17198,-0.66146 -0.41275,-1.29646 -0.73025,-1.88383 0.97367,0.33337 1.78329,1.00806 2.29129,1.88383 z m -3.66183,-2.09814 c 0.44185,0.635 0.78581,1.34143 1.01071,2.09814 h -2.02142 c 0.2249,-0.75671 0.56886,-1.46314 1.01071,-2.09814 z m -4.09575,5.27314 c -0.0873,-0.33866 -0.13758,-0.69321 -0.13758,-1.05833 0,-0.36513 0.0503,-0.71967 0.13758,-1.05833 h 1.78594 c -0.0423,0.3466 -0.0714,0.6985 -0.0714,1.05833 0,0.35983 0.0291,0.71173 0.0741,1.05833 z m 0.43127,1.05834 h 1.56104 c 0.17198,0.66145 0.41275,1.29645 0.73025,1.88648 -0.97366,-0.33338 -1.78329,-1.01071 -2.29129,-1.88648 z m 1.56104,-4.23334 h -1.56104 c 0.508,-0.87577 1.31763,-1.5531 2.29129,-1.88648 -0.3175,0.59002 -0.55827,1.22502 -0.73025,1.88648 z m 2.10344,6.33148 c -0.43921,-0.635 -0.78317,-1.34144 -1.01071,-2.09814 h 2.02142 c -0.22754,0.7567 -0.5715,1.46314 -1.01071,2.09814 z m 1.23825,-3.15648 h -2.4765 c -0.0503,-0.3466 -0.0847,-0.6985 -0.0847,-1.05833 0,-0.35983 0.0344,-0.71173 0.0847,-1.05833 h 2.4765 c 0.0503,0.3466 0.0847,0.6985 0.0847,1.05833 0,0.35983 -0.0344,0.71173 -0.0847,1.05833 z m 0.13494,2.94217 c 0.3175,-0.59002 0.55827,-1.22238 0.73025,-1.88383 h 1.56104 c -0.51065,0.87577 -1.32027,1.55045 -2.29129,1.88383 z m 0.93398,-2.94217 c 0.0423,-0.3466 0.0741,-0.6985 0.0741,-1.05833 0,-0.35983 -0.0291,-0.71173 -0.0741,-1.05833 h 1.78593 c 0.0873,0.33866 0.14023,0.6932 0.14023,1.05833 0,0.36512 -0.0503,0.71967 -0.14023,1.05833 z"
     id="path1163"
     style="stroke-width:0.26458332;fill:#e6e6e6" />
  <path
     inkscape:connector-curvature="0"
     d="m 22.1832,192.01613 -2.992437,-2.99508 -2.992438,2.99508 c -1.653645,1.65365 -1.653645,4.33388 0,5.98752 0.8255,0.8255 1.910292,1.2409 2.992438,1.2409 1.082146,0 2.166937,-0.41275 2.992437,-1.2409 1.653646,-1.65364 1.653646,-4.33387 0,-5.98752 z m -2.992437,6.16744 c -0.849313,0 -1.645708,-0.33073 -2.243667,-0.93133 -0.600604,-0.59796 -0.931333,-1.39436 -0.931333,-2.24367 0,-0.84931 0.330729,-1.64571 0.931333,-2.24631 l 2.243667,-2.24367 z"
     id="path1179"
     style="stroke-width:0.26458332;fill:#e6e6e6" />
  <g
     id="g900"
     transform="matrix(1.5274767,-0.11124073,0.11124073,1.5274767,-23.990072,8.1894195)">
    <rect
       y="33.100349"
       x="13.229165"
       height="88.810921"
       width="190.79062"
       id="rect818"
       style="color:#000000;overflow:visible;opacity:1;fill:#cccccc;fill-opacity:1;stroke:none;stroke-width:0.26458332;stroke-linecap:round;stroke-linejoin:round;stroke-miterlimit:4;stroke-dasharray:none;stroke-dashoffset:0;stroke-opacity:1" />
    <rect
       y="20.629396"
       x="13.229166"
       height="12.470953"
       width="190.84943"
       id="rect816"
       style="color:#000000;overflow:visible;opacity:1;fill:#2a7fff;fill-opacity:1;stroke:none;stroke-width:0.26458332;stroke-linecap:round;stroke-linejoin:round;stroke-miterlimit:4;stroke-dasharray:none;stroke-dashoffset:0;stroke-opacity:1" />
    <rect
       y="33.080688"
       x="162.02034"
       height="88.830582"
       width="41.999466"
       id="rect820"
       style="color:#000000;overflow:visible;opacity:1;fill:#b3b3b3;fill-opacity:1;stroke:none;stroke-width:0.26458332;stroke-linecap:round;stroke-linejoin:round;stroke-miterlimit:4;stroke-dasharray:none;stroke-dashoffset:0;stroke-opacity:1" />
    <rect
       y="33.100349"
       x="13.229165"
       height="88.968231"
       width="35.376934"
       id="rect822"
       style="color:#000000;overflow:visible;opacity:1;fill:#808080;fill-opacity:1;stroke:none;stroke-width:0.26458332;stroke-linecap:round;stroke-linejoin:round;stroke-miterlimit:4;stroke-dasharray:none;stroke-dashoffset:0;stroke-opacity:1" />
    <rect
       style="color:#000000;overflow:visible;opacity:1;fill:#cccccc;fill-opacity:1;stroke:none;stroke-width:0.26458332;stroke-linecap:round;stroke-linejoin:round;stroke-miterlimit:4;stroke-dasharray:none;stroke-dashoffset:0;stroke-opacity:1"
       id="rect824"
       width="36.635345"
       height="10.946777"
       x="13.229165"
       y="60.156174" />
    <rect
       y="33.080688"
       x="162.02034"
       height="5.1820221"
       width="42.058273"
       id="rect828"
       style="color:#000000;overflow:visible;opacity:1;fill:#666666;fill-opacity:1;stroke:none;stroke-width:0.26458332;stroke-linecap:round;stroke-linejoin:round;stroke-miterlimit:4;stroke-dasharray:none;stroke-dashoffset:0;stroke-opacity:1" />
    <rect
       style="color:#000000;overflow:visible;opacity:1;fill:#666666;fill-opacity:1;stroke:none;stroke-width:0.26458332;stroke-linecap:round;stroke-linejoin:round;stroke-miterlimit:4;stroke-dasharray:none;stroke-dashoffset:0;stroke-opacity:1"
       id="rect830"
       width="41.999435"
       height="5.1623611"
       x="162.02034"
       y="69.583397" />
    <rect
       y="39.957294"
       x="163.82928"
       height="27.999628"
       width="38.381523"
       id="rect832"
       style="color:#000000;overflow:visible;opacity:1;fill:#666666;fill-opacity:1;stroke:none;stroke-width:0.26458332;stroke-linecap:round;stroke-linejoin:round;stroke-miterlimit:4;stroke-dasharray:none;stroke-dashoffset:0;stroke-opacity:1" />
    <path
       inkscape:connector-curvature="0"
       id="path834"
       d="m 163.90795,66.069312 3.93253,0.471903 4.16849,-3.617928 3.53928,-8.258318 3.14602,-1.730314 3.06738,0.707856 3.53928,5.977448 5.5842,3.381978 5.11228,0.157303 4.24714,-5.190945 1.88762,-12.190849 0.0787,22.179478 h -38.38153 z"
       style="fill:#2a7fff;fill-rule:evenodd;stroke:none;stroke-width:0.26458332px;stroke-linecap:butt;stroke-linejoin:miter;stroke-opacity:1" />
    <path
       d="M 116.78038,67.537879 A 31.426443,31.426443 0 0 1 85.820099,99.423417 31.426443,31.426443 0 0 1 53.934306,68.463401 31.426443,31.426443 0 0 1 84.89406,36.577353 a 31.426443,31.426443 0 0 1 31.8863,30.959492 l -31.423022,0.463536 z"
       sodipodi:end="6.2684349"
       sodipodi:start="6.2684678"
       sodipodi:ry="31.426443"
       sodipodi:rx="31.426443"
       sodipodi:cy="68.000381"
       sodipodi:cx="85.357338"
       sodipodi:type="arc"
       id="path842"
       style="color:#000000;overflow:visible;opacity:1;fill:#ffffff;fill-opacity:1;stroke:none;stroke-width:0.26458332;stroke-linecap:round;stroke-linejoin:round;stroke-miterlimit:4;stroke-dasharray:none;stroke-dashoffset:0;stroke-opacity:1" />
    <path
       d="m 105.31359,50.917508 a 26.269316,26.269316 0 0 1 5.99209,21.176823 L 85.357338,68.000389 Z"
       sodipodi:end="0.15648286"
       sodipodi:start="5.5752088"
       sodipodi:ry="26.269316"
       sodipodi:rx="26.269316"
       sodipodi:cy="68.000389"
       sodipodi:cx="85.357338"
       sodipodi:type="arc"
       id="path836"
       style="color:#000000;overflow:visible;opacity:1;fill:#2a7fff;fill-opacity:1;stroke:none;stroke-width:0.26458332;stroke-linecap:round;stroke-linejoin:round;stroke-miterlimit:4;stroke-dasharray:none;stroke-dashoffset:0;stroke-opacity:1" />
    <path
       style="color:#000000;overflow:visible;opacity:1;fill:#ff7f2a;fill-opacity:1;stroke:none;stroke-width:0.26458332;stroke-linecap:round;stroke-linejoin:round;stroke-miterlimit:4;stroke-dasharray:none;stroke-dashoffset:0;stroke-opacity:1"
       id="path838"
       sodipodi:type="arc"
       sodipodi:cx="85.357338"
       sodipodi:cy="68.000389"
       sodipodi:rx="26.269316"
       sodipodi:ry="26.269316"
       sodipodi:start="1.1424767"
       sodipodi:end="4.9627094"
       d="M 96.268109,91.896665 A 26.269316,26.269316 0 0 1 65.707057,85.434362 26.269316,26.269316 0 0 1 62.930661,54.321167 26.269316,26.269316 0 0 1 91.864626,42.549807 l -6.507288,25.450582 z" />
    <path
       style="color:#000000;overflow:visible;opacity:1;fill:#89a02c;fill-opacity:1;stroke:none;stroke-width:0.26458332;stroke-linecap:round;stroke-linejoin:round;stroke-miterlimit:4;stroke-dasharray:none;stroke-dashoffset:0;stroke-opacity:1"
       id="path840"
       sodipodi:type="arc"
       sodipodi:cx="85.357338"
       sodipodi:cy="68.000389"
       sodipodi:rx="26.269316"
       sodipodi:ry="26.269316"
       sodipodi:start="4.9630919"
       sodipodi:end="5.5802411"
       d="m 91.87436,42.552297 a 26.269316,26.269316 0 0 1 13.52495,8.465853 L 85.357338,68.000389 Z" />
    <path
       style="color:#000000;overflow:visible;opacity:1;fill:#aa0044;fill-opacity:1;stroke:none;stroke-width:0.26458332;stroke-linecap:round;stroke-linejoin:round;stroke-miterlimit:4;stroke-dasharray:none;stroke-dashoffset:0;stroke-opacity:1"
       id="path846"
       sodipodi:type="arc"
       sodipodi:cx="90.001137"
       sodipodi:cy="71.309441"
       sodipodi:rx="26.269316"
       sodipodi:ry="26.269316"
       sodipodi:start="0.18663618"
       sodipodi:end="1.1077588"
       d="M 115.81426,76.183832 A 26.269316,26.269316 0 0 1 101.7348,94.812594 L 90.001137,71.309441 Z" />
    <rect
       y="40.704479"
       x="119.63108"
       height="3.3426526"
       width="6.2527266"
       id="rect850"
       style="color:#000000;overflow:visible;opacity:1;fill:#ff7f2a;fill-opacity:1;stroke:none;stroke-width:0.26458332;stroke-linecap:round;stroke-linejoin:round;stroke-miterlimit:4;stroke-dasharray:none;stroke-dashoffset:0;stroke-opacity:1" />
    <rect
       y="36.732624"
       x="127.06012"
       height="7.3145103"
       width="6.410028"
       id="rect852"
       style="color:#000000;overflow:visible;opacity:1;fill:#ff7f2a;fill-opacity:1;stroke:none;stroke-width:0.26458332;stroke-linecap:round;stroke-linejoin:round;stroke-miterlimit:4;stroke-dasharray:none;stroke-dashoffset:0;stroke-opacity:1" />
    <rect
       style="color:#000000;overflow:visible;opacity:1;fill:#ff7f2a;fill-opacity:1;stroke:none;stroke-width:0.26458332;stroke-linecap:round;stroke-linejoin:round;stroke-miterlimit:4;stroke-dasharray:none;stroke-dashoffset:0;stroke-opacity:1"
       id="rect854"
       width="6.4100342"
       height="6.2527266"
       x="134.53194"
       y="37.794407" />
    <rect
       style="color:#000000;overflow:visible;opacity:1;fill:#ff7f2a;fill-opacity:1;stroke:none;stroke-width:0.26458332;stroke-linecap:round;stroke-linejoin:round;stroke-miterlimit:4;stroke-dasharray:none;stroke-dashoffset:0;stroke-opacity:1"
       id="rect856"
       width="6.2527313"
       height="2.5561411"
       x="141.96788"
       y="41.490986" />
    <path
       sodipodi:nodetypes="ccccc"
       inkscape:connector-curvature="0"
       id="rect858"
       d="m 111.25134,44.047131 h 40.22981 v 1.297735 h -39.08938 z"
       style="color:#000000;overflow:visible;opacity:1;fill:#999999;fill-opacity:1;stroke:none;stroke-width:0.21077435;stroke-linecap:round;stroke-linejoin:round;stroke-miterlimit:4;stroke-dasharray:none;stroke-dashoffset:0;stroke-opacity:1" />
    <rect
       y="102.72051"
       x="52.381332"
       height="16.51664"
       width="107.43678"
       id="rect861"
       style="color:#000000;overflow:visible;opacity:1;fill:#999999;fill-opacity:1;stroke:none;stroke-width:0.26458332;stroke-linecap:round;stroke-linejoin:round;stroke-miterlimit:4;stroke-dasharray:none;stroke-dashoffset:0;stroke-opacity:1" />
    <rect
       y="52.330124"
       x="122.47253"
       height="17.303143"
       width="36.965801"
       id="rect863"
       style="color:#000000;overflow:visible;opacity:1;fill:#b3b3b3;fill-opacity:1;stroke:none;stroke-width:0.26458332;stroke-linecap:round;stroke-linejoin:round;stroke-miterlimit:4;stroke-dasharray:none;stroke-dashoffset:0;stroke-opacity:1" />
    <rect
       style="color:#000000;overflow:visible;opacity:1;fill:#b3b3b3;fill-opacity:1;stroke:none;stroke-width:0.33657056;stroke-linecap:round;stroke-linejoin:round;stroke-miterlimit:4;stroke-dasharray:none;stroke-dashoffset:0;stroke-opacity:1"
       id="rect865"
       width="36.965801"
       height="27.99963"
       x="122.47253"
       y="71.989502" />
    <rect
       y="109.48447"
       x="162.02034"
       height="12.426804"
       width="41.999451"
       id="rect867"
       style="color:#000000;overflow:visible;opacity:1;fill:#2a7fff;fill-opacity:1;stroke:none;stroke-width:0.26458332;stroke-linecap:round;stroke-linejoin:round;stroke-miterlimit:4;stroke-dasharray:none;stroke-dashoffset:0;stroke-opacity:1" />
  </g>
  <path
     id="path1523"
     d="m 270.60169,190.35116 h -7.9375 c -0.36512,0 -0.65352,0.18521 -0.84402,0.46566 l -2.86015,4.29419 2.86015,4.29419 c 0.1905,0.28046 0.4789,0.47096 0.84402,0.47096 h 7.9375 c 0.58473,0 1.05833,-0.47361 1.05833,-1.05834 v -7.40833 c 0,-0.58473 -0.4736,-1.05833 -1.05833,-1.05833 z m -1.5875,6.65956 -0.74877,0.74877 -1.89706,-1.89706 -1.89707,1.89706 -0.74877,-0.74877 1.89707,-1.89706 -1.89707,-1.89707 0.74877,-0.74877 1.89707,1.89707 1.89706,-1.89707 0.74877,0.74877 -1.89706,1.89707 z"
     inkscape:connector-curvature="0"
     style="stroke-width:0.26458332;fill:#e6e6e6" />
</svg>
