<?xml version="1.0" encoding="UTF-8" standalone="no"?>
<!-- Created with Inkscape (http://www.inkscape.org/) -->

<svg
   xmlns:dc="http://purl.org/dc/elements/1.1/"
   xmlns:cc="http://creativecommons.org/ns#"
   xmlns:rdf="http://www.w3.org/1999/02/22-rdf-syntax-ns#"
   xmlns:svg="http://www.w3.org/2000/svg"
   xmlns="http://www.w3.org/2000/svg"
   xmlns:sodipodi="http://sodipodi.sourceforge.net/DTD/sodipodi-0.dtd"
   xmlns:inkscape="http://www.inkscape.org/namespaces/inkscape"
   width="270.93628mm"
   height="88.161911mm"
   viewBox="0 0 270.93628 88.161911"
   version="1.1"
   id="svg4604"
   inkscape:version="0.92.0 r"
   sodipodi:docname="gecko-pipeline.svg">
  <defs
     id="defs4598" />
  <sodipodi:namedview
     id="base"
     pagecolor="#ffffff"
     bordercolor="#666666"
     borderopacity="1.0"
     inkscape:pageopacity="0.0"
     inkscape:pageshadow="2"
     inkscape:zoom="1.4"
     inkscape:cx="486.281"
     inkscape:cy="0.70594256"
     inkscape:document-units="mm"
     inkscape:current-layer="layer1"
     showgrid="false"
     fit-margin-top="0"
     fit-margin-left="0"
     fit-margin-right="0"
     fit-margin-bottom="0"
     inkscape:window-width="2560"
     inkscape:window-height="1311"
     inkscape:window-x="0"
     inkscape:window-y="55"
     inkscape:window-maximized="1" />
  <metadata
     id="metadata4601">
    <rdf:RDF>
      <cc:Work
         rdf:about="">
        <dc:format>image/svg+xml</dc:format>
        <dc:type
           rdf:resource="http://purl.org/dc/dcmitype/StillImage" />
        <dc:title></dc:title>
      </cc:Work>
    </rdf:RDF>
  </metadata>
  <g
     inkscape:label="Layer 1"
     inkscape:groupmode="layer"
     id="layer1"
     transform="translate(38.706238,-34.243172)">
    <rect
       transform="scale(1,-1)"
       y="-122.40508"
       x="-38.706238"
       height="61.543316"
       width="270.93628"
       id="rect7987"
       style="color:#000000;display:inline;overflow:visible;visibility:visible;opacity:1;fill:#aa0000;fill-opacity:1;fill-rule:nonzero;stroke:none;stroke-width:0.33488831;stroke-linecap:round;stroke-linejoin:round;stroke-miterlimit:4;stroke-dasharray:none;stroke-dashoffset:0;stroke-opacity:1;marker:none;enable-background:accumulate" />
    <text
       xml:space="preserve"
       style="font-style:normal;font-weight:normal;font-size:5.29166651px;line-height:6.61458349px;font-family:Sans;letter-spacing:0px;word-spacing:0px;fill:#000000;fill-opacity:1;stroke:none;stroke-width:0.26458332px;stroke-linecap:butt;stroke-linejoin:miter;stroke-opacity:1"
       x="-29.009308"
       y="76.200951"
       id="text8007"><tspan
         sodipodi:role="line"
         id="tspan8005"
         x="-29.009308"
         y="76.200951"
         style="font-style:normal;font-variant:normal;font-weight:bold;font-stretch:normal;font-size:7.76111126px;font-family:'fira sans';-inkscape-font-specification:'fira sans';fill:#ffffff;stroke-width:0.26458332px">DOM tree <tspan
   style="fill:#ff6600;stroke-width:0.26458332px"
   id="tspan8018">-</tspan> Frame tree <tspan
   style="fill:#ff6600;stroke-width:0.26458332px"
   id="tspan8020">-</tspan> Display list <tspan
   style="fill:#ff6600;stroke-width:0.26458332px"
   id="tspan8022">-</tspan> Layer tree <tspan
   style="fill:#ff6600;stroke-width:0.26458332px"
   id="tspan8024">-</tspan> Compositor layer tree</tspan></text>
    <path
       style="fill:none;fill-rule:evenodd;stroke:#ffffff;stroke-width:1;stroke-linecap:butt;stroke-linejoin:miter;stroke-miterlimit:4;stroke-dasharray:none;stroke-opacity:1"
       d="m -11.428624,84.22978 -14.43255,19.10975"
       id="path8034"
       inkscape:connector-curvature="0" />
    <path
       style="fill:none;fill-rule:evenodd;stroke:#ffffff;stroke-width:1;stroke-linecap:butt;stroke-linejoin:miter;stroke-miterlimit:4;stroke-dasharray:none;stroke-opacity:1"
       d="m -12.898604,102.67136 -5.81311,-9.75532"
       id="path8036"
       inkscape:connector-curvature="0" />
    <path
       style="fill:none;fill-rule:evenodd;stroke:#ffffff;stroke-width:1;stroke-linecap:butt;stroke-linejoin:miter;stroke-miterlimit:4;stroke-dasharray:none;stroke-opacity:1"
       d="M -5.0809738,93.383763 -11.428624,84.22978"
       id="path8038"
       inkscape:connector-curvature="0" />
    <path
       style="color:#000000;display:inline;overflow:visible;visibility:visible;opacity:1;fill:#aa0000;fill-opacity:1;fill-rule:nonzero;stroke:#ffffff;stroke-width:1;stroke-linecap:round;stroke-linejoin:round;stroke-miterlimit:4;stroke-dasharray:none;stroke-dashoffset:0;stroke-opacity:1;marker:none;enable-background:accumulate"
       id="path8016"
       sodipodi:type="arc"
       sodipodi:cx="-11.378554"
       sodipodi:cy="84.21888"
       sodipodi:rx="3.3072917"
       sodipodi:ry="3.3072917"
       sodipodi:start="6.281789"
       sodipodi:end="6.2789616"
       sodipodi:open="true"
       d="m -8.0712658,84.214262 a 3.3072917,3.3072917 0 0 1 -3.3003332,3.311902 3.3072917,3.3072917 0 0 1 -3.314234,-3.297991 3.3072917,3.3072917 0 0 1 3.295647,-3.316565 3.3072917,3.3072917 0 0 1 3.3188939,3.293303" />
    <path
       d="m -15.252816,93.096708 a 3.3072917,3.3072917 0 0 1 -3.300333,3.311902 3.3072917,3.3072917 0 0 1 -3.314234,-3.297991 3.3072917,3.3072917 0 0 1 3.295647,-3.316564 3.3072917,3.3072917 0 0 1 3.318894,3.293302"
       sodipodi:open="true"
       sodipodi:end="6.2789616"
       sodipodi:start="6.281789"
       sodipodi:ry="3.3072917"
       sodipodi:rx="3.3072917"
       sodipodi:cy="93.101326"
       sodipodi:cx="-18.560104"
       sodipodi:type="arc"
       id="path8026"
       style="color:#000000;display:inline;overflow:visible;visibility:visible;opacity:1;fill:#aa0000;fill-opacity:1;fill-rule:nonzero;stroke:#ffffff;stroke-width:1;stroke-linecap:round;stroke-linejoin:round;stroke-miterlimit:4;stroke-dasharray:none;stroke-dashoffset:0;stroke-opacity:1;marker:none;enable-background:accumulate" />
    <path
       style="color:#000000;display:inline;overflow:visible;visibility:visible;opacity:1;fill:#aa0000;fill-opacity:1;fill-rule:nonzero;stroke:#ffffff;stroke-width:1;stroke-linecap:round;stroke-linejoin:round;stroke-miterlimit:4;stroke-dasharray:none;stroke-dashoffset:0;stroke-opacity:1;marker:none;enable-background:accumulate"
       id="path8028"
       sodipodi:type="arc"
       sodipodi:cx="-5.1419363"
       sodipodi:cy="93.101326"
       sodipodi:rx="3.3072917"
       sodipodi:ry="3.3072917"
       sodipodi:start="6.281789"
       sodipodi:end="6.2789616"
       sodipodi:open="true"
       d="m -1.8346478,93.096708 a 3.3072917,3.3072917 0 0 1 -3.3003328,3.311902 3.3072917,3.3072917 0 0 1 -3.3142344,-3.297991 3.3072917,3.3072917 0 0 1 3.2956474,-3.316564 3.3072917,3.3072917 0 0 1 3.3188935,3.293302" />
    <path
       d="m -22.512627,102.83433 a 3.3072917,3.3072917 0 0 1 -3.300333,3.3119 3.3072917,3.3072917 0 0 1 -3.314234,-3.29799 3.3072917,3.3072917 0 0 1 3.295647,-3.316568 3.3072917,3.3072917 0 0 1 3.318893,3.293298"
       sodipodi:open="true"
       sodipodi:end="6.2789616"
       sodipodi:start="6.281789"
       sodipodi:ry="3.3072917"
       sodipodi:rx="3.3072917"
       sodipodi:cy="102.83894"
       sodipodi:cx="-25.819916"
       sodipodi:type="arc"
       id="path8030"
       style="color:#000000;display:inline;overflow:visible;visibility:visible;opacity:1;fill:#aa0000;fill-opacity:1;fill-rule:nonzero;stroke:#ffffff;stroke-width:1;stroke-linecap:round;stroke-linejoin:round;stroke-miterlimit:4;stroke-dasharray:none;stroke-dashoffset:0;stroke-opacity:1;marker:none;enable-background:accumulate" />
    <path
       style="color:#000000;display:inline;overflow:visible;visibility:visible;opacity:1;fill:#aa0000;fill-opacity:1;fill-rule:nonzero;stroke:#ffffff;stroke-width:1;stroke-linecap:round;stroke-linejoin:round;stroke-miterlimit:4;stroke-dasharray:none;stroke-dashoffset:0;stroke-opacity:1;marker:none;enable-background:accumulate"
       id="path8032"
       sodipodi:type="arc"
       sodipodi:cx="-12.877028"
       sodipodi:cy="102.5049"
       sodipodi:rx="3.3072917"
       sodipodi:ry="3.3072917"
       sodipodi:start="6.281789"
       sodipodi:end="6.2789616"
       sodipodi:open="true"
       d="m -9.5697399,102.50028 a 3.3072917,3.3072917 0 0 1 -3.3003331,3.3119 3.3072917,3.3072917 0 0 1 -3.314234,-3.29799 3.3072917,3.3072917 0 0 1 3.295647,-3.316563 3.3072917,3.3072917 0 0 1 3.3188938,3.293303" />
    <path
       inkscape:connector-curvature="0"
       id="path8040"
       d="m 30.615626,84.22978 -14.43255,19.10975"
       style="fill:none;fill-rule:evenodd;stroke:#ffffff;stroke-width:1;stroke-linecap:butt;stroke-linejoin:miter;stroke-miterlimit:4;stroke-dasharray:none;stroke-opacity:1" />
    <path
       inkscape:connector-curvature="0"
       id="path8042"
       d="m 29.145646,102.67136 -5.81311,-9.75532"
       style="fill:none;fill-rule:evenodd;stroke:#ffffff;stroke-width:1;stroke-linecap:butt;stroke-linejoin:miter;stroke-miterlimit:4;stroke-dasharray:none;stroke-opacity:1" />
    <path
       inkscape:connector-curvature="0"
       id="path8044"
       d="M 36.963278,93.383763 30.615626,84.22978"
       style="fill:none;fill-rule:evenodd;stroke:#ffffff;stroke-width:1;stroke-linecap:butt;stroke-linejoin:miter;stroke-miterlimit:4;stroke-dasharray:none;stroke-opacity:1" />
    <rect
       style="color:#000000;display:inline;overflow:visible;visibility:visible;opacity:1;fill:#aa0000;fill-opacity:1;fill-rule:nonzero;stroke:#ffffff;stroke-width:1;stroke-linecap:round;stroke-linejoin:round;stroke-miterlimit:4;stroke-dasharray:none;stroke-dashoffset:0;stroke-opacity:1;marker:none;enable-background:accumulate"
       id="rect8056"
       width="6.2140164"
       height="6.2140164"
       x="27.408386"
       y="80.421188" />
    <rect
       y="90.176514"
       x="20.192108"
       height="6.2140164"
       width="6.2140164"
       id="rect8058"
       style="color:#000000;display:inline;overflow:visible;visibility:visible;opacity:1;fill:#aa0000;fill-opacity:1;fill-rule:nonzero;stroke:#ffffff;stroke-width:1;stroke-linecap:round;stroke-linejoin:round;stroke-miterlimit:4;stroke-dasharray:none;stroke-dashoffset:0;stroke-opacity:1;marker:none;enable-background:accumulate" />
    <rect
       style="color:#000000;display:inline;overflow:visible;visibility:visible;opacity:1;fill:#aa0000;fill-opacity:1;fill-rule:nonzero;stroke:#ffffff;stroke-width:1;stroke-linecap:round;stroke-linejoin:round;stroke-miterlimit:4;stroke-dasharray:none;stroke-dashoffset:0;stroke-opacity:1;marker:none;enable-background:accumulate"
       id="rect8060"
       width="6.2140164"
       height="6.2140164"
       x="34.012558"
       y="90.176514" />
    <rect
       y="100.39958"
       x="12.975823"
       height="6.2140164"
       width="6.2140164"
       id="rect8062"
       style="color:#000000;display:inline;overflow:visible;visibility:visible;opacity:1;fill:#aa0000;fill-opacity:1;fill-rule:nonzero;stroke:#ffffff;stroke-width:1;stroke-linecap:round;stroke-linejoin:round;stroke-miterlimit:4;stroke-dasharray:none;stroke-dashoffset:0;stroke-opacity:1;marker:none;enable-background:accumulate" />
    <rect
       style="color:#000000;display:inline;overflow:visible;visibility:visible;opacity:1;fill:#aa0000;fill-opacity:1;fill-rule:nonzero;stroke:#ffffff;stroke-width:1;stroke-linecap:round;stroke-linejoin:round;stroke-miterlimit:4;stroke-dasharray:none;stroke-dashoffset:0;stroke-opacity:1;marker:none;enable-background:accumulate"
       id="rect8064"
       width="6.2140164"
       height="6.2140164"
       x="26.472946"
       y="100.39958" />
    <g
       id="g8158"
       transform="translate(-40.822894,40.071268)">
      <rect
         style="color:#000000;display:inline;overflow:visible;visibility:visible;opacity:1;fill:#aa0000;fill-opacity:1;fill-rule:nonzero;stroke:#ffffff;stroke-width:1;stroke-linecap:round;stroke-linejoin:round;stroke-miterlimit:4;stroke-dasharray:none;stroke-dashoffset:0;stroke-opacity:1;marker:none;enable-background:accumulate"
         id="rect8066"
         width="6.2140164"
         height="6.2140164"
         x="97.085648"
         y="44.626236" />
      <rect
         y="44.626236"
         x="103.29967"
         height="6.2140164"
         width="6.2140164"
         id="rect8068"
         style="color:#000000;display:inline;overflow:visible;visibility:visible;opacity:1;fill:#aa0000;fill-opacity:1;fill-rule:nonzero;stroke:#ffffff;stroke-width:1;stroke-linecap:round;stroke-linejoin:round;stroke-miterlimit:4;stroke-dasharray:none;stroke-dashoffset:0;stroke-opacity:1;marker:none;enable-background:accumulate" />
      <rect
         style="color:#000000;display:inline;overflow:visible;visibility:visible;opacity:1;fill:#aa0000;fill-opacity:1;fill-rule:nonzero;stroke:#ffffff;stroke-width:1;stroke-linecap:round;stroke-linejoin:round;stroke-miterlimit:4;stroke-dasharray:none;stroke-dashoffset:0;stroke-opacity:1;marker:none;enable-background:accumulate"
         id="rect8070"
         width="6.2140164"
         height="6.2140164"
         x="109.51369"
         y="44.626236" />
      <rect
         y="44.626236"
         x="115.72771"
         height="6.2140164"
         width="6.2140164"
         id="rect8072"
         style="color:#000000;display:inline;overflow:visible;visibility:visible;opacity:1;fill:#aa0000;fill-opacity:1;fill-rule:nonzero;stroke:#ffffff;stroke-width:1;stroke-linecap:round;stroke-linejoin:round;stroke-miterlimit:4;stroke-dasharray:none;stroke-dashoffset:0;stroke-opacity:1;marker:none;enable-background:accumulate" />
      <rect
         style="color:#000000;display:inline;overflow:visible;visibility:visible;opacity:1;fill:#aa0000;fill-opacity:1;fill-rule:nonzero;stroke:#ffffff;stroke-width:1;stroke-linecap:round;stroke-linejoin:round;stroke-miterlimit:4;stroke-dasharray:none;stroke-dashoffset:0;stroke-opacity:1;marker:none;enable-background:accumulate"
         id="rect8074"
         width="6.2140164"
         height="6.2140164"
         x="121.94173"
         y="44.626236" />
      <rect
         style="color:#000000;display:inline;overflow:visible;visibility:visible;opacity:1;fill:#aa0000;fill-opacity:1;fill-rule:nonzero;stroke:#ffffff;stroke-width:1;stroke-linecap:round;stroke-linejoin:round;stroke-miterlimit:4;stroke-dasharray:none;stroke-dashoffset:0;stroke-opacity:1;marker:none;enable-background:accumulate"
         id="rect8076"
         width="6.2140164"
         height="6.2140164"
         x="111.42616"
         y="55.398556" />
      <rect
         y="55.398556"
         x="117.64017"
         height="6.2140164"
         width="6.2140164"
         id="rect8078"
         style="color:#000000;display:inline;overflow:visible;visibility:visible;opacity:1;fill:#aa0000;fill-opacity:1;fill-rule:nonzero;stroke:#ffffff;stroke-width:1;stroke-linecap:round;stroke-linejoin:round;stroke-miterlimit:4;stroke-dasharray:none;stroke-dashoffset:0;stroke-opacity:1;marker:none;enable-background:accumulate" />
      <rect
         style="color:#000000;display:inline;overflow:visible;visibility:visible;opacity:1;fill:#aa0000;fill-opacity:1;fill-rule:nonzero;stroke:#ffffff;stroke-width:1;stroke-linecap:round;stroke-linejoin:round;stroke-miterlimit:4;stroke-dasharray:none;stroke-dashoffset:0;stroke-opacity:1;marker:none;enable-background:accumulate"
         id="rect8080"
         width="6.2140164"
         height="6.2140164"
         x="123.85419"
         y="55.398556" />
      <path
         sodipodi:nodetypes="cc"
         inkscape:connector-curvature="0"
         id="path8084"
         d="m 106.21131,50.667709 c 0,4.724703 1.03943,7.843006 5.00818,7.843006"
         style="fill:none;fill-rule:evenodd;stroke:#ffffff;stroke-width:1;stroke-linecap:butt;stroke-linejoin:miter;stroke-miterlimit:4;stroke-dasharray:none;stroke-opacity:1" />
    </g>
    <path
       style="fill:none;fill-rule:evenodd;stroke:#ffffff;stroke-width:1;stroke-linecap:butt;stroke-linejoin:miter;stroke-miterlimit:4;stroke-dasharray:none;stroke-opacity:1"
       d="m 118.87305,87.442579 -7.39274,9.424129"
       id="path8086"
       inkscape:connector-curvature="0"
       sodipodi:nodetypes="cc" />
    <path
       style="fill:none;fill-rule:evenodd;stroke:#ffffff;stroke-width:1;stroke-linecap:butt;stroke-linejoin:miter;stroke-miterlimit:4;stroke-dasharray:none;stroke-opacity:1"
       d="m 125.22071,96.596561 -6.34766,-9.153982"
       id="path8090"
       inkscape:connector-curvature="0" />
    <rect
       y="83.63398"
       x="115.66586"
       height="6.2140164"
       width="6.2140164"
       id="rect8092"
       style="color:#000000;display:inline;overflow:visible;visibility:visible;opacity:1;fill:#aa0000;fill-opacity:1;fill-rule:nonzero;stroke:#ffffff;stroke-width:1;stroke-linecap:round;stroke-linejoin:round;stroke-miterlimit:4;stroke-dasharray:none;stroke-dashoffset:0;stroke-opacity:1;marker:none;enable-background:accumulate" />
    <rect
       style="color:#000000;display:inline;overflow:visible;visibility:visible;opacity:1;fill:#aa0000;fill-opacity:1;fill-rule:nonzero;stroke:#ffffff;stroke-width:1;stroke-linecap:round;stroke-linejoin:round;stroke-miterlimit:4;stroke-dasharray:none;stroke-dashoffset:0;stroke-opacity:1;marker:none;enable-background:accumulate"
       id="rect8094"
       width="6.2140164"
       height="6.2140164"
       x="108.44958"
       y="93.38932" />
    <rect
       y="93.38932"
       x="122.27005"
       height="6.2140164"
       width="6.2140164"
       id="rect8096"
       style="color:#000000;display:inline;overflow:visible;visibility:visible;opacity:1;fill:#aa0000;fill-opacity:1;fill-rule:nonzero;stroke:#ffffff;stroke-width:1;stroke-linecap:round;stroke-linejoin:round;stroke-miterlimit:4;stroke-dasharray:none;stroke-dashoffset:0;stroke-opacity:1;marker:none;enable-background:accumulate" />
    <path
       inkscape:connector-curvature="0"
       id="path8147"
       d="M 137.31139,98.878889 V 85.44861 l 7.01586,7.015826 z"
       style="fill:#ff6600;fill-rule:evenodd;stroke:none;stroke-width:0.26458332px;stroke-linecap:butt;stroke-linejoin:miter;stroke-opacity:1" />
    <path
       style="fill:none;fill-rule:evenodd;stroke:#ffffff;stroke-width:1;stroke-linecap:butt;stroke-linejoin:miter;stroke-miterlimit:4;stroke-dasharray:3.00000011, 3.00000011;stroke-dashoffset:0;stroke-opacity:1"
       d="M 140.11429,76.054597 V 116.49803"
       id="path8102"
       inkscape:connector-curvature="0"
       sodipodi:nodetypes="cc" />
    <path
       sodipodi:nodetypes="cc"
       inkscape:connector-curvature="0"
       id="path8104"
       d="m 166.49836,87.442579 -7.39275,9.424129"
       style="fill:none;fill-rule:evenodd;stroke:#ffffff;stroke-width:1;stroke-linecap:butt;stroke-linejoin:miter;stroke-miterlimit:4;stroke-dasharray:none;stroke-opacity:1" />
    <path
       inkscape:connector-curvature="0"
       id="path8106"
       d="m 172.84601,96.596561 -6.34765,-9.153982"
       style="fill:none;fill-rule:evenodd;stroke:#ffffff;stroke-width:1;stroke-linecap:butt;stroke-linejoin:miter;stroke-miterlimit:4;stroke-dasharray:none;stroke-opacity:1" />
    <rect
       style="color:#000000;display:inline;overflow:visible;visibility:visible;opacity:1;fill:#aa0000;fill-opacity:1;fill-rule:nonzero;stroke:#ffffff;stroke-width:1;stroke-linecap:round;stroke-linejoin:round;stroke-miterlimit:4;stroke-dasharray:none;stroke-dashoffset:0;stroke-opacity:1;marker:none;enable-background:accumulate"
       id="rect8108"
       width="6.2140164"
       height="6.2140164"
       x="163.29024"
       y="83.63398" />
    <rect
       y="93.38932"
       x="156.07394"
       height="6.2140164"
       width="6.2140164"
       id="rect8110"
       style="color:#000000;display:inline;overflow:visible;visibility:visible;opacity:1;fill:#aa0000;fill-opacity:1;fill-rule:nonzero;stroke:#ffffff;stroke-width:1;stroke-linecap:round;stroke-linejoin:round;stroke-miterlimit:4;stroke-dasharray:none;stroke-dashoffset:0;stroke-opacity:1;marker:none;enable-background:accumulate" />
    <rect
       style="color:#000000;display:inline;overflow:visible;visibility:visible;opacity:1;fill:#aa0000;fill-opacity:1;fill-rule:nonzero;stroke:#ffffff;stroke-width:1;stroke-linecap:round;stroke-linejoin:round;stroke-miterlimit:4;stroke-dasharray:none;stroke-dashoffset:0;stroke-opacity:1;marker:none;enable-background:accumulate"
       id="rect8112"
       width="6.2140164"
       height="6.2140164"
       x="169.89439"
       y="93.38932" />
    <g
       id="g8123"
       transform="translate(-39.235394,27.900428)"
       style="stroke:#d45500">
      <rect
         y="56.941742"
         x="245.49228"
         height="12.82498"
         width="16.108173"
         id="rect8114"
         style="color:#000000;display:inline;overflow:visible;visibility:visible;opacity:1;fill:#aa0000;fill-opacity:1;fill-rule:nonzero;stroke:#d45500;stroke-width:0.76776308;stroke-linecap:round;stroke-linejoin:round;stroke-miterlimit:4;stroke-dasharray:none;stroke-dashoffset:0;stroke-opacity:1;marker:none;enable-background:accumulate" />
      <rect
         style="color:#000000;display:inline;overflow:visible;visibility:visible;opacity:1;fill:#aa0000;fill-opacity:1;fill-rule:nonzero;stroke:#d45500;stroke-width:0.76776308;stroke-linecap:round;stroke-linejoin:round;stroke-miterlimit:4;stroke-dasharray:none;stroke-dashoffset:0;stroke-opacity:1;marker:none;enable-background:accumulate"
         id="rect8116"
         width="12.865345"
         height="9.6790562"
         x="247.08463"
         y="58.47345" />
      <path
         inkscape:connector-curvature="0"
         id="path8118"
         d="m 246.89605,69.667519 -1.88627,1.886274 h 16.90393 l -1.76839,-1.768382"
         style="fill:none;fill-rule:evenodd;stroke:#d45500;stroke-width:0.76776308;stroke-linecap:butt;stroke-linejoin:round;stroke-miterlimit:4;stroke-dasharray:none;stroke-opacity:1" />
    </g>
    <path
       style="fill:#ff6600;fill-rule:evenodd;stroke:none;stroke-width:0.26458332px;stroke-linecap:butt;stroke-linejoin:miter;stroke-opacity:1"
       d="M 4.4900362,98.878889 V 85.44861 l 7.0158198,7.015826 z"
       id="path8141"
       inkscape:connector-curvature="0" />
    <path
       inkscape:connector-curvature="0"
       id="path8143"
       d="M 46.294225,98.878889 V 85.44861 l 7.015824,7.015826 z"
       style="fill:#ff6600;fill-rule:evenodd;stroke:none;stroke-width:0.26458332px;stroke-linecap:butt;stroke-linejoin:miter;stroke-opacity:1" />
    <path
       style="fill:#ff6600;fill-rule:evenodd;stroke:none;stroke-width:0.26458332px;stroke-linecap:butt;stroke-linejoin:miter;stroke-opacity:1"
       d="M 94.448615,98.878889 V 85.44861 l 7.015865,7.015826 z"
       id="path8145"
       inkscape:connector-curvature="0" />
    <path
       style="fill:#ff6600;fill-rule:evenodd;stroke:none;stroke-width:0.26458332px;stroke-linecap:butt;stroke-linejoin:miter;stroke-opacity:1"
       d="M 190.22839,98.878889 V 85.44861 l 7.01586,7.015826 z"
       id="path8160"
       inkscape:connector-curvature="0" />
    <g
       id="g8206"
       transform="matrix(0.72793809,0,0,0.72793809,-1.840305,1.1368106)">
      <path
         d="m 148.20399,81.662689 a 12.698356,12.698356 0 0 1 -12.67164,12.716059 12.698356,12.698356 0 0 1 -12.72501,-12.662646 12.698356,12.698356 0 0 1 12.65365,-12.733959 12.698356,12.698356 0 0 1 12.7429,12.644643"
         sodipodi:open="true"
         sodipodi:end="6.2789616"
         sodipodi:start="6.281789"
         sodipodi:ry="12.698356"
         sodipodi:rx="12.698356"
         sodipodi:cy="81.68042"
         sodipodi:cx="135.50565"
         sodipodi:type="arc"
         id="path7999"
         style="color:#000000;display:inline;overflow:visible;visibility:visible;opacity:1;fill:#ffffff;fill-opacity:1;fill-rule:nonzero;stroke:#aa0000;stroke-width:1;stroke-linecap:round;stroke-linejoin:round;stroke-miterlimit:4;stroke-dasharray:none;stroke-dashoffset:0;stroke-opacity:1;marker:none;enable-background:accumulate" />
      <path
         inkscape:connector-curvature="0"
         id="path8202"
         d="m 134.44202,92.293845 c -0.009,-0.0089 -0.13704,-0.02565 -0.28462,-0.03713 -0.14758,-0.01148 -0.33563,-0.03122 -0.41791,-0.04388 -0.58624,-0.09045 -0.6728,-0.106848 -1.08448,-0.205457 -0.3039,-0.0728 -0.43448,-0.108548 -0.53601,-0.14675 -0.0274,-0.0103 -0.10596,-0.03601 -0.17451,-0.05707 -0.19126,-0.05877 -0.48724,-0.165963 -0.60035,-0.217416 -0.0559,-0.02545 -0.15692,-0.06813 -0.22437,-0.09484 -0.35906,-0.142171 -0.96517,-0.460374 -1.32206,-0.69407 -0.12179,-0.07976 -0.23964,-0.156229 -0.26187,-0.169938 -0.15426,-0.09513 -0.54471,-0.388823 -0.80741,-0.60732 -0.35675,-0.29674 -1.12464,-1.082423 -1.41664,-1.449461 -0.98309,-1.235743 -1.71259,-2.642282 -2.12056,-4.088625 -0.1236,-0.438183 -0.22829,-1.008823 -0.25499,-1.389885 -0.022,-0.314169 -0.0633,-0.311479 -0.0957,0.0066 -0.008,0.08227 -0.0224,0.194457 -0.0312,0.249308 -0.0145,0.0908 -0.0175,0.09415 -0.0342,0.03739 -0.0666,-0.226914 0.0471,-2.19258 0.16141,-2.792232 0.0405,-0.212494 0.0696,-0.452073 0.0566,-0.465173 -0.0216,-0.02158 -0.22906,0.430948 -0.30754,0.670851 -0.0233,0.07107 -0.0653,0.05002 -0.0498,-0.02494 0.0799,-0.386147 0.20427,-0.920146 0.2396,-1.028389 0.0112,-0.03428 0.0327,-0.107203 0.0479,-0.162048 0.0692,-0.250241 0.18538,-0.61865 0.22793,-0.72299 0.0165,-0.04047 0.12401,-0.328146 0.22359,-0.598336 0.0421,-0.114302 0.30377,-0.616068 0.42945,-0.823591 0.0744,-0.122921 0.14858,-0.261631 0.16476,-0.30824 0.0187,-0.05389 0.0294,-0.262679 0.0294,-0.573404 6e-5,-0.415528 0.0439,-1.037364 0.0854,-1.21165 0.007,-0.02741 0.0295,-0.124496 0.051,-0.215716 0.0706,-0.299038 0.13719,-0.477729 0.30063,-0.80644 0.16115,-0.324055 0.53733,-0.871855 0.5873,-0.855201 0.0138,0.0046 0.0571,0.103607 0.0962,0.220003 0.12205,0.363206 0.29726,0.732729 0.51793,1.092333 0.0353,0.05753 0.0424,0.05167 0.576,-0.474534 0.29714,-0.293028 0.69044,-0.652698 0.87399,-0.799269 1.36242,-1.087896 2.96451,-1.771049 4.68979,-1.999795 0.89112,-0.118148 2.52437,-0.118148 3.4155,0 1.83387,0.243141 3.56248,1.017156 4.96119,2.221453 0.14398,0.12396 0.3964,0.313369 0.56095,0.420905 0.36729,0.240043 0.50886,0.352443 0.8011,0.636034 0.40422,0.392254 0.72336,0.823813 0.94898,1.283218 0.0741,0.150829 0.14296,0.282516 0.15307,0.292639 0.0539,0.05391 -0.0107,-0.598803 -0.0867,-0.876173 -0.0211,-0.0767 -0.0472,-0.173114 -0.058,-0.214249 -0.0109,-0.04113 -0.0372,-0.125277 -0.0584,-0.18698 -0.0213,-0.06171 -0.0465,-0.155437 -0.0561,-0.208301 -0.0169,-0.09298 -0.0157,-0.09517 0.0369,-0.067 0.085,0.04548 0.28944,0.339526 0.41308,0.59411 0.0619,0.12735 0.11246,0.236855 0.11246,0.243345 0,0.0065 0.0236,0.06497 0.0524,0.12995 0.0947,0.21379 0.16433,0.401729 0.26078,0.704018 0.0372,0.116549 0.0761,0.234346 0.0864,0.261772 0.0509,0.134778 0.1711,0.561858 0.25091,0.891269 0.0245,0.101287 0.0588,0.238787 0.0962,0.386424 0.11752,0.463348 0.26584,1.312749 0.3254,1.863568 0.0148,0.137116 0.0349,0.31599 0.0446,0.397495 l 0.0176,0.148192 0.0535,-0.160656 c 0.0294,-0.08836 0.0673,-0.222359 0.0841,-0.297775 0.0168,-0.07542 0.0404,-0.169645 0.0524,-0.209399 0.012,-0.03975 0.0226,-0.112675 0.0234,-0.162049 6.6e-4,-0.04937 0.0167,-0.157081 0.0353,-0.239352 0.0312,-0.138635 0.0338,-0.100315 0.0346,0.523544 0.001,0.914204 -0.0339,1.405785 -0.16904,2.368409 -0.0663,0.472261 -0.13637,0.865938 -0.22517,1.265229 -0.0664,0.298557 -0.22454,0.919738 -0.24909,0.978531 -0.0115,0.02742 -0.033,0.09473 -0.048,0.149583 -0.18134,0.667196 -0.51501,1.51775 -0.84294,2.148763 -0.12469,0.239922 -0.1564,0.298144 -0.28597,0.525045 -0.0294,0.05143 -0.0815,0.143975 -0.11579,0.20568 -0.0591,0.106232 -0.40036,0.611624 -0.59928,0.887471 -0.46653,0.646927 -1.25627,1.434846 -1.94695,1.942462 -0.50284,0.369564 -1.20975,0.776235 -1.77211,1.019462 -0.0891,0.03857 -0.19785,0.08592 -0.24161,0.105274 -0.0438,0.01935 -0.1896,0.07503 -0.3241,0.123732 -0.76287,0.276241 -1.36125,0.440761 -1.9784,0.543936 -0.34072,0.05694 -0.55157,0.07949 -1.30191,0.139068 -0.35058,0.02781 -1.77033,0.03496 -1.7963,0.009 z m 2.77529,-5.033442 c 0.17292,-0.01699 0.47977,-0.08525 0.61081,-0.135834 0.0274,-0.01063 0.10034,-0.03404 0.16205,-0.05215 0.23935,-0.07014 0.57108,-0.23432 0.9221,-0.456373 0.50925,-0.322165 1.15182,-0.955087 1.5585,-1.535093 0.0686,-0.09778 0.13587,-0.191243 0.14958,-0.207681 0.0137,-0.01646 0.0796,-0.114031 0.14646,-0.216872 0.21212,-0.326336 0.28367,-0.377356 0.25349,-0.180741 -0.01,0.06514 -0.0276,0.202558 -0.0391,0.305399 -0.0339,0.302328 -0.11965,0.767222 -0.21355,1.15672 l -0.0174,0.07225 0.11013,-0.07577 c 0.38766,-0.266717 0.71554,-0.920138 0.86638,-1.726599 0.0572,-0.30589 0.0785,-0.44936 0.1072,-0.722984 0.0317,-0.302375 0.0408,-1.703087 0.0123,-1.894731 -0.0257,-0.172307 0.004,-0.192554 0.14332,-0.09843 0.0647,0.04369 0.17281,0.134553 0.24018,0.201921 0.12808,0.128074 0.3227,0.396878 0.3227,0.44569 0,0.0156 0.0129,0.02409 0.0286,0.01884 0.052,-0.01734 0.14839,-0.371712 0.24603,-0.904585 0.0455,-0.248076 0.0619,-0.533725 0.0617,-1.072015 -2.5e-4,-0.640758 -0.0379,-1.10185 -0.14859,-1.817765 -0.0474,-0.306638 -0.0474,-0.313805 0.003,-0.313805 0.14749,0 0.51536,0.329182 0.69731,0.623974 0.0525,0.08499 0.0998,0.141398 0.10512,0.125344 0.0112,-0.03358 -0.0344,-0.315472 -0.0749,-0.462617 -0.30148,-1.096297 -0.90362,-1.923454 -1.9494,-2.677849 -0.53017,-0.382449 -1.44158,-0.820155 -2.18432,-1.049024 -0.33399,-0.102915 -0.39889,-0.127005 -0.39889,-0.148056 0,-0.01952 0.35726,-0.109417 0.59833,-0.150532 0.24348,-0.04153 0.59159,-0.07551 1.02215,-0.09979 0.21254,-0.01198 0.39097,-0.02268 0.39653,-0.02373 0.0602,-0.01163 -0.50759,-0.393714 -0.80788,-0.543587 -0.2631,-0.131312 -0.77253,-0.27441 -1.50831,-0.423678 -0.23995,-0.04869 -0.44431,-0.10102 -0.45413,-0.116305 -0.0127,-0.01982 0.091,-0.03137 0.36149,-0.04026 l 0.37935,-0.01246 -0.22438,-0.08257 c -0.57323,-0.210964 -1.36009,-0.399239 -2.07002,-0.495311 -0.46138,-0.06243 -1.82887,-0.06255 -2.29284,-1.97e-4 -1.87776,0.252372 -3.52765,0.972242 -4.93375,2.152661 -0.16592,0.139293 -0.40826,0.362055 -0.53853,0.495029 -0.23078,0.235583 -0.2346,0.241368 -0.14958,0.226162 0.58406,-0.104461 1.54487,-0.07692 1.98768,0.05698 0.0789,0.02385 0.0854,0.0194 0.32506,-0.220233 0.51612,-0.516118 1.13756,-0.814199 1.94856,-0.93464 0.27286,-0.04053 0.62556,-0.05177 0.62447,-0.01991 -3e-4,0.01028 -0.0589,0.05797 -0.13013,0.105955 -0.47114,0.317506 -0.83511,0.77861 -1.01797,1.289633 -0.0283,0.07913 -0.0606,0.166318 -0.0718,0.193741 -0.0111,0.02741 -0.0341,0.100345 -0.051,0.162047 -0.0169,0.06171 -0.0406,0.144714 -0.0527,0.184469 -0.0569,0.186959 -0.0373,0.234555 0.21328,0.517201 0.27638,0.311708 0.48006,0.484972 0.60776,0.517009 0.0505,0.01266 0.35548,0.03055 0.6777,0.03974 0.32223,0.0092 0.67002,0.01961 0.77286,0.02317 0.22635,0.0078 0.43104,0.07168 0.49644,0.154831 0.11544,0.14676 0.12074,0.483883 0.0106,0.676634 -0.063,0.110374 -0.24476,0.305222 -0.28462,0.305222 -0.0273,0 -0.24826,0.153562 -0.37482,0.260496 -0.0495,0.04184 -0.22813,0.171427 -0.39693,0.287979 -0.67132,0.463548 -0.98083,0.712676 -0.95817,0.771264 0.0731,0.189182 0.154,1.342626 0.0957,1.364987 -0.0249,0.0095 -0.1072,-0.01095 -0.37077,-0.09234 -0.27022,-0.08346 -0.63679,-0.07096 -0.84964,0.02895 -0.15731,0.07385 -0.29892,0.227294 -0.39598,0.429097 -0.0917,0.190731 -0.10296,0.249068 -0.0664,0.345194 0.012,0.03149 0.0419,0.118969 0.0663,0.194385 0.13123,0.404074 0.3658,0.730738 0.7388,1.028862 0.064,0.05116 0.12369,0.09301 0.13262,0.09301 0.009,0 0.0651,0.03365 0.12496,0.07479 0.0598,0.04113 0.11478,0.07479 0.12223,0.07479 0.007,0 0.0783,0.02919 0.15755,0.06494 0.33463,0.150797 0.52681,0.207478 0.7801,0.230075 0.21792,0.01942 0.59811,-0.0059 0.70828,-0.04697 0.19965,-0.07466 0.27176,-0.103883 0.41327,-0.167484 0.19248,-0.08652 0.28328,-0.123536 0.38642,-0.157554 0.0548,-0.0181 0.11038,-0.04178 0.12341,-0.05274 0.013,-0.01089 0.0488,-0.01988 0.0796,-0.01988 0.0308,0 0.062,-0.01004 0.0696,-0.0223 0.008,-0.01227 0.056,-0.02853 0.10744,-0.03614 0.0515,-0.0076 0.16656,-0.02479 0.25569,-0.03818 0.52225,-0.07843 0.80396,-0.05189 1.25896,0.118537 0.31347,0.117422 0.63953,0.366769 0.74413,0.569045 0.092,0.177868 0.0694,0.475205 -0.0407,0.53535 -0.0304,0.01659 -0.19548,0.03811 -0.36688,0.04782 -0.1714,0.0097 -0.34529,0.03135 -0.38643,0.04815 -0.24446,0.09964 -0.4741,0.237678 -0.77809,0.467741 -0.18908,0.143096 -0.38305,0.285313 -0.43104,0.316031 -0.32787,0.209879 -0.77435,0.387878 -1.15927,0.462165 -0.0823,0.01587 -0.19446,0.0387 -0.24931,0.05077 -0.32413,0.0712 -1.04284,0.08768 -1.44488,0.03313 l -0.12355,-0.01673 0.12475,0.109774 c 0.39451,0.347169 1.16241,0.812692 1.61819,0.98101 0.0686,0.02532 0.16953,0.06615 0.22438,0.09074 0.16683,0.07479 0.58481,0.20694 0.87257,0.275867 0.71549,0.171375 1.10555,0.208875 1.63296,0.156989 z"
         style="fill:#aa0000;fill-opacity:1;stroke-width:0.02493064" />
    </g>
    <text
       xml:space="preserve"
       style="font-style:normal;font-weight:normal;font-size:5.29166651px;line-height:6.61458302px;font-family:Sans;letter-spacing:0px;word-spacing:0px;fill:#000000;fill-opacity:1;stroke:none;stroke-width:0.26458332px;stroke-linecap:butt;stroke-linejoin:miter;stroke-opacity:1"
       x="76.759567"
       y="110.71507"
       id="text5371"><tspan
         sodipodi:role="line"
         id="tspan5369"
         x="76.759567"
         y="110.71507"
         style="font-style:normal;font-variant:normal;font-weight:normal;font-stretch:normal;font-size:7.76111126px;font-family:'fira sans';-inkscape-font-specification:'fira sans';fill:#ffffff;stroke-width:0.26458332px">Content process</tspan></text>
    <text
       id="text5375"
       y="110.71507"
       x="145.97162"
       style="font-style:normal;font-weight:normal;font-size:5.29166651px;line-height:6.61458302px;font-family:Sans;letter-spacing:0px;word-spacing:0px;fill:#000000;fill-opacity:1;stroke:none;stroke-width:0.26458332px;stroke-linecap:butt;stroke-linejoin:miter;stroke-opacity:1"
       xml:space="preserve"><tspan
         style="font-style:normal;font-variant:normal;font-weight:normal;font-stretch:normal;font-size:7.76111126px;font-family:'fira sans';-inkscape-font-specification:'fira sans';fill:#ffffff;stroke-width:0.26458332px"
         y="110.71507"
         x="145.97162"
         id="tspan5373"
         sodipodi:role="line">Compositor process</tspan></text>
  </g>
</svg>
